{"glyphs":{"0":{"ha":871,"x_min":86,"x_max":843,"o":"m 408 -16 q 584 31 504 -16 q 722 166 664 79 q 811 374 780 254 q 843 640 843 494 q 804 828 843 748 q 692 951 764 907 q 522 995 621 995 q 347 947 427 995 q 209 810 267 899 q 118 601 150 722 q 86 336 86 481 q 125 150 86 229 q 237 27 165 71 q 408 -16 309 -16 m 212 338 q 236 553 212 454 q 301 728 259 653 q 398 845 342 803 q 518 887 454 887 q 623 857 578 887 q 692 770 667 826 q 716 639 716 715 q 693 422 716 522 q 629 248 670 323 q 533 132 588 174 q 413 91 477 91 q 307 121 352 91 q 237 207 262 151 q 212 338 212 262 z "},"1":{"ha":619,"x_min":131,"x_max":583,"o":"m 252 0 l 374 0 l 583 979 l 461 979 q 401 941 431 960 q 341 904 371 922 q 281 866 311 885 q 221 829 251 848 q 161 791 191 810 l 131 650 q 190 687 161 668 q 250 724 220 705 q 309 761 279 743 q 368 799 338 780 q 427 836 397 817 l 430 836 l 252 0 z "},"2":{"ha":808,"x_min":14,"x_max":783,"o":"m 155 709 q 215 709 184 709 q 275 709 245 709 q 314 805 286 765 q 386 867 342 845 q 485 888 430 888 q 576 869 536 888 q 637 814 615 849 q 659 733 659 779 q 649 670 659 701 q 613 607 638 640 q 546 533 589 574 q 439 437 504 492 l 34 98 l 14 0 l 672 0 l 695 110 l 207 110 l 208 113 l 503 357 q 640 477 585 425 q 726 572 694 529 q 770 657 757 615 q 783 747 783 699 q 745 874 783 819 q 642 963 707 930 q 492 995 576 995 q 328 959 401 995 q 210 859 255 924 q 155 709 164 795 z "},"3":{"ha":827,"x_min":45,"x_max":800,"o":"m 300 454 l 422 454 q 568 409 516 454 q 619 288 619 364 q 590 182 619 227 q 511 115 562 138 q 395 91 460 91 q 275 113 325 91 q 197 177 224 135 q 166 278 169 218 q 166 278 166 278 q 166 278 166 278 l 48 278 q 48 278 48 278 q 48 278 48 278 q 84 131 45 197 q 201 24 124 64 q 389 -16 279 -16 q 569 22 488 -16 q 697 129 650 60 q 745 288 745 197 q 701 426 745 368 q 576 503 657 484 l 577 505 q 691 546 640 514 q 770 627 741 578 q 800 738 800 677 q 763 866 800 808 q 658 959 726 924 q 498 994 590 994 q 339 963 410 994 q 222 874 269 932 q 161 736 176 816 l 279 736 q 350 846 292 804 q 485 888 407 888 q 587 867 545 888 q 653 810 630 847 q 676 725 676 774 q 647 635 676 673 q 565 576 617 597 q 446 555 513 555 l 322 555 l 300 454 z "},"4":{"ha":836,"x_min":25,"x_max":796,"o":"m 469 0 l 588 0 l 631 203 l 770 203 l 793 312 l 654 312 l 796 979 l 606 979 q 492 850 548 913 q 384 726 436 786 q 282 609 331 665 q 191 501 234 553 q 110 404 147 450 q 43 319 73 358 l 25 203 l 512 203 l 469 0 m 172 314 q 253 414 212 363 q 337 515 295 465 q 422 613 380 565 q 505 708 465 662 q 583 795 545 753 q 652 873 620 837 l 655 873 l 535 311 l 172 311 l 172 314 z "},"5":{"ha":808,"x_min":65,"x_max":824,"o":"m 405 -16 q 589 30 509 -16 q 715 155 669 76 q 761 334 761 234 q 722 500 761 431 q 617 605 684 569 q 467 641 551 641 q 351 621 406 641 q 263 564 296 600 l 260 564 l 355 869 l 800 869 l 824 979 l 275 979 l 109 448 q 173 448 141 448 q 237 448 205 448 q 292 499 259 479 q 362 528 324 519 q 437 538 400 538 q 542 512 496 538 q 612 439 587 486 q 637 331 637 393 q 608 208 637 261 q 528 124 579 154 q 409 94 476 94 q 298 117 347 94 q 220 181 250 140 q 185 277 190 222 q 185 277 185 277 q 185 277 185 277 l 65 277 q 65 277 65 277 q 65 277 65 277 q 65 277 65 277 q 110 125 66 191 q 230 21 154 59 q 405 -16 307 -16 z "},"6":{"ha":836,"x_min":98,"x_max":861,"o":"m 791 355 q 753 505 791 440 q 648 607 715 570 q 494 644 581 644 q 342 608 410 644 q 235 513 275 571 l 231 514 q 299 711 253 627 q 407 840 345 794 q 543 886 470 886 q 635 866 595 886 q 702 809 676 846 q 736 722 728 772 l 861 722 q 813 865 854 803 q 706 961 772 926 q 555 995 640 995 q 404 963 474 995 q 278 874 334 932 q 181 740 221 817 q 119 570 141 663 q 98 375 98 477 q 140 156 98 243 q 256 26 182 69 q 420 -16 329 -16 q 580 15 511 -16 q 696 99 649 46 q 767 219 743 153 q 791 355 791 286 m 465 538 q 568 512 523 538 q 639 439 614 486 q 665 331 665 392 q 635 209 665 262 q 553 123 606 155 q 431 92 500 92 q 323 120 370 92 q 249 195 276 147 q 222 305 222 243 q 254 428 222 376 q 341 510 286 481 q 465 538 396 538 z "},"7":{"ha":733,"x_min":24,"x_max":806,"o":"m 24 0 l 162 0 l 781 865 l 806 979 l 178 979 l 155 869 l 650 869 l 650 865 l 24 0 z "},"8":{"ha":843,"x_min":41,"x_max":824,"o":"m 763 286 q 721 418 763 360 q 604 502 678 476 l 605 505 q 720 557 670 520 q 797 646 769 594 q 824 758 824 699 q 785 880 824 827 q 677 963 746 933 q 519 994 608 994 q 348 957 424 994 q 227 857 271 920 q 182 716 182 794 q 215 606 182 655 q 308 530 248 557 l 307 527 q 171 474 231 515 q 76 373 111 433 q 41 243 41 313 q 86 109 41 168 q 209 16 130 50 q 389 -18 288 -18 q 581 22 496 -18 q 714 130 665 62 q 763 286 763 199 m 418 457 q 533 436 483 457 q 611 377 583 414 q 639 290 639 339 q 607 187 639 233 q 520 116 575 142 q 395 90 465 90 q 232 136 295 90 q 170 258 170 183 q 202 360 170 315 q 291 431 235 405 q 418 457 347 457 m 302 709 q 330 801 302 761 q 405 865 357 842 q 511 888 452 888 q 647 848 595 888 q 699 742 699 807 q 671 650 699 691 q 595 585 643 609 q 487 562 547 562 q 354 603 406 562 q 302 709 302 644 z "},"9":{"ha":835,"x_min":66,"x_max":831,"o":"m 465 441 q 359 468 405 441 q 288 542 313 494 q 265 650 263 589 q 297 772 267 719 q 379 856 328 826 q 496 886 431 886 q 605 861 558 886 q 678 788 652 835 q 704 680 704 742 q 686 582 704 626 q 635 507 668 538 q 559 458 603 475 q 465 441 515 441 m 141 628 q 180 477 141 544 q 287 373 219 411 q 442 335 355 335 q 539 349 492 335 q 626 392 587 363 q 692 465 665 420 l 696 465 q 634 272 677 356 q 529 141 592 189 q 382 94 465 94 q 254 137 305 94 q 191 257 202 181 l 66 257 q 113 114 71 175 q 223 18 154 52 q 381 -16 292 -16 q 507 7 448 -16 q 616 72 566 30 q 706 173 666 114 q 773 303 745 231 q 816 456 801 375 q 831 626 831 538 q 792 823 831 740 q 681 950 753 905 q 509 995 609 995 q 316 947 399 995 q 187 815 233 899 q 141 628 141 732 z "}," ":{"ha":0,"x_min":0,"x_max":0,"o":""}," ":{"ha":334,"x_min":0,"x_max":0,"o":""},"A":{"ha":876,"x_min":-58,"x_max":783,"o":"m 542 830 l 545 830 l 612 384 l 292 384 l 542 830 m 667 0 l 783 0 l 631 979 l 509 979 l -58 0 l 76 0 l 235 280 l 627 280 l 667 0 z "},"À":{"ha":876,"x_min":-58,"x_max":783,"o":"m 542 830 l 545 830 l 612 384 l 292 384 l 542 830 m 667 0 l 783 0 l 631 979 l 509 979 l -58 0 l 76 0 l 235 280 l 627 280 l 667 0 m 536 1058 l 630 1058 l 574 1254 l 443 1254 l 536 1058 z "},"Á":{"ha":876,"x_min":-58,"x_max":808,"o":"m 542 830 l 545 830 l 612 384 l 292 384 l 542 830 m 667 0 l 783 0 l 631 979 l 509 979 l -58 0 l 76 0 l 235 280 l 627 280 l 667 0 m 631 1058 l 808 1254 l 677 1254 l 537 1058 l 631 1058 z "},"Ä":{"ha":876,"x_min":-58,"x_max":807,"o":"m 542 830 l 545 830 l 612 384 l 292 384 l 542 830 m 667 0 l 783 0 l 631 979 l 509 979 l -58 0 l 76 0 l 235 280 l 627 280 l 667 0 m 479 1090 q 532 1112 511 1090 q 553 1164 553 1134 q 532 1217 553 1196 q 479 1238 511 1238 q 427 1217 449 1238 q 406 1164 406 1196 q 427 1112 406 1134 q 479 1090 449 1090 m 733 1090 q 786 1112 764 1090 q 807 1164 807 1134 q 786 1217 807 1196 q 733 1238 764 1238 q 681 1217 703 1238 q 659 1164 659 1196 q 681 1112 659 1134 q 733 1090 703 1090 z "},"Ǟ":{"ha":876,"x_min":-58,"x_max":866,"o":"m 542 830 l 545 830 l 612 384 l 292 384 l 542 830 m 667 0 l 783 0 l 631 979 l 509 979 l -58 0 l 76 0 l 235 280 l 627 280 l 667 0 m 479 1198 q 429 1177 450 1198 q 408 1126 408 1156 q 429 1075 408 1096 q 479 1054 450 1054 q 529 1075 508 1054 q 549 1126 549 1096 q 529 1177 549 1156 q 479 1198 508 1198 m 866 1373 l 436 1373 l 419 1295 l 849 1295 l 866 1373 m 719 1198 q 669 1177 690 1198 q 648 1126 648 1156 q 669 1075 648 1096 q 719 1054 690 1054 q 769 1075 749 1054 q 790 1126 790 1096 q 769 1177 790 1156 q 719 1198 749 1198 z "},"Å":{"ha":876,"x_min":-58,"x_max":783,"o":"m 542 830 l 545 830 l 612 384 l 292 384 l 542 830 m 667 0 l 783 0 l 631 979 l 509 979 l -58 0 l 76 0 l 235 280 l 627 280 l 667 0 m 604 1028 q 669 1046 640 1028 q 716 1093 699 1063 q 734 1158 734 1122 q 716 1223 734 1194 q 669 1270 699 1252 q 604 1287 640 1287 q 539 1270 569 1287 q 492 1223 510 1252 q 475 1158 475 1194 q 492 1093 475 1122 q 539 1046 510 1063 q 604 1028 569 1028 m 604 1088 q 555 1108 575 1088 q 534 1158 534 1128 q 555 1207 534 1187 q 604 1227 575 1227 q 654 1207 633 1227 q 674 1158 674 1187 q 654 1108 674 1128 q 604 1088 633 1088 z "},"Ǻ":{"ha":876,"x_min":-58,"x_max":805,"o":"m 542 830 l 545 830 l 612 384 l 292 384 l 542 830 m 667 0 l 783 0 l 631 979 l 509 979 l -58 0 l 76 0 l 235 280 l 627 280 l 667 0 m 598 1022 q 690 1058 654 1022 q 728 1151 727 1094 q 692 1237 728 1206 q 604 1267 655 1267 q 512 1232 549 1267 q 475 1139 475 1196 q 511 1053 475 1084 q 598 1022 548 1022 m 598 1080 q 553 1097 571 1080 q 536 1141 536 1113 q 555 1191 536 1173 q 604 1209 574 1209 q 649 1193 631 1209 q 667 1149 666 1177 q 648 1099 667 1117 q 598 1080 629 1080 m 694 1425 l 593 1309 l 692 1309 l 805 1425 l 694 1425 z "},"Ã":{"ha":876,"x_min":-58,"x_max":829,"o":"m 542 830 l 545 830 l 612 384 l 292 384 l 542 830 m 667 0 l 783 0 l 631 979 l 509 979 l -58 0 l 76 0 l 235 280 l 627 280 l 667 0 m 389 1099 l 477 1099 q 496 1150 484 1133 q 530 1167 509 1167 q 562 1153 548 1167 q 591 1121 576 1139 q 628 1088 606 1102 q 686 1074 650 1074 q 784 1118 749 1074 q 829 1225 819 1162 l 743 1225 q 722 1174 734 1192 q 690 1156 709 1156 q 657 1170 671 1156 q 628 1202 644 1183 q 590 1235 613 1221 q 532 1249 568 1249 q 461 1229 490 1249 q 414 1175 432 1208 q 389 1099 396 1141 z "},"Ằ":{"ha":876,"x_min":-58,"x_max":830,"o":"m 542 830 l 545 830 l 612 384 l 292 384 l 542 830 m 667 0 l 783 0 l 631 979 l 509 979 l -58 0 l 76 0 l 235 280 l 627 280 l 667 0 m 674 1241 l 591 1388 l 484 1388 l 583 1241 l 674 1241 m 596 1046 q 754 1098 693 1046 q 830 1234 816 1149 l 745 1234 q 693 1151 732 1179 q 601 1122 654 1122 q 509 1155 538 1122 q 480 1234 480 1189 l 398 1234 q 404 1171 395 1204 q 436 1109 413 1138 q 499 1063 459 1081 q 596 1046 538 1046 z "},"Ǡ":{"ha":876,"x_min":-58,"x_max":866,"o":"m 542 830 l 545 830 l 612 384 l 292 384 l 542 830 m 667 0 l 783 0 l 631 979 l 509 979 l -58 0 l 76 0 l 235 280 l 627 280 l 667 0 m 603 1069 q 660 1093 637 1069 q 684 1150 684 1117 q 660 1207 684 1184 q 603 1231 637 1231 q 546 1207 570 1231 q 522 1150 522 1184 q 546 1093 522 1117 q 603 1069 570 1069 m 866 1373 l 436 1373 l 418 1295 l 848 1295 l 866 1373 z "},"Ḁ":{"ha":876,"x_min":-58,"x_max":783,"o":"m 542 830 l 545 830 l 612 384 l 292 384 l 542 830 m 667 0 l 783 0 l 631 979 l 509 979 l -58 0 l 76 0 l 235 280 l 627 280 l 667 0 z "},"Â":{"ha":876,"x_min":-58,"x_max":814,"o":"m 542 830 l 545 830 l 612 384 l 292 384 l 542 830 m 667 0 l 783 0 l 631 979 l 509 979 l -58 0 l 76 0 l 235 280 l 627 280 l 667 0 m 664 1260 l 573 1260 l 358 1058 l 468 1058 l 609 1187 l 613 1187 l 707 1058 l 814 1058 l 664 1260 z "},"Ậ":{"ha":876,"x_min":-58,"x_max":814,"o":"m 542 830 l 545 830 l 612 384 l 292 384 l 542 830 m 667 0 l 783 0 l 631 979 l 509 979 l -58 0 l 76 0 l 235 280 l 627 280 l 667 0 m 664 1260 l 573 1260 l 358 1058 l 468 1058 l 609 1187 l 613 1187 l 707 1058 l 814 1058 l 664 1260 m 331 -241 q 384 -220 362 -241 q 405 -168 405 -198 q 384 -115 405 -136 q 331 -94 362 -94 q 279 -115 300 -94 q 257 -168 257 -136 q 279 -220 257 -198 q 331 -241 300 -241 z "},"Ấ":{"ha":876,"x_min":-58,"x_max":1000,"o":"m 542 830 l 545 830 l 612 384 l 292 384 l 542 830 m 667 0 l 783 0 l 631 979 l 509 979 l -58 0 l 76 0 l 235 280 l 627 280 l 667 0 m 563 1219 l 334 1044 l 460 1044 l 608 1158 l 612 1158 l 710 1044 l 820 1044 l 666 1219 l 563 1219 m 734 1241 l 839 1241 l 1000 1388 l 880 1388 l 734 1241 z "},"Ẫ":{"ha":876,"x_min":-58,"x_max":866,"o":"m 542 830 l 545 830 l 612 384 l 292 384 l 542 830 m 667 0 l 783 0 l 631 979 l 509 979 l -58 0 l 76 0 l 235 280 l 627 280 l 667 0 m 716 1243 q 813 1282 772 1243 q 866 1392 855 1320 l 787 1392 q 764 1336 781 1354 q 725 1318 747 1318 q 687 1331 704 1318 q 654 1360 671 1343 q 615 1390 637 1377 q 559 1402 593 1402 q 461 1365 502 1402 q 408 1255 420 1328 l 487 1255 q 509 1310 492 1291 q 550 1328 527 1328 q 587 1315 571 1328 q 621 1285 604 1302 q 660 1256 637 1269 q 716 1243 683 1243 m 562 1213 l 334 1044 l 460 1044 l 606 1153 l 610 1153 l 710 1044 l 820 1044 l 665 1213 l 562 1213 z "},"Ầ":{"ha":876,"x_min":-58,"x_max":861,"o":"m 542 830 l 545 830 l 612 384 l 292 384 l 542 830 m 667 0 l 783 0 l 631 979 l 509 979 l -58 0 l 76 0 l 235 280 l 627 280 l 667 0 m 563 1219 l 334 1044 l 460 1044 l 608 1158 l 612 1158 l 710 1044 l 820 1044 l 666 1219 l 563 1219 m 861 1241 l 778 1388 l 671 1388 l 770 1241 l 861 1241 z "},"Ẩ":{"ha":876,"x_min":-58,"x_max":885,"o":"m 542 830 l 545 830 l 612 384 l 292 384 l 542 830 m 667 0 l 783 0 l 631 979 l 509 979 l -58 0 l 76 0 l 235 280 l 627 280 l 667 0 m 563 1219 l 334 1044 l 460 1044 l 608 1158 l 612 1158 l 710 1044 l 820 1044 l 666 1219 l 563 1219 m 690 1324 q 716 1329 703 1328 q 743 1331 729 1331 q 787 1319 770 1331 q 803 1289 803 1308 q 783 1251 803 1266 q 732 1229 762 1235 l 774 1181 q 856 1226 827 1196 q 885 1298 885 1257 q 852 1367 885 1341 q 762 1392 819 1392 q 731 1390 747 1392 q 706 1384 714 1388 l 690 1324 z "},"Ă":{"ha":876,"x_min":-58,"x_max":833,"o":"m 542 830 l 545 830 l 612 384 l 292 384 l 542 830 m 667 0 l 783 0 l 631 979 l 509 979 l -58 0 l 76 0 l 235 280 l 627 280 l 667 0 m 596 1046 q 761 1103 698 1046 q 833 1252 824 1160 l 748 1252 q 699 1155 739 1189 q 601 1122 659 1122 q 504 1162 532 1122 q 481 1252 475 1202 l 401 1252 q 400 1186 394 1221 q 429 1119 407 1151 q 493 1066 452 1086 q 596 1046 534 1046 z "},"Ắ":{"ha":876,"x_min":-58,"x_max":830,"o":"m 542 830 l 545 830 l 612 384 l 292 384 l 542 830 m 667 0 l 783 0 l 631 979 l 509 979 l -58 0 l 76 0 l 235 280 l 627 280 l 667 0 m 554 1241 l 659 1241 l 820 1388 l 699 1388 l 554 1241 m 596 1046 q 754 1098 693 1046 q 830 1234 816 1149 l 745 1234 q 693 1151 732 1179 q 601 1122 654 1122 q 509 1155 538 1122 q 480 1234 480 1189 l 398 1234 q 404 1171 395 1204 q 436 1109 413 1138 q 499 1063 459 1081 q 596 1046 538 1046 z "},"Ẵ":{"ha":876,"x_min":-58,"x_max":871,"o":"m 542 830 l 545 830 l 612 384 l 292 384 l 542 830 m 667 0 l 783 0 l 631 979 l 509 979 l -58 0 l 76 0 l 235 280 l 627 280 l 667 0 m 722 1243 q 819 1282 777 1243 q 871 1392 861 1320 l 793 1392 q 769 1336 786 1354 q 730 1318 753 1318 q 693 1331 709 1318 q 659 1360 676 1343 q 620 1390 642 1377 q 565 1402 598 1402 q 466 1365 507 1402 q 414 1255 425 1328 l 492 1255 q 515 1310 497 1291 q 555 1328 532 1328 q 593 1315 576 1328 q 626 1285 609 1302 q 666 1256 643 1269 q 722 1243 688 1243 m 584 1046 q 698 1070 646 1046 q 788 1137 751 1095 q 842 1235 826 1180 l 749 1235 q 689 1152 732 1183 q 593 1121 646 1121 q 514 1148 543 1121 q 485 1220 485 1175 q 485 1227 485 1223 q 486 1235 485 1231 l 406 1235 q 405 1220 406 1227 q 404 1205 404 1213 q 426 1122 404 1158 q 488 1066 448 1086 q 584 1046 528 1046 z "},"Ẳ":{"ha":876,"x_min":-58,"x_max":842,"o":"m 542 830 l 545 830 l 612 384 l 292 384 l 542 830 m 667 0 l 783 0 l 631 979 l 509 979 l -58 0 l 76 0 l 235 280 l 627 280 l 667 0 m 509 1367 q 537 1371 523 1370 q 568 1373 551 1373 q 617 1361 600 1373 q 634 1327 634 1349 q 612 1284 634 1302 q 554 1261 589 1267 l 603 1208 q 690 1258 659 1224 q 721 1337 721 1293 q 684 1413 721 1384 q 587 1441 648 1441 q 554 1439 572 1441 q 526 1433 535 1436 l 509 1367 m 584 1046 q 698 1070 646 1046 q 788 1137 751 1095 q 842 1235 826 1180 l 749 1235 q 689 1152 732 1183 q 593 1121 646 1121 q 514 1148 543 1121 q 485 1220 485 1175 q 485 1227 485 1223 q 486 1235 485 1231 l 406 1235 q 405 1220 406 1227 q 404 1205 404 1213 q 426 1122 404 1158 q 488 1066 448 1086 q 584 1046 528 1046 z "},"Ặ":{"ha":876,"x_min":-58,"x_max":833,"o":"m 542 830 l 545 830 l 612 384 l 292 384 l 542 830 m 667 0 l 783 0 l 631 979 l 509 979 l -58 0 l 76 0 l 235 280 l 627 280 l 667 0 m 596 1046 q 761 1103 698 1046 q 833 1252 824 1160 l 748 1252 q 699 1155 739 1189 q 601 1122 659 1122 q 504 1162 532 1122 q 481 1252 475 1202 l 401 1252 q 400 1186 394 1221 q 429 1119 407 1151 q 493 1066 452 1086 q 596 1046 534 1046 m 331 -241 q 384 -220 362 -241 q 405 -168 405 -198 q 384 -115 405 -136 q 331 -94 362 -94 q 279 -115 300 -94 q 257 -168 257 -136 q 279 -220 257 -198 q 331 -241 300 -241 z "},"Ȃ":{"ha":876,"x_min":-58,"x_max":798,"o":"m 542 830 l 545 830 l 612 384 l 292 384 l 542 830 m 667 0 l 783 0 l 631 979 l 509 979 l -58 0 l 76 0 l 235 280 l 627 280 l 667 0 m 595 1252 q 431 1195 494 1252 q 359 1046 368 1137 l 444 1046 q 493 1142 452 1109 q 591 1176 533 1176 q 688 1136 660 1176 q 710 1046 716 1096 l 791 1046 q 791 1112 798 1076 q 762 1179 785 1147 q 699 1232 740 1211 q 595 1252 658 1252 z "},"Ǎ":{"ha":876,"x_min":-58,"x_max":857,"o":"m 542 830 l 545 830 l 612 384 l 292 384 l 542 830 m 667 0 l 783 0 l 631 979 l 509 979 l -58 0 l 76 0 l 235 280 l 627 280 l 667 0 m 551 1058 l 642 1058 l 857 1260 l 747 1260 l 606 1131 l 602 1131 l 508 1260 l 401 1260 l 551 1058 z "},"Ȧ":{"ha":876,"x_min":-58,"x_max":783,"o":"m 542 830 l 545 830 l 612 384 l 292 384 l 542 830 m 667 0 l 783 0 l 631 979 l 509 979 l -58 0 l 76 0 l 235 280 l 627 280 l 667 0 m 606 1090 q 659 1112 637 1090 q 680 1164 680 1134 q 659 1217 680 1196 q 606 1238 637 1238 q 554 1217 576 1238 q 532 1164 532 1196 q 554 1112 532 1134 q 606 1090 576 1090 z "},"Ạ":{"ha":876,"x_min":-58,"x_max":783,"o":"m 542 830 l 545 830 l 612 384 l 292 384 l 542 830 m 667 0 l 783 0 l 631 979 l 509 979 l -58 0 l 76 0 l 235 280 l 627 280 l 667 0 m 331 -241 q 384 -220 362 -241 q 405 -168 405 -198 q 384 -115 405 -136 q 331 -94 362 -94 q 279 -115 300 -94 q 257 -168 257 -136 q 279 -220 257 -198 q 331 -241 300 -241 z "},"Ả":{"ha":876,"x_min":-58,"x_max":783,"o":"m 542 830 l 545 830 l 612 384 l 292 384 l 542 830 m 667 0 l 783 0 l 631 979 l 509 979 l -58 0 l 76 0 l 235 280 l 627 280 l 667 0 m 489 1183 q 521 1195 503 1191 q 557 1199 540 1199 q 592 1187 578 1199 q 607 1160 607 1175 q 588 1115 607 1135 q 530 1082 568 1095 l 558 1027 q 656 1083 619 1043 q 693 1175 693 1123 q 679 1223 693 1202 q 639 1256 664 1244 q 583 1268 614 1268 q 537 1263 559 1268 q 501 1251 515 1259 l 489 1183 z "},"Ȁ":{"ha":876,"x_min":-58,"x_max":783,"o":"m 542 830 l 545 830 l 612 384 l 292 384 l 542 830 m 667 0 l 783 0 l 631 979 l 509 979 l -58 0 l 76 0 l 235 280 l 627 280 l 667 0 m 642 1058 l 730 1058 l 720 1254 l 601 1254 l 642 1058 m 433 1058 l 528 1058 l 480 1254 l 350 1254 l 433 1058 z "},"Ā":{"ha":876,"x_min":-58,"x_max":808,"o":"m 542 830 l 545 830 l 612 384 l 292 384 l 542 830 m 667 0 l 783 0 l 631 979 l 509 979 l -58 0 l 76 0 l 235 280 l 627 280 l 667 0 m 808 1199 l 418 1199 l 401 1117 l 791 1117 l 808 1199 z "},"Ą":{"ha":876,"x_min":-58,"x_max":781,"o":"m 730 -195 q 708 -202 720 -200 q 681 -204 695 -204 q 633 -191 650 -204 q 616 -155 616 -178 q 633 -109 616 -134 q 683 -55 650 -83 q 766 2 716 -27 l 781 11 l 629 979 l 507 979 l -58 0 l 76 0 l 233 280 l 625 280 l 667 3 q 581 -60 615 -28 q 528 -124 546 -92 q 511 -189 511 -157 q 546 -262 511 -234 q 638 -290 581 -290 q 683 -286 662 -290 q 713 -275 705 -281 l 730 -195 m 540 830 l 543 830 l 610 384 l 290 384 l 540 830 z "},"B":{"ha":882,"x_min":20,"x_max":843,"o":"m 427 0 q 621 40 538 0 q 751 150 705 80 q 798 311 798 220 q 754 438 798 383 q 630 507 711 494 l 631 509 q 740 563 692 526 q 815 650 788 599 q 843 763 843 701 q 809 877 843 829 q 714 952 774 925 q 574 979 653 979 l 228 979 l 20 0 l 427 0 m 330 871 l 528 871 q 668 838 619 871 q 716 738 716 805 q 684 644 716 684 q 596 580 652 603 q 465 557 539 557 l 263 557 l 330 871 m 168 108 l 241 452 l 467 452 q 578 435 534 452 q 646 384 623 418 q 668 300 668 351 q 637 202 668 245 q 550 133 606 159 q 422 108 495 108 l 168 108 z "},"Ḇ":{"ha":882,"x_min":20,"x_max":843,"o":"m 427 0 q 621 40 538 0 q 751 150 705 80 q 798 311 798 220 q 754 438 798 383 q 630 507 711 494 l 631 509 q 740 563 692 526 q 815 650 788 599 q 843 763 843 701 q 809 877 843 829 q 714 952 774 925 q 574 979 653 979 l 228 979 l 20 0 l 427 0 m 330 871 l 528 871 q 668 838 619 871 q 716 738 716 805 q 684 644 716 684 q 596 580 652 603 q 465 557 539 557 l 263 557 l 330 871 m 168 108 l 241 452 l 467 452 q 578 435 534 452 q 646 384 623 418 q 668 300 668 351 q 637 202 668 245 q 550 133 606 159 q 422 108 495 108 l 168 108 m 520 -127 l 130 -127 l 113 -209 l 503 -209 l 520 -127 z "},"Ḅ":{"ha":882,"x_min":20,"x_max":843,"o":"m 427 0 q 621 40 538 0 q 751 150 705 80 q 798 311 798 220 q 754 438 798 383 q 630 507 711 494 l 631 509 q 740 563 692 526 q 815 650 788 599 q 843 763 843 701 q 809 877 843 829 q 714 952 774 925 q 574 979 653 979 l 228 979 l 20 0 l 427 0 m 330 871 l 528 871 q 668 838 619 871 q 716 738 716 805 q 684 644 716 684 q 596 580 652 603 q 465 557 539 557 l 263 557 l 330 871 m 168 108 l 241 452 l 467 452 q 578 435 534 452 q 646 384 623 418 q 668 300 668 351 q 637 202 668 245 q 550 133 606 159 q 422 108 495 108 l 168 108 m 317 -241 q 369 -220 348 -241 q 391 -168 391 -198 q 369 -115 391 -136 q 317 -94 348 -94 q 264 -115 286 -94 q 243 -168 243 -136 q 264 -220 243 -198 q 317 -241 286 -241 z "},"Ḃ":{"ha":882,"x_min":20,"x_max":843,"o":"m 427 0 q 621 40 538 0 q 751 150 705 80 q 798 311 798 220 q 754 438 798 383 q 630 507 711 494 l 631 509 q 740 563 692 526 q 815 650 788 599 q 843 763 843 701 q 809 877 843 829 q 714 952 774 925 q 574 979 653 979 l 228 979 l 20 0 l 427 0 m 330 871 l 528 871 q 668 838 619 871 q 716 738 716 805 q 684 644 716 684 q 596 580 652 603 q 465 557 539 557 l 263 557 l 330 871 m 168 108 l 241 452 l 467 452 q 578 435 534 452 q 646 384 623 418 q 668 300 668 351 q 637 202 668 245 q 550 133 606 159 q 422 108 495 108 l 168 108 m 553 1090 q 605 1112 584 1090 q 627 1164 627 1134 q 605 1217 627 1196 q 553 1238 584 1238 q 500 1217 522 1238 q 479 1164 479 1196 q 500 1112 479 1134 q 553 1090 522 1090 z "},"C":{"ha":951,"x_min":86,"x_max":965,"o":"m 842 663 l 965 663 q 965 671 965 667 q 964 682 965 674 q 909 848 958 778 q 777 956 859 918 q 588 994 694 994 q 387 950 479 994 q 228 827 295 906 q 123 641 160 747 q 86 410 86 534 q 135 184 86 280 q 275 37 184 89 q 488 -16 366 -16 q 669 21 586 -16 q 811 126 751 58 q 897 285 870 193 l 773 285 q 708 183 750 226 q 611 119 667 141 q 490 96 555 96 q 341 135 404 96 q 245 244 279 173 q 212 414 212 315 q 239 601 212 515 q 316 750 266 686 q 434 848 366 813 q 587 882 503 882 q 710 858 655 882 q 799 789 765 834 q 840 680 833 743 q 841 671 841 675 q 842 663 842 667 z "},"Ć":{"ha":951,"x_min":86,"x_max":965,"o":"m 842 663 l 965 663 q 965 671 965 667 q 964 682 965 674 q 909 848 958 778 q 777 956 859 918 q 588 994 694 994 q 387 950 479 994 q 228 827 295 906 q 123 641 160 747 q 86 410 86 534 q 135 184 86 280 q 275 37 184 89 q 488 -16 366 -16 q 669 21 586 -16 q 811 126 751 58 q 897 285 870 193 l 773 285 q 708 183 750 226 q 611 119 667 141 q 490 96 555 96 q 341 135 404 96 q 245 244 279 173 q 212 414 212 315 q 239 601 212 515 q 316 750 266 686 q 434 848 366 813 q 587 882 503 882 q 710 858 655 882 q 799 789 765 834 q 840 680 833 743 q 841 671 841 675 q 842 663 842 667 m 652 1059 l 828 1255 l 697 1255 l 557 1059 l 652 1059 z "},"Č":{"ha":951,"x_min":86,"x_max":965,"o":"m 842 663 l 965 663 q 965 671 965 667 q 964 682 965 674 q 909 848 958 778 q 777 956 859 918 q 588 994 694 994 q 387 950 479 994 q 228 827 295 906 q 123 641 160 747 q 86 410 86 534 q 135 184 86 280 q 275 37 184 89 q 488 -16 366 -16 q 669 21 586 -16 q 811 126 751 58 q 897 285 870 193 l 773 285 q 708 183 750 226 q 611 119 667 141 q 490 96 555 96 q 341 135 404 96 q 245 244 279 173 q 212 414 212 315 q 239 601 212 515 q 316 750 266 686 q 434 848 366 813 q 587 882 503 882 q 710 858 655 882 q 799 789 765 834 q 840 680 833 743 q 841 671 841 675 q 842 663 842 667 m 571 1059 l 662 1059 l 877 1261 l 767 1261 l 626 1133 l 622 1133 l 528 1261 l 421 1261 l 571 1059 z "},"Ĉ":{"ha":951,"x_min":86,"x_max":965,"o":"m 842 663 l 965 663 q 965 671 965 667 q 964 682 965 674 q 909 848 958 778 q 777 956 859 918 q 588 994 694 994 q 387 950 479 994 q 228 827 295 906 q 123 641 160 747 q 86 410 86 534 q 135 184 86 280 q 275 37 184 89 q 488 -16 366 -16 q 669 21 586 -16 q 811 126 751 58 q 897 285 870 193 l 773 285 q 708 183 750 226 q 611 119 667 141 q 490 96 555 96 q 341 135 404 96 q 245 244 279 173 q 212 414 212 315 q 239 601 212 515 q 316 750 266 686 q 434 848 366 813 q 587 882 503 882 q 710 858 655 882 q 799 789 765 834 q 840 680 833 743 q 841 671 841 675 q 842 663 842 667 m 684 1261 l 593 1261 l 378 1059 l 488 1059 l 629 1188 l 633 1188 l 727 1059 l 834 1059 l 684 1261 z "},"Ċ":{"ha":951,"x_min":86,"x_max":965,"o":"m 842 663 l 965 663 q 965 671 965 667 q 964 682 965 674 q 909 848 958 778 q 777 956 859 918 q 588 994 694 994 q 387 950 479 994 q 228 827 295 906 q 123 641 160 747 q 86 410 86 534 q 135 184 86 280 q 275 37 184 89 q 488 -16 366 -16 q 669 21 586 -16 q 811 126 751 58 q 897 285 870 193 l 773 285 q 708 183 750 226 q 611 119 667 141 q 490 96 555 96 q 341 135 404 96 q 245 244 279 173 q 212 414 212 315 q 239 601 212 515 q 316 750 266 686 q 434 848 366 813 q 587 882 503 882 q 710 858 655 882 q 799 789 765 834 q 840 680 833 743 q 841 671 841 675 q 842 663 842 667 m 627 1092 q 679 1114 658 1092 q 701 1166 701 1135 q 679 1218 701 1197 q 627 1240 658 1240 q 574 1218 596 1240 q 553 1166 553 1197 q 574 1114 553 1135 q 627 1092 596 1092 z "},"Ç":{"ha":951,"x_min":86,"x_max":965,"o":"m 842 663 l 965 663 q 965 671 965 667 q 964 682 965 674 q 909 848 958 778 q 777 956 859 918 q 588 994 694 994 q 387 950 479 994 q 228 827 295 906 q 123 641 160 747 q 86 410 86 534 q 135 184 86 280 q 275 37 184 89 q 488 -16 366 -16 q 669 21 586 -16 q 811 126 751 58 q 897 285 870 193 l 773 285 q 708 183 750 226 q 611 119 667 141 q 490 96 555 96 q 341 135 404 96 q 245 244 279 173 q 212 414 212 315 q 239 601 212 515 q 316 750 266 686 q 434 848 366 813 q 587 882 503 882 q 710 858 655 882 q 799 789 765 834 q 840 680 833 743 q 841 671 841 675 q 842 663 842 667 m 319 -296 q 368 -307 342 -303 q 420 -311 393 -311 q 542 -283 490 -311 q 593 -192 593 -255 q 556 -112 593 -138 q 475 -86 520 -86 l 530 0 l 530 15 l 444 15 l 375 -94 l 363 -152 l 403 -152 q 465 -162 442 -152 q 488 -195 488 -172 q 463 -225 488 -217 q 409 -233 437 -233 q 367 -230 385 -233 q 336 -222 349 -227 l 319 -296 z "},"Ḉ":{"ha":951,"x_min":86,"x_max":965,"o":"m 842 663 l 965 663 q 965 671 965 667 q 964 682 965 674 q 909 848 958 778 q 777 956 859 918 q 588 994 694 994 q 387 950 479 994 q 228 827 295 906 q 123 641 160 747 q 86 410 86 534 q 135 184 86 280 q 275 37 184 89 q 488 -16 366 -16 q 669 21 586 -16 q 811 126 751 58 q 897 285 870 193 l 773 285 q 708 183 750 226 q 611 119 667 141 q 490 96 555 96 q 341 135 404 96 q 245 244 279 173 q 212 414 212 315 q 239 601 212 515 q 316 750 266 686 q 434 848 366 813 q 587 882 503 882 q 710 858 655 882 q 799 789 765 834 q 840 680 833 743 q 841 671 841 675 q 842 663 842 667 m 319 -296 q 368 -307 342 -303 q 420 -311 393 -311 q 542 -283 490 -311 q 593 -192 593 -255 q 556 -112 593 -138 q 475 -86 520 -86 l 530 0 l 530 15 l 444 15 l 375 -94 l 363 -152 l 403 -152 q 465 -162 442 -152 q 488 -195 488 -172 q 463 -225 488 -217 q 409 -233 437 -233 q 367 -230 385 -233 q 336 -222 349 -227 l 319 -296 m 652 1059 l 828 1255 l 697 1255 l 557 1059 l 652 1059 z "},"D":{"ha":958,"x_min":21,"x_max":928,"o":"m 228 979 l 21 0 l 401 0 q 615 42 518 0 q 781 161 711 84 q 889 345 851 239 q 928 580 928 451 q 878 794 928 705 q 736 931 829 884 q 513 979 643 979 l 228 979 m 330 870 l 492 870 q 663 836 594 870 q 767 734 732 802 q 802 565 802 666 q 771 382 802 465 q 686 237 741 298 q 556 142 631 176 q 391 109 481 109 l 168 109 l 330 870 z "},"Ḋ":{"ha":958,"x_min":21,"x_max":928,"o":"m 228 979 l 21 0 l 401 0 q 615 42 518 0 q 781 161 711 84 q 889 345 851 239 q 928 580 928 451 q 878 794 928 705 q 736 931 829 884 q 513 979 643 979 l 228 979 m 330 870 l 492 870 q 663 836 594 870 q 767 734 732 802 q 802 565 802 666 q 771 382 802 465 q 686 237 741 298 q 556 142 631 176 q 391 109 481 109 l 168 109 l 330 870 m 545 1090 q 598 1112 576 1090 q 619 1164 619 1134 q 598 1217 619 1196 q 545 1238 576 1238 q 493 1217 515 1238 q 471 1164 471 1196 q 493 1112 471 1134 q 545 1090 515 1090 z "},"Ḓ":{"ha":958,"x_min":21,"x_max":928,"o":"m 228 979 l 21 0 l 401 0 q 615 42 518 0 q 781 161 711 84 q 889 345 851 239 q 928 580 928 451 q 878 794 928 705 q 736 931 829 884 q 513 979 643 979 l 228 979 m 330 870 l 492 870 q 663 836 594 870 q 767 734 732 802 q 802 565 802 666 q 771 382 802 465 q 686 237 741 298 q 556 142 631 176 q 391 109 481 109 l 168 109 l 330 870 m 372 -86 l 281 -86 l 66 -288 l 176 -288 l 317 -159 l 321 -159 l 414 -288 l 522 -288 l 372 -86 z "},"Ḑ":{"ha":958,"x_min":21,"x_max":928,"o":"m 228 979 l 21 0 l 401 0 q 615 42 518 0 q 781 161 711 84 q 889 345 851 239 q 928 580 928 451 q 878 794 928 705 q 736 931 829 884 q 513 979 643 979 l 228 979 m 330 870 l 492 870 q 663 836 594 870 q 767 734 732 802 q 802 565 802 666 q 771 382 802 465 q 686 237 741 298 q 556 142 631 176 q 391 109 481 109 l 168 109 l 330 870 m 274 -330 l 391 -86 l 288 -86 l 184 -330 l 274 -330 z "},"Ḏ":{"ha":958,"x_min":21,"x_max":928,"o":"m 228 979 l 21 0 l 401 0 q 615 42 518 0 q 781 161 711 84 q 889 345 851 239 q 928 580 928 451 q 878 794 928 705 q 736 931 829 884 q 513 979 643 979 l 228 979 m 330 870 l 492 870 q 663 836 594 870 q 767 734 732 802 q 802 565 802 666 q 771 382 802 465 q 686 237 741 298 q 556 142 631 176 q 391 109 481 109 l 168 109 l 330 870 m 521 -127 l 131 -127 l 113 -209 l 503 -209 l 521 -127 z "},"Ď":{"ha":958,"x_min":21,"x_max":928,"o":"m 228 979 l 21 0 l 401 0 q 615 42 518 0 q 781 161 711 84 q 889 345 851 239 q 928 580 928 451 q 878 794 928 705 q 736 931 829 884 q 513 979 643 979 l 228 979 m 330 870 l 492 870 q 663 836 594 870 q 767 734 732 802 q 802 565 802 666 q 771 382 802 465 q 686 237 741 298 q 556 142 631 176 q 391 109 481 109 l 168 109 l 330 870 m 490 1058 l 581 1058 l 795 1260 l 686 1260 l 545 1131 l 541 1131 l 447 1260 l 340 1260 l 490 1058 z "},"Ḍ":{"ha":958,"x_min":21,"x_max":928,"o":"m 228 979 l 21 0 l 401 0 q 615 42 518 0 q 781 161 711 84 q 889 345 851 239 q 928 580 928 451 q 878 794 928 705 q 736 931 829 884 q 513 979 643 979 l 228 979 m 330 870 l 492 870 q 663 836 594 870 q 767 734 732 802 q 802 565 802 666 q 771 382 802 465 q 686 237 741 298 q 556 142 631 176 q 391 109 481 109 l 168 109 l 330 870 m 317 -241 q 370 -220 349 -241 q 391 -168 391 -198 q 370 -115 391 -136 q 317 -94 349 -94 q 265 -115 287 -94 q 243 -168 243 -136 q 265 -220 243 -198 q 317 -241 287 -241 z "},"Đ":{"ha":958,"x_min":21,"x_max":928,"o":"m 24 450 l 465 450 l 489 559 l 47 559 l 24 450 m 228 979 l 21 0 l 401 0 q 615 42 518 0 q 781 161 711 84 q 889 345 851 239 q 928 580 928 451 q 878 794 928 705 q 736 931 829 884 q 513 979 643 979 l 228 979 m 330 870 l 492 870 q 663 836 594 870 q 767 734 732 802 q 802 565 802 666 q 771 382 802 465 q 686 237 741 298 q 556 142 631 176 q 391 109 481 109 l 168 109 l 330 870 z "},"E":{"ha":769,"x_min":20,"x_max":836,"o":"m 650 110 l 168 110 l 239 446 l 696 446 l 720 555 l 262 555 l 330 869 l 812 869 l 836 979 l 228 979 l 20 0 l 627 0 l 650 110 z "},"È":{"ha":769,"x_min":20,"x_max":836,"o":"m 650 110 l 168 110 l 239 446 l 696 446 l 720 555 l 262 555 l 330 869 l 812 869 l 836 979 l 228 979 l 20 0 l 627 0 l 650 110 m 500 1058 l 595 1058 l 538 1254 l 408 1254 l 500 1058 z "},"Ȅ":{"ha":769,"x_min":20,"x_max":836,"o":"m 650 110 l 168 110 l 239 446 l 696 446 l 720 555 l 262 555 l 330 869 l 812 869 l 836 979 l 228 979 l 20 0 l 627 0 l 650 110 m 607 1058 l 694 1058 l 685 1254 l 566 1254 l 607 1058 m 398 1058 l 492 1058 l 445 1254 l 315 1254 l 398 1058 z "},"É":{"ha":769,"x_min":20,"x_max":836,"o":"m 650 110 l 168 110 l 239 446 l 696 446 l 720 555 l 262 555 l 330 869 l 812 869 l 836 979 l 228 979 l 20 0 l 627 0 l 650 110 m 596 1058 l 772 1254 l 642 1254 l 502 1058 l 596 1058 z "},"Ê":{"ha":769,"x_min":20,"x_max":836,"o":"m 650 110 l 168 110 l 239 446 l 696 446 l 720 555 l 262 555 l 330 869 l 812 869 l 836 979 l 228 979 l 20 0 l 627 0 l 650 110 m 629 1260 l 538 1260 l 323 1058 l 433 1058 l 574 1187 l 578 1187 l 671 1058 l 779 1058 l 629 1260 z "},"Ể":{"ha":769,"x_min":20,"x_max":850,"o":"m 650 110 l 168 110 l 239 446 l 696 446 l 720 555 l 262 555 l 330 869 l 812 869 l 836 979 l 228 979 l 20 0 l 627 0 l 650 110 m 528 1219 l 299 1044 l 425 1044 l 572 1158 l 576 1158 l 675 1044 l 785 1044 l 631 1219 l 528 1219 m 655 1324 q 681 1329 668 1328 q 707 1331 694 1331 q 751 1319 735 1331 q 768 1289 768 1308 q 747 1251 768 1266 q 697 1229 727 1235 l 739 1181 q 821 1226 791 1196 q 850 1298 850 1257 q 817 1367 850 1341 q 726 1392 783 1392 q 695 1390 712 1392 q 671 1384 679 1388 l 655 1324 z "},"Ề":{"ha":769,"x_min":20,"x_max":836,"o":"m 650 110 l 168 110 l 239 446 l 696 446 l 720 555 l 262 555 l 330 869 l 812 869 l 836 979 l 228 979 l 20 0 l 627 0 l 650 110 m 528 1219 l 299 1044 l 425 1044 l 572 1158 l 576 1158 l 675 1044 l 785 1044 l 631 1219 l 528 1219 m 825 1241 l 743 1388 l 635 1388 l 734 1241 l 825 1241 z "},"Ễ":{"ha":769,"x_min":20,"x_max":836,"o":"m 650 110 l 168 110 l 239 446 l 696 446 l 720 555 l 262 555 l 330 869 l 812 869 l 836 979 l 228 979 l 20 0 l 627 0 l 650 110 m 681 1243 q 778 1282 736 1243 q 831 1392 820 1320 l 752 1392 q 729 1336 745 1354 q 690 1318 712 1318 q 652 1331 669 1318 q 618 1360 635 1343 q 579 1390 602 1377 q 524 1402 557 1402 q 426 1365 467 1402 q 373 1255 385 1328 l 452 1255 q 474 1310 456 1291 q 515 1328 492 1328 q 552 1315 536 1328 q 585 1285 568 1302 q 625 1256 602 1269 q 681 1243 648 1243 m 526 1213 l 299 1044 l 425 1044 l 571 1153 l 575 1153 l 675 1044 l 785 1044 l 629 1213 l 526 1213 z "},"Ệ":{"ha":769,"x_min":20,"x_max":836,"o":"m 650 110 l 168 110 l 239 446 l 696 446 l 720 555 l 262 555 l 330 869 l 812 869 l 836 979 l 228 979 l 20 0 l 627 0 l 650 110 m 629 1260 l 538 1260 l 323 1058 l 433 1058 l 574 1187 l 578 1187 l 671 1058 l 779 1058 l 629 1260 m 303 -241 q 356 -220 334 -241 q 377 -168 377 -198 q 356 -115 377 -136 q 303 -94 334 -94 q 251 -115 273 -94 q 229 -168 229 -136 q 251 -220 229 -198 q 303 -241 273 -241 z "},"Ế":{"ha":769,"x_min":20,"x_max":965,"o":"m 650 110 l 168 110 l 239 446 l 696 446 l 720 555 l 262 555 l 330 869 l 812 869 l 836 979 l 228 979 l 20 0 l 627 0 l 650 110 m 528 1219 l 299 1044 l 425 1044 l 572 1158 l 576 1158 l 675 1044 l 785 1044 l 631 1219 l 528 1219 m 699 1241 l 804 1241 l 965 1388 l 844 1388 l 699 1241 z "},"Ë":{"ha":769,"x_min":20,"x_max":836,"o":"m 650 110 l 168 110 l 239 446 l 696 446 l 720 555 l 262 555 l 330 869 l 812 869 l 836 979 l 228 979 l 20 0 l 627 0 l 650 110 m 444 1090 q 497 1112 475 1090 q 518 1164 518 1134 q 497 1217 518 1196 q 444 1238 475 1238 q 392 1217 414 1238 q 370 1164 370 1196 q 392 1112 370 1134 q 444 1090 414 1090 m 698 1090 q 750 1112 729 1090 q 772 1164 772 1134 q 750 1217 772 1196 q 698 1238 729 1238 q 646 1217 667 1238 q 624 1164 624 1196 q 646 1112 624 1134 q 698 1090 667 1090 z "},"Ẹ":{"ha":769,"x_min":20,"x_max":836,"o":"m 650 110 l 168 110 l 239 446 l 696 446 l 720 555 l 262 555 l 330 869 l 812 869 l 836 979 l 228 979 l 20 0 l 627 0 l 650 110 m 303 -241 q 356 -220 334 -241 q 377 -168 377 -198 q 356 -115 377 -136 q 303 -94 334 -94 q 251 -115 273 -94 q 229 -168 229 -136 q 251 -220 229 -198 q 303 -241 273 -241 z "},"Ȇ":{"ha":769,"x_min":20,"x_max":836,"o":"m 650 110 l 168 110 l 239 446 l 696 446 l 720 555 l 262 555 l 330 869 l 812 869 l 836 979 l 228 979 l 20 0 l 627 0 l 650 110 m 560 1252 q 396 1195 458 1252 q 323 1046 333 1137 l 408 1046 q 457 1142 417 1109 q 555 1176 498 1176 q 653 1136 625 1176 q 675 1046 681 1096 l 755 1046 q 756 1112 762 1076 q 727 1179 749 1147 q 664 1232 705 1211 q 560 1252 623 1252 z "},"Ẻ":{"ha":769,"x_min":20,"x_max":836,"o":"m 650 110 l 168 110 l 239 446 l 696 446 l 720 555 l 262 555 l 330 869 l 812 869 l 836 979 l 228 979 l 20 0 l 627 0 l 650 110 m 454 1183 q 486 1195 467 1191 q 522 1199 505 1199 q 557 1187 543 1199 q 572 1160 572 1175 q 552 1115 572 1135 q 495 1082 533 1095 l 523 1027 q 621 1083 584 1043 q 658 1175 658 1123 q 643 1223 658 1202 q 604 1256 629 1244 q 548 1268 579 1268 q 502 1263 524 1268 q 466 1251 480 1259 l 454 1183 z "},"Ě":{"ha":769,"x_min":20,"x_max":836,"o":"m 650 110 l 168 110 l 239 446 l 696 446 l 720 555 l 262 555 l 330 869 l 812 869 l 836 979 l 228 979 l 20 0 l 627 0 l 650 110 m 515 1058 l 606 1058 l 821 1260 l 711 1260 l 570 1131 l 566 1131 l 473 1260 l 366 1260 l 515 1058 z "},"Ē":{"ha":769,"x_min":20,"x_max":836,"o":"m 650 110 l 168 110 l 239 446 l 696 446 l 720 555 l 262 555 l 330 869 l 812 869 l 836 979 l 228 979 l 20 0 l 627 0 l 650 110 m 773 1199 l 383 1199 l 366 1117 l 755 1117 l 773 1199 z "},"Ḕ":{"ha":769,"x_min":20,"x_max":836,"o":"m 650 110 l 168 110 l 239 446 l 696 446 l 720 555 l 262 555 l 330 869 l 812 869 l 836 979 l 228 979 l 20 0 l 627 0 l 650 110 m 768 1080 l 785 1158 l 355 1158 l 338 1080 l 768 1080 m 631 1241 l 549 1388 l 441 1388 l 541 1241 l 631 1241 z "},"Ḗ":{"ha":769,"x_min":20,"x_max":836,"o":"m 650 110 l 168 110 l 239 446 l 696 446 l 720 555 l 262 555 l 330 869 l 812 869 l 836 979 l 228 979 l 20 0 l 627 0 l 650 110 m 768 1080 l 785 1158 l 355 1158 l 338 1080 l 768 1080 m 541 1241 l 645 1241 l 806 1388 l 686 1388 l 541 1241 z "},"Ẽ":{"ha":769,"x_min":20,"x_max":836,"o":"m 650 110 l 168 110 l 239 446 l 696 446 l 720 555 l 262 555 l 330 869 l 812 869 l 836 979 l 228 979 l 20 0 l 627 0 l 650 110 m 354 1099 l 441 1099 q 461 1150 449 1133 q 494 1167 473 1167 q 527 1153 513 1167 q 555 1121 541 1139 q 593 1088 570 1102 q 651 1074 615 1074 q 749 1118 714 1074 q 794 1225 784 1162 l 707 1225 q 687 1174 699 1192 q 654 1156 674 1156 q 622 1170 636 1156 q 593 1202 608 1183 q 555 1235 578 1221 q 496 1249 532 1249 q 426 1229 455 1249 q 379 1175 397 1208 q 354 1099 361 1141 z "},"Ḙ":{"ha":769,"x_min":20,"x_max":836,"o":"m 650 110 l 168 110 l 239 446 l 696 446 l 720 555 l 262 555 l 330 869 l 812 869 l 836 979 l 228 979 l 20 0 l 627 0 l 650 110 m 357 -86 l 267 -86 l 65 -290 l 175 -290 l 302 -161 l 307 -161 l 387 -290 l 494 -290 l 357 -86 z "},"Ĕ":{"ha":769,"x_min":20,"x_max":836,"o":"m 650 110 l 168 110 l 239 446 l 696 446 l 720 555 l 262 555 l 330 869 l 812 869 l 836 979 l 228 979 l 20 0 l 627 0 l 650 110 m 561 1046 q 726 1103 663 1046 q 798 1252 789 1160 l 713 1252 q 664 1155 704 1189 q 566 1122 623 1122 q 468 1162 496 1122 q 446 1252 440 1202 l 366 1252 q 365 1186 359 1221 q 394 1119 372 1151 q 457 1066 416 1086 q 561 1046 498 1046 z "},"Ḛ":{"ha":769,"x_min":20,"x_max":836,"o":"m 650 110 l 168 110 l 239 446 l 696 446 l 720 555 l 262 555 l 330 869 l 812 869 l 836 979 l 228 979 l 20 0 l 627 0 l 650 110 m 87 -230 l 174 -230 q 194 -179 182 -197 q 227 -162 206 -162 q 259 -176 245 -162 q 288 -209 273 -190 q 326 -241 303 -227 q 384 -255 348 -255 q 482 -211 447 -255 q 527 -104 517 -167 l 440 -104 q 419 -156 432 -138 q 387 -174 407 -174 q 355 -160 369 -174 q 326 -127 341 -146 q 288 -95 311 -109 q 229 -81 265 -81 q 159 -101 188 -81 q 112 -155 130 -121 q 87 -230 94 -189 z "},"Ė":{"ha":769,"x_min":20,"x_max":836,"o":"m 650 110 l 168 110 l 239 446 l 696 446 l 720 555 l 262 555 l 330 869 l 812 869 l 836 979 l 228 979 l 20 0 l 627 0 l 650 110 m 571 1090 q 624 1112 602 1090 q 645 1164 645 1134 q 624 1217 645 1196 q 571 1238 602 1238 q 519 1217 541 1238 q 497 1164 497 1196 q 519 1112 497 1134 q 571 1090 541 1090 z "},"Ȩ":{"ha":769,"x_min":20,"x_max":836,"o":"m 650 110 l 168 110 l 239 446 l 696 446 l 720 555 l 262 555 l 330 869 l 812 869 l 836 979 l 228 979 l 20 0 l 627 0 l 650 110 m 183 -296 q 232 -307 206 -303 q 285 -311 258 -311 q 406 -283 355 -311 q 457 -192 457 -255 q 421 -112 457 -138 q 340 -86 385 -86 l 394 0 l 394 15 l 308 15 l 239 -94 l 227 -152 l 267 -152 q 329 -162 307 -152 q 352 -195 352 -172 q 327 -225 352 -217 q 273 -233 302 -233 q 231 -230 250 -233 q 200 -222 213 -227 l 183 -296 z "},"Ḝ":{"ha":769,"x_min":20,"x_max":836,"o":"m 650 110 l 168 110 l 239 446 l 696 446 l 720 555 l 262 555 l 330 869 l 812 869 l 836 979 l 228 979 l 20 0 l 627 0 l 650 110 m 183 -296 q 232 -307 206 -303 q 285 -311 258 -311 q 406 -283 355 -311 q 457 -192 457 -255 q 421 -112 457 -138 q 340 -86 385 -86 l 394 0 l 394 15 l 308 15 l 239 -94 l 227 -152 l 267 -152 q 329 -162 307 -152 q 352 -195 352 -172 q 327 -225 352 -217 q 273 -233 302 -233 q 231 -230 250 -233 q 200 -222 213 -227 l 183 -296 m 561 1046 q 726 1103 663 1046 q 798 1252 789 1160 l 713 1252 q 664 1155 704 1189 q 566 1122 623 1122 q 468 1162 496 1122 q 446 1252 440 1202 l 366 1252 q 365 1186 359 1221 q 394 1119 372 1151 q 457 1066 416 1086 q 561 1046 498 1046 z "},"Ę":{"ha":769,"x_min":20,"x_max":836,"o":"m 20 0 l 510 0 l 510 -3 q 400 -93 438 -45 q 361 -189 361 -140 q 396 -262 361 -234 q 489 -290 431 -290 q 534 -286 513 -290 q 564 -275 555 -281 l 581 -195 q 558 -202 571 -200 q 532 -204 546 -204 q 484 -191 501 -204 q 467 -155 467 -178 q 484 -109 467 -134 q 534 -56 501 -84 q 617 2 568 -28 q 624 6 621 4 q 629 9 627 7 l 650 110 l 168 110 l 239 446 l 696 446 l 720 555 l 262 555 l 330 869 l 812 869 l 836 979 l 228 979 l 20 0 z "},"F":{"ha":735,"x_min":20,"x_max":823,"o":"m 144 0 l 235 424 l 666 424 l 689 532 l 258 532 l 330 869 l 800 869 l 823 979 l 228 979 l 20 0 l 144 0 z "},"Ḟ":{"ha":735,"x_min":20,"x_max":823,"o":"m 144 0 l 235 424 l 666 424 l 689 532 l 258 532 l 330 869 l 800 869 l 823 979 l 228 979 l 20 0 l 144 0 m 565 1090 q 617 1112 596 1090 q 639 1164 639 1134 q 617 1217 639 1196 q 565 1238 596 1238 q 513 1217 534 1238 q 491 1164 491 1196 q 513 1112 491 1134 q 565 1090 534 1090 z "},"G":{"ha":986,"x_min":85,"x_max":968,"o":"m 957 499 l 561 499 l 538 392 l 809 392 l 802 355 q 742 218 786 277 q 633 128 698 160 q 489 96 568 96 q 337 136 399 96 q 243 248 275 176 q 211 414 211 319 q 232 575 211 493 q 298 727 253 658 q 415 839 343 796 q 589 882 488 882 q 720 853 665 882 q 808 774 776 825 q 844 653 840 723 l 968 653 q 968 658 968 656 q 968 663 968 661 q 939 796 966 735 q 862 901 911 857 q 744 970 813 945 q 589 994 675 994 q 403 959 485 994 q 261 865 321 924 q 162 729 201 805 q 104 571 123 654 q 85 410 85 489 q 133 189 85 285 q 271 39 181 93 q 489 -16 361 -16 q 770 80 653 -16 q 925 349 888 176 l 957 499 z "},"Ǵ":{"ha":986,"x_min":85,"x_max":968,"o":"m 957 499 l 561 499 l 538 392 l 809 392 l 802 355 q 742 218 786 277 q 633 128 698 160 q 489 96 568 96 q 337 136 399 96 q 243 248 275 176 q 211 414 211 319 q 232 575 211 493 q 298 727 253 658 q 415 839 343 796 q 589 882 488 882 q 720 853 665 882 q 808 774 776 825 q 844 653 840 723 l 968 653 q 968 658 968 656 q 968 663 968 661 q 939 796 966 735 q 862 901 911 857 q 744 970 813 945 q 589 994 675 994 q 403 959 485 994 q 261 865 321 924 q 162 729 201 805 q 104 571 123 654 q 85 410 85 489 q 133 189 85 285 q 271 39 181 93 q 489 -16 361 -16 q 770 80 653 -16 q 925 349 888 176 l 957 499 m 656 1058 l 832 1254 l 701 1254 l 562 1058 l 656 1058 z "},"Ǧ":{"ha":986,"x_min":85,"x_max":968,"o":"m 957 499 l 561 499 l 538 392 l 809 392 l 802 355 q 742 218 786 277 q 633 128 698 160 q 489 96 568 96 q 337 136 399 96 q 243 248 275 176 q 211 414 211 319 q 232 575 211 493 q 298 727 253 658 q 415 839 343 796 q 589 882 488 882 q 720 853 665 882 q 808 774 776 825 q 844 653 840 723 l 968 653 q 968 658 968 656 q 968 663 968 661 q 939 796 966 735 q 862 901 911 857 q 744 970 813 945 q 589 994 675 994 q 403 959 485 994 q 261 865 321 924 q 162 729 201 805 q 104 571 123 654 q 85 410 85 489 q 133 189 85 285 q 271 39 181 93 q 489 -16 361 -16 q 770 80 653 -16 q 925 349 888 176 l 957 499 m 575 1058 l 666 1058 l 881 1260 l 771 1260 l 630 1131 l 626 1131 l 532 1260 l 425 1260 l 575 1058 z "},"Ĝ":{"ha":986,"x_min":85,"x_max":968,"o":"m 957 499 l 561 499 l 538 392 l 809 392 l 802 355 q 742 218 786 277 q 633 128 698 160 q 489 96 568 96 q 337 136 399 96 q 243 248 275 176 q 211 414 211 319 q 232 575 211 493 q 298 727 253 658 q 415 839 343 796 q 589 882 488 882 q 720 853 665 882 q 808 774 776 825 q 844 653 840 723 l 968 653 q 968 658 968 656 q 968 663 968 661 q 939 796 966 735 q 862 901 911 857 q 744 970 813 945 q 589 994 675 994 q 403 959 485 994 q 261 865 321 924 q 162 729 201 805 q 104 571 123 654 q 85 410 85 489 q 133 189 85 285 q 271 39 181 93 q 489 -16 361 -16 q 770 80 653 -16 q 925 349 888 176 l 957 499 m 688 1260 l 597 1260 l 382 1058 l 492 1058 l 633 1187 l 637 1187 l 731 1058 l 838 1058 l 688 1260 z "},"Ğ":{"ha":986,"x_min":85,"x_max":968,"o":"m 957 499 l 561 499 l 538 392 l 809 392 l 802 355 q 742 218 786 277 q 633 128 698 160 q 489 96 568 96 q 337 136 399 96 q 243 248 275 176 q 211 414 211 319 q 232 575 211 493 q 298 727 253 658 q 415 839 343 796 q 589 882 488 882 q 720 853 665 882 q 808 774 776 825 q 844 653 840 723 l 968 653 q 968 658 968 656 q 968 663 968 661 q 939 796 966 735 q 862 901 911 857 q 744 970 813 945 q 589 994 675 994 q 403 959 485 994 q 261 865 321 924 q 162 729 201 805 q 104 571 123 654 q 85 410 85 489 q 133 189 85 285 q 271 39 181 93 q 489 -16 361 -16 q 770 80 653 -16 q 925 349 888 176 l 957 499 m 621 1046 q 785 1103 722 1046 q 857 1252 848 1160 l 772 1252 q 723 1155 764 1189 q 625 1122 683 1122 q 528 1162 556 1122 q 506 1252 500 1202 l 425 1252 q 425 1186 418 1221 q 454 1119 431 1151 q 517 1066 476 1086 q 621 1046 558 1046 z "},"Ḡ":{"ha":986,"x_min":85,"x_max":968,"o":"m 957 499 l 561 499 l 538 392 l 809 392 l 802 355 q 742 218 786 277 q 633 128 698 160 q 489 96 568 96 q 337 136 399 96 q 243 248 275 176 q 211 414 211 319 q 232 575 211 493 q 298 727 253 658 q 415 839 343 796 q 589 882 488 882 q 720 853 665 882 q 808 774 776 825 q 844 653 840 723 l 968 653 q 968 658 968 656 q 968 663 968 661 q 939 796 966 735 q 862 901 911 857 q 744 970 813 945 q 589 994 675 994 q 403 959 485 994 q 261 865 321 924 q 162 729 201 805 q 104 571 123 654 q 85 410 85 489 q 133 189 85 285 q 271 39 181 93 q 489 -16 361 -16 q 770 80 653 -16 q 925 349 888 176 l 957 499 m 833 1199 l 443 1199 l 425 1117 l 815 1117 l 833 1199 z "},"Ġ":{"ha":986,"x_min":85,"x_max":968,"o":"m 957 499 l 561 499 l 538 392 l 809 392 l 802 355 q 742 218 786 277 q 633 128 698 160 q 489 96 568 96 q 337 136 399 96 q 243 248 275 176 q 211 414 211 319 q 232 575 211 493 q 298 727 253 658 q 415 839 343 796 q 589 882 488 882 q 720 853 665 882 q 808 774 776 825 q 844 653 840 723 l 968 653 q 968 658 968 656 q 968 663 968 661 q 939 796 966 735 q 862 901 911 857 q 744 970 813 945 q 589 994 675 994 q 403 959 485 994 q 261 865 321 924 q 162 729 201 805 q 104 571 123 654 q 85 410 85 489 q 133 189 85 285 q 271 39 181 93 q 489 -16 361 -16 q 770 80 653 -16 q 925 349 888 176 l 957 499 m 631 1090 q 683 1112 662 1090 q 705 1164 705 1134 q 683 1217 705 1196 q 631 1238 662 1238 q 578 1217 600 1238 q 557 1164 557 1196 q 578 1112 557 1134 q 631 1090 600 1090 z "},"Ģ":{"ha":986,"x_min":85,"x_max":968,"o":"m 957 499 l 561 499 l 538 392 l 809 392 l 802 355 q 742 218 786 277 q 633 128 698 160 q 489 96 568 96 q 337 136 399 96 q 243 248 275 176 q 211 414 211 319 q 232 575 211 493 q 298 727 253 658 q 415 839 343 796 q 589 882 488 882 q 720 853 665 882 q 808 774 776 825 q 844 653 840 723 l 968 653 q 968 658 968 656 q 968 663 968 661 q 939 796 966 735 q 862 901 911 857 q 744 970 813 945 q 589 994 675 994 q 403 959 485 994 q 261 865 321 924 q 162 729 201 805 q 104 571 123 654 q 85 410 85 489 q 133 189 85 285 q 271 39 181 93 q 489 -16 361 -16 q 770 80 653 -16 q 925 349 888 176 l 957 499 m 402 -330 l 519 -86 l 416 -86 l 313 -330 l 402 -330 z "},"H":{"ha":974,"x_min":20,"x_max":1012,"o":"m 804 0 l 1012 979 l 887 979 l 797 555 l 262 555 l 353 979 l 228 979 l 20 0 l 144 0 l 239 446 l 774 446 l 679 0 l 804 0 z "},"Ḧ":{"ha":974,"x_min":20,"x_max":1012,"o":"m 804 0 l 1012 979 l 887 979 l 797 555 l 262 555 l 353 979 l 228 979 l 20 0 l 144 0 l 239 446 l 774 446 l 679 0 l 804 0 m 527 1090 q 579 1112 558 1090 q 601 1164 601 1134 q 579 1217 601 1196 q 527 1238 558 1238 q 475 1217 496 1238 q 453 1164 453 1196 q 475 1112 453 1134 q 527 1090 496 1090 m 781 1090 q 833 1112 812 1090 q 854 1164 854 1134 q 833 1217 854 1196 q 781 1238 812 1238 q 728 1217 750 1238 q 707 1164 707 1196 q 728 1112 707 1134 q 781 1090 750 1090 z "},"Ȟ":{"ha":974,"x_min":20,"x_max":1012,"o":"m 804 0 l 1012 979 l 887 979 l 797 555 l 262 555 l 353 979 l 228 979 l 20 0 l 144 0 l 239 446 l 774 446 l 679 0 l 804 0 m 598 1058 l 689 1058 l 904 1260 l 794 1260 l 653 1131 l 649 1131 l 555 1260 l 448 1260 l 598 1058 z "},"Ĥ":{"ha":974,"x_min":20,"x_max":1012,"o":"m 804 0 l 1012 979 l 887 979 l 797 555 l 262 555 l 353 979 l 228 979 l 20 0 l 144 0 l 239 446 l 774 446 l 679 0 l 804 0 m 711 1260 l 621 1260 l 406 1058 l 515 1058 l 656 1187 l 661 1187 l 754 1058 l 861 1058 l 711 1260 z "},"Ḥ":{"ha":974,"x_min":20,"x_max":1012,"o":"m 804 0 l 1012 979 l 887 979 l 797 555 l 262 555 l 353 979 l 228 979 l 20 0 l 144 0 l 239 446 l 774 446 l 679 0 l 804 0 m 395 -241 q 448 -220 427 -241 q 469 -168 469 -198 q 448 -115 469 -136 q 395 -94 427 -94 q 343 -115 365 -94 q 321 -168 321 -136 q 343 -220 321 -198 q 395 -241 365 -241 z "},"Ḣ":{"ha":974,"x_min":20,"x_max":1012,"o":"m 804 0 l 1012 979 l 887 979 l 797 555 l 262 555 l 353 979 l 228 979 l 20 0 l 144 0 l 239 446 l 774 446 l 679 0 l 804 0 m 654 1090 q 706 1112 685 1090 q 728 1164 728 1134 q 706 1217 728 1196 q 654 1238 685 1238 q 602 1217 623 1238 q 580 1164 580 1196 q 602 1112 580 1134 q 654 1090 623 1090 z "},"Ḫ":{"ha":974,"x_min":20,"x_max":1012,"o":"m 804 0 l 1012 979 l 887 979 l 797 555 l 262 555 l 353 979 l 228 979 l 20 0 l 144 0 l 239 446 l 774 446 l 679 0 l 804 0 m 382 -272 q 543 -214 481 -272 q 613 -63 604 -157 l 526 -63 q 479 -162 517 -128 q 387 -196 441 -196 q 297 -155 323 -196 q 277 -63 271 -115 l 193 -63 q 193 -131 186 -94 q 220 -199 199 -167 q 282 -252 242 -231 q 382 -272 322 -272 z "},"Ḩ":{"ha":974,"x_min":-66,"x_max":1012,"o":"m -66 -296 q -18 -307 -43 -303 q 35 -311 8 -311 q 156 -283 105 -311 q 208 -192 208 -255 q 171 -112 208 -138 q 90 -86 135 -86 l 144 0 l 144 15 l 58 15 l -10 -94 l -22 -152 l 18 -152 q 80 -162 57 -152 q 102 -195 102 -172 q 77 -225 102 -217 q 24 -233 52 -233 q -18 -230 0 -233 q -50 -222 -37 -227 l -66 -296 m 804 0 l 1012 979 l 887 979 l 797 555 l 262 555 l 353 979 l 228 979 l 20 0 l 144 0 l 239 446 l 774 446 l 679 0 l 804 0 z "},"Ħ":{"ha":974,"x_min":20,"x_max":1075,"o":"m 75 725 l 1055 725 l 1075 821 l 95 821 l 75 725 m 804 0 l 1012 979 l 887 979 l 797 555 l 262 555 l 353 979 l 228 979 l 20 0 l 144 0 l 239 446 l 774 446 l 679 0 l 804 0 z "},"I":{"ha":315,"x_min":20,"x_max":353,"o":"m 144 0 l 353 979 l 228 979 l 20 0 l 144 0 z "},"İ":{"ha":315,"x_min":20,"x_max":404,"o":"m 144 0 l 353 979 l 228 979 l 20 0 l 144 0 m 330 1090 q 383 1112 361 1090 q 404 1164 404 1134 q 383 1217 404 1196 q 330 1238 361 1238 q 278 1217 300 1238 q 256 1164 256 1196 q 278 1112 256 1134 q 330 1090 300 1090 z "},"Ì":{"ha":315,"x_min":20,"x_max":354,"o":"m 144 0 l 353 979 l 228 979 l 20 0 l 144 0 m 260 1058 l 354 1058 l 298 1254 l 167 1254 l 260 1058 z "},"Ȉ":{"ha":315,"x_min":20,"x_max":454,"o":"m 144 0 l 353 979 l 228 979 l 20 0 l 144 0 m 366 1058 l 454 1058 l 444 1254 l 325 1254 l 366 1058 m 157 1058 l 252 1058 l 204 1254 l 74 1254 l 157 1058 z "},"Í":{"ha":315,"x_min":20,"x_max":532,"o":"m 144 0 l 353 979 l 228 979 l 20 0 l 144 0 m 355 1058 l 532 1254 l 401 1254 l 261 1058 l 355 1058 z "},"Î":{"ha":315,"x_min":20,"x_max":538,"o":"m 144 0 l 353 979 l 228 979 l 20 0 l 144 0 m 388 1260 l 297 1260 l 82 1058 l 192 1058 l 333 1187 l 337 1187 l 431 1058 l 538 1058 l 388 1260 z "},"Ǐ":{"ha":315,"x_min":20,"x_max":581,"o":"m 144 0 l 353 979 l 228 979 l 20 0 l 144 0 m 275 1058 l 366 1058 l 581 1260 l 471 1260 l 330 1131 l 326 1131 l 232 1260 l 125 1260 l 275 1058 z "},"Ï":{"ha":315,"x_min":20,"x_max":531,"o":"m 144 0 l 353 979 l 228 979 l 20 0 l 144 0 m 203 1090 q 256 1112 235 1090 q 277 1164 277 1134 q 256 1217 277 1196 q 203 1238 235 1238 q 151 1217 173 1238 q 130 1164 130 1196 q 151 1112 130 1134 q 203 1090 173 1090 m 457 1090 q 510 1112 488 1090 q 531 1164 531 1134 q 510 1217 531 1196 q 457 1238 488 1238 q 405 1217 427 1238 q 383 1164 383 1196 q 405 1112 383 1134 q 457 1090 427 1090 z "},"Ḯ":{"ha":315,"x_min":20,"x_max":548,"o":"m 144 0 l 353 979 l 228 979 l 20 0 l 144 0 m 282 1241 l 387 1241 l 548 1388 l 427 1388 l 282 1241 m 203 1054 q 253 1075 232 1054 q 273 1126 273 1096 q 253 1177 273 1156 q 203 1198 232 1198 q 153 1177 174 1198 q 132 1126 132 1156 q 153 1075 132 1096 q 203 1054 174 1054 m 443 1054 q 493 1075 473 1054 q 514 1126 514 1096 q 493 1177 514 1156 q 443 1198 473 1198 q 393 1177 414 1198 q 372 1126 372 1156 q 393 1075 372 1096 q 443 1054 414 1054 z "},"Ĭ":{"ha":315,"x_min":20,"x_max":557,"o":"m 144 0 l 353 979 l 228 979 l 20 0 l 144 0 m 320 1046 q 485 1103 422 1046 q 557 1252 548 1160 l 472 1252 q 423 1155 463 1189 q 325 1122 382 1122 q 228 1162 256 1122 q 205 1252 199 1202 l 125 1252 q 124 1186 118 1221 q 153 1119 131 1151 q 217 1066 176 1086 q 320 1046 258 1046 z "},"Ị":{"ha":315,"x_min":-28,"x_max":353,"o":"m 144 0 l 353 979 l 228 979 l 20 0 l 144 0 m 46 -241 q 99 -220 77 -241 q 120 -168 120 -198 q 99 -115 120 -136 q 46 -94 77 -94 q -6 -115 16 -94 q -28 -168 -28 -136 q -6 -220 -28 -198 q 46 -241 16 -241 z "},"Ȋ":{"ha":315,"x_min":20,"x_max":522,"o":"m 144 0 l 353 979 l 228 979 l 20 0 l 144 0 m 319 1252 q 155 1195 218 1252 q 83 1046 92 1137 l 168 1046 q 217 1142 176 1109 q 315 1176 257 1176 q 412 1136 384 1176 q 434 1046 440 1096 l 515 1046 q 515 1112 522 1076 q 486 1179 509 1147 q 423 1232 464 1211 q 319 1252 382 1252 z "},"Ī":{"ha":315,"x_min":20,"x_max":532,"o":"m 144 0 l 353 979 l 228 979 l 20 0 l 144 0 m 532 1199 l 142 1199 l 125 1117 l 515 1117 l 532 1199 z "},"Ḭ":{"ha":315,"x_min":-170,"x_max":353,"o":"m 144 0 l 353 979 l 228 979 l 20 0 l 144 0 m -170 -230 l -83 -230 q -63 -179 -75 -197 q -30 -162 -51 -162 q 2 -176 -12 -162 q 31 -209 16 -190 q 68 -241 46 -227 q 127 -255 91 -255 q 225 -211 190 -255 q 270 -104 260 -167 l 183 -104 q 162 -156 175 -138 q 130 -174 150 -174 q 98 -160 112 -174 q 69 -127 84 -146 q 31 -95 54 -109 q -28 -81 8 -81 q -98 -101 -69 -81 q -145 -155 -127 -121 q -170 -230 -163 -189 z "},"Ỉ":{"ha":315,"x_min":20,"x_max":417,"o":"m 144 0 l 353 979 l 228 979 l 20 0 l 144 0 m 213 1183 q 245 1195 227 1191 q 281 1199 264 1199 q 316 1187 302 1199 q 331 1160 331 1175 q 312 1115 331 1135 q 254 1082 292 1095 l 282 1027 q 380 1083 343 1043 q 417 1175 417 1123 q 402 1223 417 1202 q 363 1256 388 1244 q 307 1268 338 1268 q 261 1263 283 1268 q 225 1251 239 1259 l 213 1183 z "},"Ĩ":{"ha":315,"x_min":20,"x_max":553,"o":"m 144 0 l 353 979 l 228 979 l 20 0 l 144 0 m 113 1099 l 201 1099 q 220 1150 208 1133 q 254 1167 233 1167 q 286 1153 272 1167 q 315 1121 300 1139 q 352 1088 330 1102 q 410 1074 374 1074 q 508 1118 473 1074 q 553 1225 543 1162 l 467 1225 q 446 1174 458 1192 q 414 1156 433 1156 q 381 1170 395 1156 q 352 1202 368 1183 q 314 1235 337 1221 q 256 1249 292 1249 q 185 1229 214 1249 q 138 1175 156 1208 q 113 1099 120 1141 z "},"Į":{"ha":315,"x_min":-94,"x_max":353,"o":"m 33 -290 q 78 -286 57 -290 q 109 -275 100 -281 l 125 -195 q 105 -202 117 -200 q 76 -204 92 -204 q 29 -191 46 -204 q 12 -152 12 -177 q 23 -107 12 -130 q 62 -56 35 -83 q 136 4 89 -29 l 147 12 l 353 979 l 228 979 l 17 -12 q 17 -12 17 -12 q 17 -12 17 -12 q -67 -104 -40 -62 q -94 -189 -94 -146 q -59 -262 -94 -234 q 33 -290 -24 -290 z "},"J":{"ha":696,"x_min":9,"x_max":734,"o":"m 9 224 q 43 101 9 156 q 137 15 77 47 q 271 -16 196 -16 q 475 54 397 -16 q 580 253 553 125 l 734 979 l 609 979 l 461 281 q 398 144 442 189 q 283 98 355 98 q 174 136 215 98 q 133 238 133 173 q 133 238 133 238 q 133 239 133 239 q 114 239 133 239 q 71 239 96 239 q 28 239 47 239 q 9 239 9 239 q 9 232 9 236 q 9 224 9 228 z "},"Ĵ":{"ha":696,"x_min":9,"x_max":919,"o":"m 9 224 q 43 101 9 156 q 137 15 77 47 q 271 -16 196 -16 q 475 54 397 -16 q 580 253 553 125 l 734 979 l 609 979 l 461 281 q 398 144 442 189 q 283 98 355 98 q 174 136 215 98 q 133 238 133 173 q 133 238 133 238 q 133 239 133 239 q 114 239 133 239 q 71 239 96 239 q 28 239 47 239 q 9 239 9 239 q 9 232 9 236 q 9 224 9 228 m 769 1260 l 678 1260 l 463 1058 l 573 1058 l 714 1187 l 718 1187 l 812 1058 l 919 1058 l 769 1260 z "},"K":{"ha":854,"x_min":20,"x_max":942,"o":"m 144 0 l 216 335 l 361 463 l 627 0 l 770 0 l 458 539 l 942 979 l 781 979 l 254 503 l 252 503 l 353 979 l 228 979 l 20 0 l 144 0 z "},"Ḱ":{"ha":854,"x_min":20,"x_max":942,"o":"m 144 0 l 216 335 l 361 463 l 627 0 l 770 0 l 458 539 l 942 979 l 781 979 l 254 503 l 252 503 l 353 979 l 228 979 l 20 0 l 144 0 m 604 1058 l 780 1254 l 649 1254 l 509 1058 l 604 1058 z "},"Ǩ":{"ha":854,"x_min":20,"x_max":942,"o":"m 144 0 l 216 335 l 361 463 l 627 0 l 770 0 l 458 539 l 942 979 l 781 979 l 254 503 l 252 503 l 353 979 l 228 979 l 20 0 l 144 0 m 523 1058 l 614 1058 l 829 1260 l 719 1260 l 578 1131 l 574 1131 l 480 1260 l 373 1260 l 523 1058 z "},"Ḳ":{"ha":854,"x_min":20,"x_max":942,"o":"m 144 0 l 216 335 l 361 463 l 627 0 l 770 0 l 458 539 l 942 979 l 781 979 l 254 503 l 252 503 l 353 979 l 228 979 l 20 0 l 144 0 m 336 -241 q 389 -220 368 -241 q 410 -168 410 -198 q 389 -115 410 -136 q 336 -94 368 -94 q 284 -115 306 -94 q 262 -168 262 -136 q 284 -220 262 -198 q 336 -241 306 -241 z "},"Ḵ":{"ha":854,"x_min":20,"x_max":942,"o":"m 144 0 l 216 335 l 361 463 l 627 0 l 770 0 l 458 539 l 942 979 l 781 979 l 254 503 l 252 503 l 353 979 l 228 979 l 20 0 l 144 0 m 540 -127 l 150 -127 l 132 -209 l 522 -209 l 540 -127 z "},"Ķ":{"ha":854,"x_min":20,"x_max":942,"o":"m 144 0 l 216 335 l 361 463 l 627 0 l 770 0 l 458 539 l 942 979 l 781 979 l 254 503 l 252 503 l 353 979 l 228 979 l 20 0 l 144 0 m 293 -330 l 410 -86 l 307 -86 l 203 -330 l 293 -330 z "},"L":{"ha":731,"x_min":20,"x_max":638,"o":"m 638 110 l 168 110 l 353 979 l 228 979 l 20 0 l 615 0 l 638 110 z "},"Ĺ":{"ha":731,"x_min":20,"x_max":638,"o":"m 638 110 l 168 110 l 353 979 l 228 979 l 20 0 l 615 0 l 638 110 m 355 1058 l 531 1254 l 400 1254 l 260 1058 l 355 1058 z "},"Ḽ":{"ha":731,"x_min":20,"x_max":638,"o":"m 638 110 l 168 110 l 353 979 l 228 979 l 20 0 l 615 0 l 638 110 m 336 -86 l 245 -86 l 44 -290 l 154 -290 l 281 -161 l 286 -161 l 366 -290 l 473 -290 l 336 -86 z "},"Ŀ":{"ha":731,"x_min":20,"x_max":638,"o":"m 638 110 l 168 110 l 353 979 l 228 979 l 20 0 l 615 0 l 638 110 m 500 412 q 555 435 533 412 q 578 490 578 457 q 555 545 578 522 q 500 567 533 567 q 446 545 468 567 q 423 490 423 522 q 446 435 423 457 q 500 412 468 412 z "},"Ḷ":{"ha":731,"x_min":20,"x_max":638,"o":"m 638 110 l 168 110 l 353 979 l 228 979 l 20 0 l 615 0 l 638 110 m 282 -241 q 335 -220 313 -241 q 356 -168 356 -198 q 335 -115 356 -136 q 282 -94 313 -94 q 230 -115 252 -94 q 208 -168 208 -136 q 230 -220 208 -198 q 282 -241 252 -241 z "},"Ḹ":{"ha":731,"x_min":20,"x_max":638,"o":"m 638 110 l 168 110 l 353 979 l 228 979 l 20 0 l 615 0 l 638 110 m 282 -241 q 335 -220 313 -241 q 356 -168 356 -198 q 335 -115 356 -136 q 282 -94 313 -94 q 230 -115 252 -94 q 208 -168 208 -136 q 230 -220 208 -198 q 282 -241 252 -241 m 532 1199 l 142 1199 l 124 1117 l 514 1117 l 532 1199 z "},"Ḻ":{"ha":731,"x_min":20,"x_max":638,"o":"m 638 110 l 168 110 l 353 979 l 228 979 l 20 0 l 615 0 l 638 110 m 486 -127 l 96 -127 l 78 -209 l 468 -209 l 486 -127 z "},"Ļ":{"ha":731,"x_min":20,"x_max":638,"o":"m 638 110 l 168 110 l 353 979 l 228 979 l 20 0 l 615 0 l 638 110 m 239 -330 l 356 -86 l 253 -86 l 149 -330 l 239 -330 z "},"Ľ":{"ha":731,"x_min":20,"x_max":669,"o":"m 548 1010 l 476 670 l 557 670 l 669 1010 l 548 1010 m 638 110 l 168 110 l 353 979 l 228 979 l 20 0 l 615 0 l 638 110 z "},"Ł":{"ha":731,"x_min":-5,"x_max":638,"o":"m -5 333 l 470 554 l 492 657 l 18 436 l -5 333 m 638 110 l 168 110 l 353 979 l 228 979 l 20 0 l 615 0 l 638 110 z "},"M":{"ha":1157,"x_min":20,"x_max":1195,"o":"m 135 0 l 296 762 l 300 762 l 451 7 l 555 7 l 1029 762 l 1034 762 l 871 0 l 987 0 l 1195 979 l 1042 979 l 531 154 l 528 154 l 363 979 l 228 979 l 20 0 l 135 0 z "},"Ḿ":{"ha":1157,"x_min":20,"x_max":1195,"o":"m 135 0 l 296 762 l 300 762 l 451 7 l 555 7 l 1029 762 l 1034 762 l 871 0 l 987 0 l 1195 979 l 1042 979 l 531 154 l 528 154 l 363 979 l 228 979 l 20 0 l 135 0 m 741 1058 l 917 1254 l 786 1254 l 646 1058 l 741 1058 z "},"Ṁ":{"ha":1157,"x_min":20,"x_max":1195,"o":"m 135 0 l 296 762 l 300 762 l 451 7 l 555 7 l 1029 762 l 1034 762 l 871 0 l 987 0 l 1195 979 l 1042 979 l 531 154 l 528 154 l 363 979 l 228 979 l 20 0 l 135 0 m 715 1090 q 768 1112 747 1090 q 789 1164 789 1134 q 768 1217 789 1196 q 715 1238 747 1238 q 663 1217 685 1238 q 642 1164 642 1196 q 663 1112 642 1134 q 715 1090 685 1090 z "},"Ṃ":{"ha":1157,"x_min":20,"x_max":1195,"o":"m 135 0 l 296 762 l 300 762 l 451 7 l 555 7 l 1029 762 l 1034 762 l 871 0 l 987 0 l 1195 979 l 1042 979 l 531 154 l 528 154 l 363 979 l 228 979 l 20 0 l 135 0 m 467 -241 q 520 -220 498 -241 q 541 -168 541 -198 q 520 -115 541 -136 q 467 -94 498 -94 q 415 -115 437 -94 q 393 -168 393 -136 q 415 -220 393 -198 q 467 -241 437 -241 z "},"N":{"ha":972,"x_min":20,"x_max":1010,"o":"m 144 0 l 313 795 l 316 795 l 677 0 l 802 0 l 1010 979 l 886 979 l 717 183 l 714 183 l 353 979 l 228 979 l 20 0 l 144 0 z "},"Ǹ":{"ha":972,"x_min":20,"x_max":1010,"o":"m 144 0 l 313 795 l 316 795 l 677 0 l 802 0 l 1010 979 l 886 979 l 717 183 l 714 183 l 353 979 l 228 979 l 20 0 l 144 0 m 595 1058 l 689 1058 l 633 1254 l 502 1254 l 595 1058 z "},"Ń":{"ha":972,"x_min":20,"x_max":1010,"o":"m 144 0 l 313 795 l 316 795 l 677 0 l 802 0 l 1010 979 l 886 979 l 717 183 l 714 183 l 353 979 l 228 979 l 20 0 l 144 0 m 690 1058 l 867 1254 l 736 1254 l 596 1058 l 690 1058 z "},"Ñ":{"ha":972,"x_min":20,"x_max":1010,"o":"m 144 0 l 313 795 l 316 795 l 677 0 l 802 0 l 1010 979 l 886 979 l 717 183 l 714 183 l 353 979 l 228 979 l 20 0 l 144 0 m 448 1099 l 536 1099 q 555 1150 543 1133 q 589 1167 568 1167 q 621 1153 607 1167 q 650 1121 635 1139 q 687 1088 665 1102 q 745 1074 709 1074 q 843 1118 808 1074 q 888 1225 878 1162 l 802 1225 q 781 1174 793 1192 q 749 1156 768 1156 q 716 1170 730 1156 q 687 1202 703 1183 q 649 1235 672 1221 q 591 1249 627 1249 q 520 1229 549 1249 q 473 1175 491 1208 q 448 1099 455 1141 z "},"Ṇ":{"ha":972,"x_min":20,"x_max":1010,"o":"m 144 0 l 313 795 l 316 795 l 677 0 l 802 0 l 1010 979 l 886 979 l 717 183 l 714 183 l 353 979 l 228 979 l 20 0 l 144 0 m 376 -241 q 428 -220 407 -241 q 450 -168 450 -198 q 428 -115 450 -136 q 376 -94 407 -94 q 323 -115 345 -94 q 302 -168 302 -136 q 323 -220 302 -198 q 376 -241 345 -241 z "},"Ṅ":{"ha":972,"x_min":20,"x_max":1010,"o":"m 144 0 l 313 795 l 316 795 l 677 0 l 802 0 l 1010 979 l 886 979 l 717 183 l 714 183 l 353 979 l 228 979 l 20 0 l 144 0 m 665 1090 q 718 1112 696 1090 q 739 1164 739 1134 q 718 1217 739 1196 q 665 1238 696 1238 q 613 1217 635 1238 q 591 1164 591 1196 q 613 1112 591 1134 q 665 1090 635 1090 z "},"Ň":{"ha":972,"x_min":20,"x_max":1010,"o":"m 144 0 l 313 795 l 316 795 l 677 0 l 802 0 l 1010 979 l 886 979 l 717 183 l 714 183 l 353 979 l 228 979 l 20 0 l 144 0 m 610 1058 l 701 1058 l 916 1260 l 806 1260 l 665 1131 l 661 1131 l 567 1260 l 460 1260 l 610 1058 z "},"Ṋ":{"ha":972,"x_min":20,"x_max":1010,"o":"m 144 0 l 313 795 l 316 795 l 677 0 l 802 0 l 1010 979 l 886 979 l 717 183 l 714 183 l 353 979 l 228 979 l 20 0 l 144 0 m 430 -86 l 339 -86 l 138 -290 l 248 -290 l 375 -161 l 379 -161 l 459 -290 l 566 -290 l 430 -86 z "},"Ṉ":{"ha":972,"x_min":20,"x_max":1010,"o":"m 144 0 l 313 795 l 316 795 l 677 0 l 802 0 l 1010 979 l 886 979 l 717 183 l 714 183 l 353 979 l 228 979 l 20 0 l 144 0 m 579 -127 l 189 -127 l 172 -209 l 562 -209 l 579 -127 z "},"Ņ":{"ha":972,"x_min":20,"x_max":1010,"o":"m 144 0 l 313 795 l 316 795 l 677 0 l 802 0 l 1010 979 l 886 979 l 717 183 l 714 183 l 353 979 l 228 979 l 20 0 l 144 0 m 332 -330 l 450 -86 l 347 -86 l 243 -330 l 332 -330 z "},"O":{"ha":1029,"x_min":85,"x_max":1002,"o":"m 595 882 q 744 843 681 882 q 842 733 807 804 q 876 564 876 661 q 848 382 876 467 q 770 233 821 298 q 648 133 719 169 q 492 96 578 96 q 343 135 407 96 q 245 246 280 174 q 211 415 211 318 q 239 596 211 512 q 317 745 267 681 q 439 846 368 810 q 595 882 509 882 m 492 -16 q 696 30 604 -16 q 858 156 789 75 q 964 342 926 237 q 1002 568 1002 448 q 951 792 1002 696 q 809 941 901 888 q 595 994 718 994 q 391 949 484 994 q 229 823 298 903 q 123 636 161 742 q 85 411 85 531 q 136 186 85 282 q 278 37 186 90 q 492 -16 370 -16 z "},"Ö":{"ha":1029,"x_min":85,"x_max":1002,"o":"m 595 882 q 744 843 681 882 q 842 733 807 804 q 876 564 876 661 q 848 382 876 467 q 770 233 821 298 q 648 133 719 169 q 492 96 578 96 q 343 135 407 96 q 245 246 280 174 q 211 415 211 318 q 239 596 211 512 q 317 745 267 681 q 439 846 368 810 q 595 882 509 882 m 492 -16 q 696 30 604 -16 q 858 156 789 75 q 964 342 926 237 q 1002 568 1002 448 q 951 792 1002 696 q 809 941 901 888 q 595 994 718 994 q 391 949 484 994 q 229 823 298 903 q 123 636 161 742 q 85 411 85 531 q 136 186 85 282 q 278 37 186 90 q 492 -16 370 -16 m 520 1090 q 573 1112 551 1090 q 594 1164 594 1134 q 573 1217 594 1196 q 520 1238 551 1238 q 468 1217 490 1238 q 446 1164 446 1196 q 468 1112 446 1134 q 520 1090 490 1090 m 774 1090 q 826 1112 805 1090 q 848 1164 848 1134 q 826 1217 848 1196 q 774 1238 805 1238 q 722 1217 743 1238 q 700 1164 700 1196 q 722 1112 700 1134 q 774 1090 743 1090 z "},"Ø":{"ha":1029,"x_min":65,"x_max":1023,"o":"m 595 882 q 744 843 681 882 q 842 733 807 804 q 876 564 876 661 q 848 382 876 467 q 770 233 821 298 q 648 133 719 169 q 492 96 578 96 q 343 135 407 96 q 245 246 280 174 q 211 415 211 318 q 239 596 211 512 q 317 745 267 681 q 439 846 368 810 q 595 882 509 882 m 492 -16 q 696 30 604 -16 q 858 156 789 75 q 964 342 926 237 q 1002 568 1002 448 q 951 792 1002 696 q 809 941 901 888 q 595 994 718 994 q 391 949 484 994 q 229 823 298 903 q 123 636 161 742 q 85 411 85 531 q 136 186 85 282 q 278 37 186 90 q 492 -16 370 -16 m 65 96 l 121 27 l 1023 868 l 966 936 l 65 96 z "},"Õ":{"ha":1029,"x_min":85,"x_max":1002,"o":"m 595 882 q 744 843 681 882 q 842 733 807 804 q 876 564 876 661 q 848 382 876 467 q 770 233 821 298 q 648 133 719 169 q 492 96 578 96 q 343 135 407 96 q 245 246 280 174 q 211 415 211 318 q 239 596 211 512 q 317 745 267 681 q 439 846 368 810 q 595 882 509 882 m 492 -16 q 696 30 604 -16 q 858 156 789 75 q 964 342 926 237 q 1002 568 1002 448 q 951 792 1002 696 q 809 941 901 888 q 595 994 718 994 q 391 949 484 994 q 229 823 298 903 q 123 636 161 742 q 85 411 85 531 q 136 186 85 282 q 278 37 186 90 q 492 -16 370 -16 m 430 1099 l 517 1099 q 537 1150 525 1133 q 570 1167 549 1167 q 603 1153 589 1167 q 631 1121 616 1139 q 669 1088 646 1102 q 727 1074 691 1074 q 825 1118 790 1074 q 870 1225 860 1162 l 783 1225 q 763 1174 775 1192 q 730 1156 750 1156 q 698 1170 712 1156 q 669 1202 684 1183 q 631 1235 654 1221 q 572 1249 608 1249 q 502 1229 531 1249 q 455 1175 473 1208 q 430 1099 437 1141 z "},"Ó":{"ha":1029,"x_min":85,"x_max":1002,"o":"m 595 882 q 744 843 681 882 q 842 733 807 804 q 876 564 876 661 q 848 382 876 467 q 770 233 821 298 q 648 133 719 169 q 492 96 578 96 q 343 135 407 96 q 245 246 280 174 q 211 415 211 318 q 239 596 211 512 q 317 745 267 681 q 439 846 368 810 q 595 882 509 882 m 492 -16 q 696 30 604 -16 q 858 156 789 75 q 964 342 926 237 q 1002 568 1002 448 q 951 792 1002 696 q 809 941 901 888 q 595 994 718 994 q 391 949 484 994 q 229 823 298 903 q 123 636 161 742 q 85 411 85 531 q 136 186 85 282 q 278 37 186 90 q 492 -16 370 -16 m 672 1058 l 848 1254 l 718 1254 l 578 1058 l 672 1058 z "},"Ô":{"ha":1029,"x_min":85,"x_max":1002,"o":"m 595 882 q 744 843 681 882 q 842 733 807 804 q 876 564 876 661 q 848 382 876 467 q 770 233 821 298 q 648 133 719 169 q 492 96 578 96 q 343 135 407 96 q 245 246 280 174 q 211 415 211 318 q 239 596 211 512 q 317 745 267 681 q 439 846 368 810 q 595 882 509 882 m 492 -16 q 696 30 604 -16 q 858 156 789 75 q 964 342 926 237 q 1002 568 1002 448 q 951 792 1002 696 q 809 941 901 888 q 595 994 718 994 q 391 949 484 994 q 229 823 298 903 q 123 636 161 742 q 85 411 85 531 q 136 186 85 282 q 278 37 186 90 q 492 -16 370 -16 m 705 1260 l 614 1260 l 399 1058 l 509 1058 l 650 1187 l 654 1187 l 747 1058 l 854 1058 l 705 1260 z "},"Ò":{"ha":1029,"x_min":85,"x_max":1002,"o":"m 595 882 q 744 843 681 882 q 842 733 807 804 q 876 564 876 661 q 848 382 876 467 q 770 233 821 298 q 648 133 719 169 q 492 96 578 96 q 343 135 407 96 q 245 246 280 174 q 211 415 211 318 q 239 596 211 512 q 317 745 267 681 q 439 846 368 810 q 595 882 509 882 m 492 -16 q 696 30 604 -16 q 858 156 789 75 q 964 342 926 237 q 1002 568 1002 448 q 951 792 1002 696 q 809 941 901 888 q 595 994 718 994 q 391 949 484 994 q 229 823 298 903 q 123 636 161 742 q 85 411 85 531 q 136 186 85 282 q 278 37 186 90 q 492 -16 370 -16 m 576 1058 l 671 1058 l 614 1254 l 484 1254 l 576 1058 z "},"Ổ":{"ha":1029,"x_min":85,"x_max":1002,"o":"m 595 882 q 744 843 681 882 q 842 733 807 804 q 876 564 876 661 q 848 382 876 467 q 770 233 821 298 q 648 133 719 169 q 492 96 578 96 q 343 135 407 96 q 245 246 280 174 q 211 415 211 318 q 239 596 211 512 q 317 745 267 681 q 439 846 368 810 q 595 882 509 882 m 492 -16 q 696 30 604 -16 q 858 156 789 75 q 964 342 926 237 q 1002 568 1002 448 q 951 792 1002 696 q 809 941 901 888 q 595 994 718 994 q 391 949 484 994 q 229 823 298 903 q 123 636 161 742 q 85 411 85 531 q 136 186 85 282 q 278 37 186 90 q 492 -16 370 -16 m 604 1219 l 375 1044 l 501 1044 l 648 1158 l 652 1158 l 751 1044 l 861 1044 l 707 1219 l 604 1219 m 731 1324 q 757 1329 744 1328 q 783 1331 770 1331 q 827 1319 811 1331 q 844 1289 844 1308 q 823 1251 844 1266 q 773 1229 803 1235 l 815 1181 q 897 1226 867 1196 q 926 1298 926 1257 q 892 1367 926 1341 q 802 1392 859 1392 q 771 1390 788 1392 q 747 1384 755 1388 l 731 1324 z "},"Ồ":{"ha":1029,"x_min":85,"x_max":1002,"o":"m 595 882 q 744 843 681 882 q 842 733 807 804 q 876 564 876 661 q 848 382 876 467 q 770 233 821 298 q 648 133 719 169 q 492 96 578 96 q 343 135 407 96 q 245 246 280 174 q 211 415 211 318 q 239 596 211 512 q 317 745 267 681 q 439 846 368 810 q 595 882 509 882 m 492 -16 q 696 30 604 -16 q 858 156 789 75 q 964 342 926 237 q 1002 568 1002 448 q 951 792 1002 696 q 809 941 901 888 q 595 994 718 994 q 391 949 484 994 q 229 823 298 903 q 123 636 161 742 q 85 411 85 531 q 136 186 85 282 q 278 37 186 90 q 492 -16 370 -16 m 604 1219 l 375 1044 l 501 1044 l 648 1158 l 652 1158 l 751 1044 l 861 1044 l 707 1219 l 604 1219 m 901 1241 l 819 1388 l 711 1388 l 810 1241 l 901 1241 z "},"Ọ":{"ha":1029,"x_min":85,"x_max":1002,"o":"m 595 882 q 744 843 681 882 q 842 733 807 804 q 876 564 876 661 q 848 382 876 467 q 770 233 821 298 q 648 133 719 169 q 492 96 578 96 q 343 135 407 96 q 245 246 280 174 q 211 415 211 318 q 239 596 211 512 q 317 745 267 681 q 439 846 368 810 q 595 882 509 882 m 492 -16 q 696 30 604 -16 q 858 156 789 75 q 964 342 926 237 q 1002 568 1002 448 q 951 792 1002 696 q 809 941 901 888 q 595 994 718 994 q 391 949 484 994 q 229 823 298 903 q 123 636 161 742 q 85 411 85 531 q 136 186 85 282 q 278 37 186 90 q 492 -16 370 -16 m 456 -241 q 508 -220 487 -241 q 530 -168 530 -198 q 508 -115 530 -136 q 456 -94 487 -94 q 404 -115 425 -94 q 382 -168 382 -136 q 404 -220 382 -198 q 456 -241 425 -241 z "},"Ȍ":{"ha":1029,"x_min":85,"x_max":1002,"o":"m 595 882 q 744 843 681 882 q 842 733 807 804 q 876 564 876 661 q 848 382 876 467 q 770 233 821 298 q 648 133 719 169 q 492 96 578 96 q 343 135 407 96 q 245 246 280 174 q 211 415 211 318 q 239 596 211 512 q 317 745 267 681 q 439 846 368 810 q 595 882 509 882 m 492 -16 q 696 30 604 -16 q 858 156 789 75 q 964 342 926 237 q 1002 568 1002 448 q 951 792 1002 696 q 809 941 901 888 q 595 994 718 994 q 391 949 484 994 q 229 823 298 903 q 123 636 161 742 q 85 411 85 531 q 136 186 85 282 q 278 37 186 90 q 492 -16 370 -16 m 683 1058 l 770 1058 l 761 1254 l 642 1254 l 683 1058 m 474 1058 l 568 1058 l 521 1254 l 391 1254 l 474 1058 z "},"Ṍ":{"ha":1029,"x_min":85,"x_max":1002,"o":"m 595 882 q 744 843 681 882 q 842 733 807 804 q 876 564 876 661 q 848 382 876 467 q 770 233 821 298 q 648 133 719 169 q 492 96 578 96 q 343 135 407 96 q 245 246 280 174 q 211 415 211 318 q 239 596 211 512 q 317 745 267 681 q 439 846 368 810 q 595 882 509 882 m 492 -16 q 696 30 604 -16 q 858 156 789 75 q 964 342 926 237 q 1002 568 1002 448 q 951 792 1002 696 q 809 941 901 888 q 595 994 718 994 q 391 949 484 994 q 229 823 298 903 q 123 636 161 742 q 85 411 85 531 q 136 186 85 282 q 278 37 186 90 q 492 -16 370 -16 m 618 1255 l 723 1255 l 882 1388 l 761 1388 l 618 1255 m 718 1045 q 815 1089 773 1045 q 871 1208 858 1133 l 793 1208 q 766 1142 784 1165 q 726 1120 749 1120 q 691 1135 706 1120 q 659 1170 675 1150 q 620 1205 642 1190 q 564 1221 597 1221 q 464 1179 506 1221 q 408 1058 422 1137 l 487 1058 q 512 1123 494 1100 q 554 1146 531 1146 q 589 1131 574 1146 q 621 1096 604 1116 q 660 1060 637 1076 q 718 1045 683 1045 z "},"Ṓ":{"ha":1029,"x_min":85,"x_max":1002,"o":"m 595 882 q 744 843 681 882 q 842 733 807 804 q 876 564 876 661 q 848 382 876 467 q 770 233 821 298 q 648 133 719 169 q 492 96 578 96 q 343 135 407 96 q 245 246 280 174 q 211 415 211 318 q 239 596 211 512 q 317 745 267 681 q 439 846 368 810 q 595 882 509 882 m 492 -16 q 696 30 604 -16 q 858 156 789 75 q 964 342 926 237 q 1002 568 1002 448 q 951 792 1002 696 q 809 941 901 888 q 595 994 718 994 q 391 949 484 994 q 229 823 298 903 q 123 636 161 742 q 85 411 85 531 q 136 186 85 282 q 278 37 186 90 q 492 -16 370 -16 m 844 1080 l 861 1158 l 431 1158 l 414 1080 l 844 1080 m 616 1241 l 721 1241 l 882 1388 l 762 1388 l 616 1241 z "},"Ỗ":{"ha":1029,"x_min":85,"x_max":1002,"o":"m 595 882 q 744 843 681 882 q 842 733 807 804 q 876 564 876 661 q 848 382 876 467 q 770 233 821 298 q 648 133 719 169 q 492 96 578 96 q 343 135 407 96 q 245 246 280 174 q 211 415 211 318 q 239 596 211 512 q 317 745 267 681 q 439 846 368 810 q 595 882 509 882 m 492 -16 q 696 30 604 -16 q 858 156 789 75 q 964 342 926 237 q 1002 568 1002 448 q 951 792 1002 696 q 809 941 901 888 q 595 994 718 994 q 391 949 484 994 q 229 823 298 903 q 123 636 161 742 q 85 411 85 531 q 136 186 85 282 q 278 37 186 90 q 492 -16 370 -16 m 757 1243 q 854 1282 812 1243 q 907 1392 896 1320 l 828 1392 q 805 1336 821 1354 q 766 1318 788 1318 q 728 1331 745 1318 q 694 1360 711 1343 q 655 1390 677 1377 q 600 1402 633 1402 q 502 1365 543 1402 q 449 1255 460 1328 l 528 1255 q 550 1310 532 1291 q 591 1328 568 1328 q 628 1315 612 1328 q 661 1285 644 1302 q 701 1256 678 1269 q 757 1243 724 1243 m 602 1213 l 375 1044 l 501 1044 l 647 1153 l 651 1153 l 751 1044 l 861 1044 l 705 1213 l 602 1213 z "},"Ȱ":{"ha":1029,"x_min":85,"x_max":1002,"o":"m 595 882 q 744 843 681 882 q 842 733 807 804 q 876 564 876 661 q 848 382 876 467 q 770 233 821 298 q 648 133 719 169 q 492 96 578 96 q 343 135 407 96 q 245 246 280 174 q 211 415 211 318 q 239 596 211 512 q 317 745 267 681 q 439 846 368 810 q 595 882 509 882 m 492 -16 q 696 30 604 -16 q 858 156 789 75 q 964 342 926 237 q 1002 568 1002 448 q 951 792 1002 696 q 809 941 901 888 q 595 994 718 994 q 391 949 484 994 q 229 823 298 903 q 123 636 161 742 q 85 411 85 531 q 136 186 85 282 q 278 37 186 90 q 492 -16 370 -16 m 644 1069 q 701 1093 677 1069 q 724 1150 724 1117 q 701 1207 724 1184 q 644 1231 677 1231 q 587 1207 610 1231 q 563 1150 563 1184 q 587 1093 563 1117 q 644 1069 610 1069 m 907 1373 l 477 1373 l 459 1295 l 889 1295 l 907 1373 z "},"Ṑ":{"ha":1029,"x_min":85,"x_max":1002,"o":"m 595 882 q 744 843 681 882 q 842 733 807 804 q 876 564 876 661 q 848 382 876 467 q 770 233 821 298 q 648 133 719 169 q 492 96 578 96 q 343 135 407 96 q 245 246 280 174 q 211 415 211 318 q 239 596 211 512 q 317 745 267 681 q 439 846 368 810 q 595 882 509 882 m 492 -16 q 696 30 604 -16 q 858 156 789 75 q 964 342 926 237 q 1002 568 1002 448 q 951 792 1002 696 q 809 941 901 888 q 595 994 718 994 q 391 949 484 994 q 229 823 298 903 q 123 636 161 742 q 85 411 85 531 q 136 186 85 282 q 278 37 186 90 q 492 -16 370 -16 m 844 1080 l 861 1158 l 431 1158 l 414 1080 l 844 1080 m 707 1241 l 625 1388 l 517 1388 l 616 1241 l 707 1241 z "},"Ǒ":{"ha":1029,"x_min":85,"x_max":1002,"o":"m 595 882 q 744 843 681 882 q 842 733 807 804 q 876 564 876 661 q 848 382 876 467 q 770 233 821 298 q 648 133 719 169 q 492 96 578 96 q 343 135 407 96 q 245 246 280 174 q 211 415 211 318 q 239 596 211 512 q 317 745 267 681 q 439 846 368 810 q 595 882 509 882 m 492 -16 q 696 30 604 -16 q 858 156 789 75 q 964 342 926 237 q 1002 568 1002 448 q 951 792 1002 696 q 809 941 901 888 q 595 994 718 994 q 391 949 484 994 q 229 823 298 903 q 123 636 161 742 q 85 411 85 531 q 136 186 85 282 q 278 37 186 90 q 492 -16 370 -16 m 591 1058 l 682 1058 l 897 1260 l 787 1260 l 646 1131 l 642 1131 l 549 1260 l 441 1260 l 591 1058 z "},"Ǿ":{"ha":1029,"x_min":65,"x_max":1023,"o":"m 595 882 q 744 843 681 882 q 842 733 807 804 q 876 564 876 661 q 848 382 876 467 q 770 233 821 298 q 648 133 719 169 q 492 96 578 96 q 343 135 407 96 q 245 246 280 174 q 211 415 211 318 q 239 596 211 512 q 317 745 267 681 q 439 846 368 810 q 595 882 509 882 m 492 -16 q 696 30 604 -16 q 858 156 789 75 q 964 342 926 237 q 1002 568 1002 448 q 951 792 1002 696 q 809 941 901 888 q 595 994 718 994 q 391 949 484 994 q 229 823 298 903 q 123 636 161 742 q 85 411 85 531 q 136 186 85 282 q 278 37 186 90 q 492 -16 370 -16 m 65 96 l 121 27 l 1023 868 l 966 936 l 65 96 m 672 1058 l 848 1254 l 718 1254 l 578 1058 l 672 1058 z "},"Ő":{"ha":1029,"x_min":85,"x_max":1002,"o":"m 595 882 q 744 843 681 882 q 842 733 807 804 q 876 564 876 661 q 848 382 876 467 q 770 233 821 298 q 648 133 719 169 q 492 96 578 96 q 343 135 407 96 q 245 246 280 174 q 211 415 211 318 q 239 596 211 512 q 317 745 267 681 q 439 846 368 810 q 595 882 509 882 m 492 -16 q 696 30 604 -16 q 858 156 789 75 q 964 342 926 237 q 1002 568 1002 448 q 951 792 1002 696 q 809 941 901 888 q 595 994 718 994 q 391 949 484 994 q 229 823 298 903 q 123 636 161 742 q 85 411 85 531 q 136 186 85 282 q 278 37 186 90 q 492 -16 370 -16 m 566 1058 l 690 1254 l 571 1254 l 478 1058 l 566 1058 m 774 1058 l 941 1254 l 811 1254 l 680 1058 l 774 1058 z "},"Ŏ":{"ha":1029,"x_min":85,"x_max":1002,"o":"m 595 882 q 744 843 681 882 q 842 733 807 804 q 876 564 876 661 q 848 382 876 467 q 770 233 821 298 q 648 133 719 169 q 492 96 578 96 q 343 135 407 96 q 245 246 280 174 q 211 415 211 318 q 239 596 211 512 q 317 745 267 681 q 439 846 368 810 q 595 882 509 882 m 492 -16 q 696 30 604 -16 q 858 156 789 75 q 964 342 926 237 q 1002 568 1002 448 q 951 792 1002 696 q 809 941 901 888 q 595 994 718 994 q 391 949 484 994 q 229 823 298 903 q 123 636 161 742 q 85 411 85 531 q 136 186 85 282 q 278 37 186 90 q 492 -16 370 -16 m 637 1046 q 802 1103 739 1046 q 873 1252 865 1160 l 789 1252 q 740 1155 780 1189 q 642 1122 699 1122 q 544 1162 572 1122 q 522 1252 516 1202 l 441 1252 q 441 1186 435 1221 q 470 1119 448 1151 q 533 1066 492 1086 q 637 1046 574 1046 z "},"Ȏ":{"ha":1029,"x_min":85,"x_max":1002,"o":"m 595 882 q 744 843 681 882 q 842 733 807 804 q 876 564 876 661 q 848 382 876 467 q 770 233 821 298 q 648 133 719 169 q 492 96 578 96 q 343 135 407 96 q 245 246 280 174 q 211 415 211 318 q 239 596 211 512 q 317 745 267 681 q 439 846 368 810 q 595 882 509 882 m 492 -16 q 696 30 604 -16 q 858 156 789 75 q 964 342 926 237 q 1002 568 1002 448 q 951 792 1002 696 q 809 941 901 888 q 595 994 718 994 q 391 949 484 994 q 229 823 298 903 q 123 636 161 742 q 85 411 85 531 q 136 186 85 282 q 278 37 186 90 q 492 -16 370 -16 m 636 1252 q 472 1195 534 1252 q 399 1046 409 1137 l 484 1046 q 533 1142 493 1109 q 631 1176 574 1176 q 729 1136 701 1176 q 751 1046 757 1096 l 831 1046 q 832 1112 838 1076 q 803 1179 825 1147 q 740 1232 781 1211 q 636 1252 699 1252 z "},"Ỏ":{"ha":1029,"x_min":85,"x_max":1002,"o":"m 595 882 q 744 843 681 882 q 842 733 807 804 q 876 564 876 661 q 848 382 876 467 q 770 233 821 298 q 648 133 719 169 q 492 96 578 96 q 343 135 407 96 q 245 246 280 174 q 211 415 211 318 q 239 596 211 512 q 317 745 267 681 q 439 846 368 810 q 595 882 509 882 m 492 -16 q 696 30 604 -16 q 858 156 789 75 q 964 342 926 237 q 1002 568 1002 448 q 951 792 1002 696 q 809 941 901 888 q 595 994 718 994 q 391 949 484 994 q 229 823 298 903 q 123 636 161 742 q 85 411 85 531 q 136 186 85 282 q 278 37 186 90 q 492 -16 370 -16 m 530 1183 q 562 1195 543 1191 q 598 1199 581 1199 q 633 1187 618 1199 q 648 1160 648 1175 q 628 1115 648 1135 q 571 1082 609 1095 l 599 1027 q 697 1083 660 1043 q 734 1175 734 1123 q 719 1223 734 1202 q 680 1256 705 1244 q 624 1268 655 1268 q 578 1263 600 1268 q 542 1251 556 1259 l 530 1183 z "},"Ȫ":{"ha":1029,"x_min":85,"x_max":1002,"o":"m 595 882 q 744 843 681 882 q 842 733 807 804 q 876 564 876 661 q 848 382 876 467 q 770 233 821 298 q 648 133 719 169 q 492 96 578 96 q 343 135 407 96 q 245 246 280 174 q 211 415 211 318 q 239 596 211 512 q 317 745 267 681 q 439 846 368 810 q 595 882 509 882 m 492 -16 q 696 30 604 -16 q 858 156 789 75 q 964 342 926 237 q 1002 568 1002 448 q 951 792 1002 696 q 809 941 901 888 q 595 994 718 994 q 391 949 484 994 q 229 823 298 903 q 123 636 161 742 q 85 411 85 531 q 136 186 85 282 q 278 37 186 90 q 492 -16 370 -16 m 519 1198 q 469 1177 490 1198 q 448 1126 448 1156 q 469 1075 448 1096 q 519 1054 490 1054 q 569 1075 549 1054 q 590 1126 590 1096 q 569 1177 590 1156 q 519 1198 549 1198 m 907 1373 l 477 1373 l 460 1295 l 890 1295 l 907 1373 m 760 1198 q 710 1177 730 1198 q 689 1126 689 1156 q 710 1075 689 1096 q 760 1054 730 1054 q 810 1075 789 1054 q 831 1126 831 1096 q 810 1177 831 1156 q 760 1198 789 1198 z "},"Ȭ":{"ha":1029,"x_min":85,"x_max":1002,"o":"m 595 882 q 744 843 681 882 q 842 733 807 804 q 876 564 876 661 q 848 382 876 467 q 770 233 821 298 q 648 133 719 169 q 492 96 578 96 q 343 135 407 96 q 245 246 280 174 q 211 415 211 318 q 239 596 211 512 q 317 745 267 681 q 439 846 368 810 q 595 882 509 882 m 492 -16 q 696 30 604 -16 q 858 156 789 75 q 964 342 926 237 q 1002 568 1002 448 q 951 792 1002 696 q 809 941 901 888 q 595 994 718 994 q 391 949 484 994 q 229 823 298 903 q 123 636 161 742 q 85 411 85 531 q 136 186 85 282 q 278 37 186 90 q 492 -16 370 -16 m 907 1373 l 477 1373 l 459 1295 l 889 1295 l 907 1373 m 718 1045 q 815 1089 773 1045 q 871 1208 858 1133 l 793 1208 q 766 1142 784 1165 q 726 1120 749 1120 q 691 1135 706 1120 q 659 1170 675 1150 q 620 1205 642 1190 q 564 1221 597 1221 q 464 1179 506 1221 q 408 1058 422 1137 l 487 1058 q 512 1123 494 1100 q 554 1146 531 1146 q 589 1131 574 1146 q 621 1096 604 1116 q 660 1060 637 1076 q 718 1045 683 1045 z "},"Ȯ":{"ha":1029,"x_min":85,"x_max":1002,"o":"m 595 882 q 744 843 681 882 q 842 733 807 804 q 876 564 876 661 q 848 382 876 467 q 770 233 821 298 q 648 133 719 169 q 492 96 578 96 q 343 135 407 96 q 245 246 280 174 q 211 415 211 318 q 239 596 211 512 q 317 745 267 681 q 439 846 368 810 q 595 882 509 882 m 492 -16 q 696 30 604 -16 q 858 156 789 75 q 964 342 926 237 q 1002 568 1002 448 q 951 792 1002 696 q 809 941 901 888 q 595 994 718 994 q 391 949 484 994 q 229 823 298 903 q 123 636 161 742 q 85 411 85 531 q 136 186 85 282 q 278 37 186 90 q 492 -16 370 -16 m 647 1090 q 700 1112 678 1090 q 721 1164 721 1134 q 700 1217 721 1196 q 647 1238 678 1238 q 595 1217 616 1238 q 573 1164 573 1196 q 595 1112 573 1134 q 647 1090 616 1090 z "},"Ộ":{"ha":1029,"x_min":85,"x_max":1002,"o":"m 595 882 q 744 843 681 882 q 842 733 807 804 q 876 564 876 661 q 848 382 876 467 q 770 233 821 298 q 648 133 719 169 q 492 96 578 96 q 343 135 407 96 q 245 246 280 174 q 211 415 211 318 q 239 596 211 512 q 317 745 267 681 q 439 846 368 810 q 595 882 509 882 m 492 -16 q 696 30 604 -16 q 858 156 789 75 q 964 342 926 237 q 1002 568 1002 448 q 951 792 1002 696 q 809 941 901 888 q 595 994 718 994 q 391 949 484 994 q 229 823 298 903 q 123 636 161 742 q 85 411 85 531 q 136 186 85 282 q 278 37 186 90 q 492 -16 370 -16 m 705 1260 l 614 1260 l 399 1058 l 509 1058 l 650 1187 l 654 1187 l 747 1058 l 854 1058 l 705 1260 m 456 -241 q 508 -220 487 -241 q 530 -168 530 -198 q 508 -115 530 -136 q 456 -94 487 -94 q 404 -115 425 -94 q 382 -168 382 -136 q 404 -220 382 -198 q 456 -241 425 -241 z "},"Ố":{"ha":1029,"x_min":85,"x_max":1041,"o":"m 595 882 q 744 843 681 882 q 842 733 807 804 q 876 564 876 661 q 848 382 876 467 q 770 233 821 298 q 648 133 719 169 q 492 96 578 96 q 343 135 407 96 q 245 246 280 174 q 211 415 211 318 q 239 596 211 512 q 317 745 267 681 q 439 846 368 810 q 595 882 509 882 m 492 -16 q 696 30 604 -16 q 858 156 789 75 q 964 342 926 237 q 1002 568 1002 448 q 951 792 1002 696 q 809 941 901 888 q 595 994 718 994 q 391 949 484 994 q 229 823 298 903 q 123 636 161 742 q 85 411 85 531 q 136 186 85 282 q 278 37 186 90 q 492 -16 370 -16 m 604 1219 l 375 1044 l 501 1044 l 648 1158 l 652 1158 l 751 1044 l 861 1044 l 707 1219 l 604 1219 m 775 1241 l 880 1241 l 1041 1388 l 920 1388 l 775 1241 z "},"Ṏ":{"ha":1029,"x_min":85,"x_max":1002,"o":"m 595 882 q 744 843 681 882 q 842 733 807 804 q 876 564 876 661 q 848 382 876 467 q 770 233 821 298 q 648 133 719 169 q 492 96 578 96 q 343 135 407 96 q 245 246 280 174 q 211 415 211 318 q 239 596 211 512 q 317 745 267 681 q 439 846 368 810 q 595 882 509 882 m 492 -16 q 696 30 604 -16 q 858 156 789 75 q 964 342 926 237 q 1002 568 1002 448 q 951 792 1002 696 q 809 941 901 888 q 595 994 718 994 q 391 949 484 994 q 229 823 298 903 q 123 636 161 742 q 85 411 85 531 q 136 186 85 282 q 278 37 186 90 q 492 -16 370 -16 m 718 1045 q 815 1089 773 1045 q 871 1208 858 1133 l 793 1208 q 766 1142 784 1165 q 726 1120 749 1120 q 691 1135 706 1120 q 659 1170 675 1150 q 620 1205 642 1190 q 564 1221 597 1221 q 464 1179 506 1221 q 408 1058 422 1137 l 487 1058 q 512 1123 494 1100 q 554 1146 531 1146 q 589 1131 574 1146 q 621 1096 604 1116 q 660 1060 637 1076 q 718 1045 683 1045 m 564 1408 q 513 1387 534 1408 q 492 1336 492 1366 q 513 1285 492 1306 q 564 1264 534 1264 q 613 1285 593 1264 q 634 1336 634 1306 q 613 1387 634 1366 q 564 1408 593 1408 m 804 1408 q 754 1387 774 1408 q 733 1336 733 1366 q 754 1285 733 1306 q 804 1264 774 1264 q 854 1285 833 1264 q 875 1336 875 1306 q 854 1387 875 1366 q 804 1408 833 1408 z "},"Ō":{"ha":1029,"x_min":85,"x_max":1002,"o":"m 595 882 q 744 843 681 882 q 842 733 807 804 q 876 564 876 661 q 848 382 876 467 q 770 233 821 298 q 648 133 719 169 q 492 96 578 96 q 343 135 407 96 q 245 246 280 174 q 211 415 211 318 q 239 596 211 512 q 317 745 267 681 q 439 846 368 810 q 595 882 509 882 m 492 -16 q 696 30 604 -16 q 858 156 789 75 q 964 342 926 237 q 1002 568 1002 448 q 951 792 1002 696 q 809 941 901 888 q 595 994 718 994 q 391 949 484 994 q 229 823 298 903 q 123 636 161 742 q 85 411 85 531 q 136 186 85 282 q 278 37 186 90 q 492 -16 370 -16 m 849 1199 l 459 1199 l 441 1117 l 831 1117 l 849 1199 z "},"Ǫ":{"ha":1029,"x_min":85,"x_max":1002,"o":"m 597 -275 l 614 -195 q 592 -202 604 -200 q 565 -204 579 -204 q 517 -191 534 -204 q 500 -154 500 -178 q 531 -90 500 -123 q 604 -26 562 -56 q 680 22 646 3 q 846 155 773 75 q 960 340 918 235 q 1002 568 1002 444 q 951 792 1002 696 q 809 941 901 888 q 595 994 718 994 q 391 949 484 994 q 229 823 298 903 q 123 636 161 742 q 85 411 85 531 q 136 186 85 282 q 278 37 186 90 q 492 -16 370 -16 q 508 -15 500 -16 q 524 -14 516 -15 l 524 -17 q 426 -100 456 -58 q 395 -188 395 -142 q 430 -261 395 -233 q 522 -290 465 -290 q 567 -286 546 -290 q 597 -275 589 -281 m 876 564 q 848 382 876 467 q 770 233 821 298 q 648 133 719 169 q 492 96 578 96 q 343 135 407 96 q 245 246 280 174 q 211 415 211 318 q 239 596 211 512 q 317 745 267 681 q 439 846 368 810 q 595 882 509 882 q 744 843 681 882 q 842 733 807 804 q 876 564 876 661 z "},"Ǭ":{"ha":1029,"x_min":85,"x_max":1002,"o":"m 597 -275 l 614 -195 q 592 -202 604 -200 q 565 -204 579 -204 q 517 -191 534 -204 q 500 -154 500 -178 q 531 -90 500 -123 q 604 -26 562 -56 q 680 22 646 3 q 846 155 773 75 q 960 340 918 235 q 1002 568 1002 444 q 951 792 1002 696 q 809 941 901 888 q 595 994 718 994 q 391 949 484 994 q 229 823 298 903 q 123 636 161 742 q 85 411 85 531 q 136 186 85 282 q 278 37 186 90 q 492 -16 370 -16 q 508 -15 500 -16 q 524 -14 516 -15 l 524 -17 q 426 -100 456 -58 q 395 -188 395 -142 q 430 -261 395 -233 q 522 -290 465 -290 q 567 -286 546 -290 q 597 -275 589 -281 m 876 564 q 848 382 876 467 q 770 233 821 298 q 648 133 719 169 q 492 96 578 96 q 343 135 407 96 q 245 246 280 174 q 211 415 211 318 q 239 596 211 512 q 317 745 267 681 q 439 846 368 810 q 595 882 509 882 q 744 843 681 882 q 842 733 807 804 q 876 564 876 661 m 849 1199 l 459 1199 l 441 1117 l 831 1117 l 849 1199 z "},"Ơ":{"ha":1029,"x_min":85,"x_max":1101,"o":"m 876 564 q 848 382 876 467 q 770 233 821 298 q 648 133 719 169 q 492 96 578 96 q 343 135 407 96 q 245 246 280 174 q 211 415 211 318 q 239 596 211 512 q 317 745 267 681 q 439 846 368 810 q 595 882 509 882 q 744 843 681 882 q 842 733 807 804 q 876 564 876 661 m 1002 568 q 981 717 1002 646 q 920 842 960 787 l 920 844 q 925 844 923 844 q 930 844 927 844 q 1017 872 979 844 q 1064 948 1055 901 l 1101 1126 l 991 1126 l 964 993 q 940 951 958 964 q 886 938 922 938 q 823 946 851 938 q 765 966 795 955 q 695 986 735 977 q 595 994 654 994 q 391 949 484 994 q 229 823 298 903 q 123 636 161 742 q 85 411 85 531 q 136 186 85 282 q 278 37 186 90 q 492 -16 370 -16 q 696 30 604 -16 q 858 156 789 75 q 964 342 926 237 q 1002 568 1002 448 z "},"Ợ":{"ha":1029,"x_min":85,"x_max":1101,"o":"m 876 564 q 848 382 876 467 q 770 233 821 298 q 648 133 719 169 q 492 96 578 96 q 343 135 407 96 q 245 246 280 174 q 211 415 211 318 q 239 596 211 512 q 317 745 267 681 q 439 846 368 810 q 595 882 509 882 q 744 843 681 882 q 842 733 807 804 q 876 564 876 661 m 1002 568 q 981 717 1002 646 q 920 842 960 787 l 920 844 q 925 844 923 844 q 930 844 927 844 q 1017 872 979 844 q 1064 948 1055 901 l 1101 1126 l 991 1126 l 964 993 q 940 951 958 964 q 886 938 922 938 q 823 946 851 938 q 765 966 795 955 q 695 986 735 977 q 595 994 654 994 q 391 949 484 994 q 229 823 298 903 q 123 636 161 742 q 85 411 85 531 q 136 186 85 282 q 278 37 186 90 q 492 -16 370 -16 q 696 30 604 -16 q 858 156 789 75 q 964 342 926 237 q 1002 568 1002 448 m 456 -241 q 508 -220 487 -241 q 530 -168 530 -198 q 508 -115 530 -136 q 456 -94 487 -94 q 404 -115 425 -94 q 382 -168 382 -136 q 404 -220 382 -198 q 456 -241 425 -241 z "},"Ở":{"ha":1029,"x_min":85,"x_max":1101,"o":"m 876 564 q 848 382 876 467 q 770 233 821 298 q 648 133 719 169 q 492 96 578 96 q 343 135 407 96 q 245 246 280 174 q 211 415 211 318 q 239 596 211 512 q 317 745 267 681 q 439 846 368 810 q 595 882 509 882 q 744 843 681 882 q 842 733 807 804 q 876 564 876 661 m 1002 568 q 981 717 1002 646 q 920 842 960 787 l 920 844 q 925 844 923 844 q 930 844 927 844 q 1017 872 979 844 q 1064 948 1055 901 l 1101 1126 l 991 1126 l 964 993 q 940 951 958 964 q 886 938 922 938 q 823 946 851 938 q 765 966 795 955 q 695 986 735 977 q 595 994 654 994 q 391 949 484 994 q 229 823 298 903 q 123 636 161 742 q 85 411 85 531 q 136 186 85 282 q 278 37 186 90 q 492 -16 370 -16 q 696 30 604 -16 q 858 156 789 75 q 964 342 926 237 q 1002 568 1002 448 m 530 1183 q 562 1195 543 1191 q 598 1199 581 1199 q 633 1187 618 1199 q 648 1160 648 1175 q 628 1115 648 1135 q 571 1082 609 1095 l 599 1027 q 697 1083 660 1043 q 734 1175 734 1123 q 719 1223 734 1202 q 680 1256 705 1244 q 624 1268 655 1268 q 578 1263 600 1268 q 542 1251 556 1259 l 530 1183 z "},"Ỡ":{"ha":1029,"x_min":85,"x_max":1101,"o":"m 876 564 q 848 382 876 467 q 770 233 821 298 q 648 133 719 169 q 492 96 578 96 q 343 135 407 96 q 245 246 280 174 q 211 415 211 318 q 239 596 211 512 q 317 745 267 681 q 439 846 368 810 q 595 882 509 882 q 744 843 681 882 q 842 733 807 804 q 876 564 876 661 m 1002 568 q 981 717 1002 646 q 920 842 960 787 l 920 844 q 925 844 923 844 q 930 844 927 844 q 1017 872 979 844 q 1064 948 1055 901 l 1101 1126 l 991 1126 l 964 993 q 940 951 958 964 q 886 938 922 938 q 823 946 851 938 q 765 966 795 955 q 695 986 735 977 q 595 994 654 994 q 391 949 484 994 q 229 823 298 903 q 123 636 161 742 q 85 411 85 531 q 136 186 85 282 q 278 37 186 90 q 492 -16 370 -16 q 696 30 604 -16 q 858 156 789 75 q 964 342 926 237 q 1002 568 1002 448 m 430 1099 l 517 1099 q 537 1150 525 1133 q 570 1167 549 1167 q 603 1153 589 1167 q 631 1121 616 1139 q 669 1088 646 1102 q 727 1074 691 1074 q 825 1118 790 1074 q 870 1225 860 1162 l 783 1225 q 763 1174 775 1192 q 730 1156 750 1156 q 698 1170 712 1156 q 669 1202 684 1183 q 631 1235 654 1221 q 572 1249 608 1249 q 502 1229 531 1249 q 455 1175 473 1208 q 430 1099 437 1141 z "},"Ờ":{"ha":1029,"x_min":85,"x_max":1101,"o":"m 876 564 q 848 382 876 467 q 770 233 821 298 q 648 133 719 169 q 492 96 578 96 q 343 135 407 96 q 245 246 280 174 q 211 415 211 318 q 239 596 211 512 q 317 745 267 681 q 439 846 368 810 q 595 882 509 882 q 744 843 681 882 q 842 733 807 804 q 876 564 876 661 m 1002 568 q 981 717 1002 646 q 920 842 960 787 l 920 844 q 925 844 923 844 q 930 844 927 844 q 1017 872 979 844 q 1064 948 1055 901 l 1101 1126 l 991 1126 l 964 993 q 940 951 958 964 q 886 938 922 938 q 823 946 851 938 q 765 966 795 955 q 695 986 735 977 q 595 994 654 994 q 391 949 484 994 q 229 823 298 903 q 123 636 161 742 q 85 411 85 531 q 136 186 85 282 q 278 37 186 90 q 492 -16 370 -16 q 696 30 604 -16 q 858 156 789 75 q 964 342 926 237 q 1002 568 1002 448 m 576 1058 l 671 1058 l 614 1254 l 484 1254 l 576 1058 z "},"Ớ":{"ha":1029,"x_min":85,"x_max":1101,"o":"m 876 564 q 848 382 876 467 q 770 233 821 298 q 648 133 719 169 q 492 96 578 96 q 343 135 407 96 q 245 246 280 174 q 211 415 211 318 q 239 596 211 512 q 317 745 267 681 q 439 846 368 810 q 595 882 509 882 q 744 843 681 882 q 842 733 807 804 q 876 564 876 661 m 1002 568 q 981 717 1002 646 q 920 842 960 787 l 920 844 q 925 844 923 844 q 930 844 927 844 q 1017 872 979 844 q 1064 948 1055 901 l 1101 1126 l 991 1126 l 964 993 q 940 951 958 964 q 886 938 922 938 q 823 946 851 938 q 765 966 795 955 q 695 986 735 977 q 595 994 654 994 q 391 949 484 994 q 229 823 298 903 q 123 636 161 742 q 85 411 85 531 q 136 186 85 282 q 278 37 186 90 q 492 -16 370 -16 q 696 30 604 -16 q 858 156 789 75 q 964 342 926 237 q 1002 568 1002 448 m 672 1058 l 848 1254 l 718 1254 l 578 1058 l 672 1058 z "},"P":{"ha":830,"x_min":20,"x_max":852,"o":"m 228 979 l 20 0 l 145 0 l 219 349 l 456 349 q 658 393 568 349 q 800 518 747 437 q 852 714 852 600 q 815 855 852 795 q 713 946 777 914 q 572 979 650 979 l 228 979 m 330 870 l 530 870 q 672 826 619 870 q 725 703 725 783 q 691 570 725 625 q 594 486 656 515 q 448 458 532 458 l 242 458 l 330 870 z "},"Ṗ":{"ha":830,"x_min":20,"x_max":852,"o":"m 228 979 l 20 0 l 145 0 l 219 349 l 456 349 q 658 393 568 349 q 800 518 747 437 q 852 714 852 600 q 815 855 852 795 q 713 946 777 914 q 572 979 650 979 l 228 979 m 330 870 l 530 870 q 672 826 619 870 q 725 703 725 783 q 691 570 725 625 q 594 486 656 515 q 448 458 532 458 l 242 458 l 330 870 m 534 1090 q 587 1112 566 1090 q 608 1164 608 1134 q 587 1217 608 1196 q 534 1238 566 1238 q 482 1217 504 1238 q 460 1164 460 1196 q 482 1112 460 1134 q 534 1090 504 1090 z "},"Ṕ":{"ha":830,"x_min":20,"x_max":852,"o":"m 228 979 l 20 0 l 145 0 l 219 349 l 456 349 q 658 393 568 349 q 800 518 747 437 q 852 714 852 600 q 815 855 852 795 q 713 946 777 914 q 572 979 650 979 l 228 979 m 330 870 l 530 870 q 672 826 619 870 q 725 703 725 783 q 691 570 725 625 q 594 486 656 515 q 448 458 532 458 l 242 458 l 330 870 m 559 1058 l 736 1254 l 605 1254 l 465 1058 l 559 1058 z "},"Q":{"ha":1029,"x_min":85,"x_max":1002,"o":"m 825 -111 l 740 54 q 879 182 820 104 q 969 359 937 260 q 1002 568 1002 458 q 951 792 1002 696 q 809 941 901 888 q 595 994 718 994 q 391 949 484 994 q 229 823 298 903 q 123 636 161 742 q 85 411 85 531 q 136 186 85 282 q 278 37 186 90 q 492 -16 370 -16 q 570 -9 532 -16 q 643 9 608 -3 l 705 -111 l 825 -111 m 492 96 q 343 135 407 96 q 245 246 280 174 q 211 415 211 318 q 239 596 211 512 q 317 745 267 681 q 439 846 368 810 q 595 882 509 882 q 744 843 681 882 q 842 733 807 804 q 876 564 876 661 q 853 398 876 476 q 788 258 831 320 q 688 156 746 196 q 655 218 671 187 q 623 280 640 249 l 503 280 l 591 110 q 543 100 568 103 q 492 96 518 96 z "},"R":{"ha":861,"x_min":20,"x_max":859,"o":"m 20 0 l 145 0 l 227 387 l 475 387 l 474 387 l 603 0 l 732 0 l 595 404 q 736 467 677 421 q 827 579 795 513 q 859 720 859 644 q 825 856 859 798 q 727 946 791 914 q 570 979 663 979 l 228 979 l 20 0 m 330 870 l 564 870 q 685 826 640 870 q 730 708 730 783 q 699 598 730 646 q 612 523 667 550 q 486 496 557 496 l 250 496 l 330 870 z "},"Ř":{"ha":861,"x_min":20,"x_max":859,"o":"m 20 0 l 145 0 l 227 387 l 475 387 l 474 387 l 603 0 l 732 0 l 595 404 q 736 467 677 421 q 827 579 795 513 q 859 720 859 644 q 825 856 859 798 q 727 946 791 914 q 570 979 663 979 l 228 979 l 20 0 m 330 870 l 564 870 q 685 826 640 870 q 730 708 730 783 q 699 598 730 646 q 612 523 667 550 q 486 496 557 496 l 250 496 l 330 870 m 486 1058 l 576 1058 l 791 1260 l 682 1260 l 541 1131 l 536 1131 l 443 1260 l 336 1260 l 486 1058 z "},"Ṟ":{"ha":861,"x_min":20,"x_max":859,"o":"m 20 0 l 145 0 l 227 387 l 475 387 l 474 387 l 603 0 l 732 0 l 595 404 q 736 467 677 421 q 827 579 795 513 q 859 720 859 644 q 825 856 859 798 q 727 946 791 914 q 570 979 663 979 l 228 979 l 20 0 m 330 870 l 564 870 q 685 826 640 870 q 730 708 730 783 q 699 598 730 646 q 612 523 667 550 q 486 496 557 496 l 250 496 l 330 870 m 543 -127 l 153 -127 l 135 -209 l 525 -209 l 543 -127 z "},"Ṝ":{"ha":861,"x_min":20,"x_max":859,"o":"m 20 0 l 145 0 l 227 387 l 475 387 l 474 387 l 603 0 l 732 0 l 595 404 q 736 467 677 421 q 827 579 795 513 q 859 720 859 644 q 825 856 859 798 q 727 946 791 914 q 570 979 663 979 l 228 979 l 20 0 m 330 870 l 564 870 q 685 826 640 870 q 730 708 730 783 q 699 598 730 646 q 612 523 667 550 q 486 496 557 496 l 250 496 l 330 870 m 339 -241 q 392 -220 370 -241 q 413 -168 413 -198 q 392 -115 413 -136 q 339 -94 370 -94 q 287 -115 309 -94 q 265 -168 265 -136 q 287 -220 265 -198 q 339 -241 309 -241 m 743 1199 l 353 1199 l 336 1117 l 726 1117 l 743 1199 z "},"Ȑ":{"ha":861,"x_min":20,"x_max":859,"o":"m 20 0 l 145 0 l 227 387 l 475 387 l 474 387 l 603 0 l 732 0 l 595 404 q 736 467 677 421 q 827 579 795 513 q 859 720 859 644 q 825 856 859 798 q 727 946 791 914 q 570 979 663 979 l 228 979 l 20 0 m 330 870 l 564 870 q 685 826 640 870 q 730 708 730 783 q 699 598 730 646 q 612 523 667 550 q 486 496 557 496 l 250 496 l 330 870 m 577 1058 l 665 1058 l 655 1254 l 536 1254 l 577 1058 m 368 1058 l 463 1058 l 415 1254 l 285 1254 l 368 1058 z "},"Ȓ":{"ha":861,"x_min":20,"x_max":859,"o":"m 20 0 l 145 0 l 227 387 l 475 387 l 474 387 l 603 0 l 732 0 l 595 404 q 736 467 677 421 q 827 579 795 513 q 859 720 859 644 q 825 856 859 798 q 727 946 791 914 q 570 979 663 979 l 228 979 l 20 0 m 330 870 l 564 870 q 685 826 640 870 q 730 708 730 783 q 699 598 730 646 q 612 523 667 550 q 486 496 557 496 l 250 496 l 330 870 m 530 1252 q 366 1195 429 1252 q 294 1046 303 1137 l 378 1046 q 428 1142 387 1109 q 526 1176 468 1176 q 623 1136 595 1176 q 645 1046 651 1096 l 726 1046 q 726 1112 732 1076 q 697 1179 720 1147 q 634 1232 675 1211 q 530 1252 593 1252 z "},"Ŕ":{"ha":861,"x_min":20,"x_max":859,"o":"m 20 0 l 145 0 l 227 387 l 475 387 l 474 387 l 603 0 l 732 0 l 595 404 q 736 467 677 421 q 827 579 795 513 q 859 720 859 644 q 825 856 859 798 q 727 946 791 914 q 570 979 663 979 l 228 979 l 20 0 m 330 870 l 564 870 q 685 826 640 870 q 730 708 730 783 q 699 598 730 646 q 612 523 667 550 q 486 496 557 496 l 250 496 l 330 870 m 566 1058 l 743 1254 l 612 1254 l 472 1058 l 566 1058 z "},"Ṛ":{"ha":861,"x_min":20,"x_max":859,"o":"m 20 0 l 145 0 l 227 387 l 475 387 l 474 387 l 603 0 l 732 0 l 595 404 q 736 467 677 421 q 827 579 795 513 q 859 720 859 644 q 825 856 859 798 q 727 946 791 914 q 570 979 663 979 l 228 979 l 20 0 m 330 870 l 564 870 q 685 826 640 870 q 730 708 730 783 q 699 598 730 646 q 612 523 667 550 q 486 496 557 496 l 250 496 l 330 870 m 339 -241 q 392 -220 370 -241 q 413 -168 413 -198 q 392 -115 413 -136 q 339 -94 370 -94 q 287 -115 309 -94 q 265 -168 265 -136 q 287 -220 265 -198 q 339 -241 309 -241 z "},"Ṙ":{"ha":861,"x_min":20,"x_max":859,"o":"m 20 0 l 145 0 l 227 387 l 475 387 l 474 387 l 603 0 l 732 0 l 595 404 q 736 467 677 421 q 827 579 795 513 q 859 720 859 644 q 825 856 859 798 q 727 946 791 914 q 570 979 663 979 l 228 979 l 20 0 m 330 870 l 564 870 q 685 826 640 870 q 730 708 730 783 q 699 598 730 646 q 612 523 667 550 q 486 496 557 496 l 250 496 l 330 870 m 541 1090 q 594 1112 572 1090 q 615 1164 615 1134 q 594 1217 615 1196 q 541 1238 572 1238 q 489 1217 511 1238 q 467 1164 467 1196 q 489 1112 467 1134 q 541 1090 511 1090 z "},"Ŗ":{"ha":861,"x_min":20,"x_max":859,"o":"m 20 0 l 145 0 l 227 387 l 475 387 l 474 387 l 603 0 l 732 0 l 595 404 q 736 467 677 421 q 827 579 795 513 q 859 720 859 644 q 825 856 859 798 q 727 946 791 914 q 570 979 663 979 l 228 979 l 20 0 m 330 870 l 564 870 q 685 826 640 870 q 730 708 730 783 q 699 598 730 646 q 612 523 667 550 q 486 496 557 496 l 250 496 l 330 870 m 296 -330 l 413 -86 l 310 -86 l 206 -330 l 296 -330 z "},"S":{"ha":832,"x_min":33,"x_max":840,"o":"m 33 288 q 89 125 37 193 q 226 21 141 57 q 413 -16 311 -16 q 607 28 529 -16 q 725 141 686 72 q 765 287 765 210 q 703 443 765 380 q 519 543 642 505 l 454 564 q 325 629 366 591 q 283 723 283 667 q 307 801 283 764 q 377 861 330 838 q 494 884 425 884 q 612 862 563 884 q 688 801 661 840 q 718 711 715 762 l 840 711 q 795 862 840 799 q 673 960 751 926 q 496 994 595 994 q 320 959 396 994 q 200 861 243 924 q 157 713 157 798 q 217 552 157 614 q 399 452 277 490 l 464 432 q 596 366 555 404 q 637 261 637 328 q 607 171 637 208 q 528 114 578 134 q 414 95 477 95 q 285 119 340 95 q 196 187 229 144 q 156 288 163 231 l 33 288 z "},"Š":{"ha":832,"x_min":33,"x_max":840,"o":"m 33 288 q 89 125 37 193 q 226 21 141 57 q 413 -16 311 -16 q 607 28 529 -16 q 725 141 686 72 q 765 287 765 210 q 703 443 765 380 q 519 543 642 505 l 454 564 q 325 629 366 591 q 283 723 283 667 q 307 801 283 764 q 377 861 330 838 q 494 884 425 884 q 612 862 563 884 q 688 801 661 840 q 718 711 715 762 l 840 711 q 795 862 840 799 q 673 960 751 926 q 496 994 595 994 q 320 959 396 994 q 200 861 243 924 q 157 713 157 798 q 217 552 157 614 q 399 452 277 490 l 464 432 q 596 366 555 404 q 637 261 637 328 q 607 171 637 208 q 528 114 578 134 q 414 95 477 95 q 285 119 340 95 q 196 187 229 144 q 156 288 163 231 l 33 288 m 517 1058 l 608 1058 l 823 1260 l 713 1260 l 572 1131 l 568 1131 l 474 1260 l 367 1260 l 517 1058 z "},"Ş":{"ha":832,"x_min":33,"x_max":840,"o":"m 33 288 q 89 125 37 193 q 226 21 141 57 q 413 -16 311 -16 q 607 28 529 -16 q 725 141 686 72 q 765 287 765 210 q 703 443 765 380 q 519 543 642 505 l 454 564 q 325 629 366 591 q 283 723 283 667 q 307 801 283 764 q 377 861 330 838 q 494 884 425 884 q 612 862 563 884 q 688 801 661 840 q 718 711 715 762 l 840 711 q 795 862 840 799 q 673 960 751 926 q 496 994 595 994 q 320 959 396 994 q 200 861 243 924 q 157 713 157 798 q 217 552 157 614 q 399 452 277 490 l 464 432 q 596 366 555 404 q 637 261 637 328 q 607 171 637 208 q 528 114 578 134 q 414 95 477 95 q 285 119 340 95 q 196 187 229 144 q 156 288 163 231 l 33 288 m 244 -296 q 293 -307 267 -303 q 346 -311 319 -311 q 467 -283 416 -311 q 518 -192 518 -255 q 482 -112 518 -138 q 401 -86 446 -86 l 455 0 l 455 15 l 369 15 l 300 -94 l 288 -152 l 328 -152 q 390 -162 368 -152 q 413 -195 413 -172 q 388 -225 413 -217 q 334 -233 363 -233 q 292 -230 311 -233 q 261 -222 274 -227 l 244 -296 z "},"Ṡ":{"ha":832,"x_min":33,"x_max":840,"o":"m 33 288 q 89 125 37 193 q 226 21 141 57 q 413 -16 311 -16 q 607 28 529 -16 q 725 141 686 72 q 765 287 765 210 q 703 443 765 380 q 519 543 642 505 l 454 564 q 325 629 366 591 q 283 723 283 667 q 307 801 283 764 q 377 861 330 838 q 494 884 425 884 q 612 862 563 884 q 688 801 661 840 q 718 711 715 762 l 840 711 q 795 862 840 799 q 673 960 751 926 q 496 994 595 994 q 320 959 396 994 q 200 861 243 924 q 157 713 157 798 q 217 552 157 614 q 399 452 277 490 l 464 432 q 596 366 555 404 q 637 261 637 328 q 607 171 637 208 q 528 114 578 134 q 414 95 477 95 q 285 119 340 95 q 196 187 229 144 q 156 288 163 231 l 33 288 m 572 1090 q 625 1112 604 1090 q 646 1164 646 1134 q 625 1217 646 1196 q 572 1238 604 1238 q 520 1217 542 1238 q 498 1164 498 1196 q 520 1112 498 1134 q 572 1090 542 1090 z "},"Ṣ":{"ha":832,"x_min":33,"x_max":840,"o":"m 33 288 q 89 125 37 193 q 226 21 141 57 q 413 -16 311 -16 q 607 28 529 -16 q 725 141 686 72 q 765 287 765 210 q 703 443 765 380 q 519 543 642 505 l 454 564 q 325 629 366 591 q 283 723 283 667 q 307 801 283 764 q 377 861 330 838 q 494 884 425 884 q 612 862 563 884 q 688 801 661 840 q 718 711 715 762 l 840 711 q 795 862 840 799 q 673 960 751 926 q 496 994 595 994 q 320 959 396 994 q 200 861 243 924 q 157 713 157 798 q 217 552 157 614 q 399 452 277 490 l 464 432 q 596 366 555 404 q 637 261 637 328 q 607 171 637 208 q 528 114 578 134 q 414 95 477 95 q 285 119 340 95 q 196 187 229 144 q 156 288 163 231 l 33 288 m 364 -241 q 417 -220 395 -241 q 438 -168 438 -198 q 417 -115 438 -136 q 364 -94 395 -94 q 312 -115 334 -94 q 290 -168 290 -136 q 312 -220 290 -198 q 364 -241 334 -241 z "},"Ș":{"ha":832,"x_min":33,"x_max":840,"o":"m 33 288 q 89 125 37 193 q 226 21 141 57 q 413 -16 311 -16 q 607 28 529 -16 q 725 141 686 72 q 765 287 765 210 q 703 443 765 380 q 519 543 642 505 l 454 564 q 325 629 366 591 q 283 723 283 667 q 307 801 283 764 q 377 861 330 838 q 494 884 425 884 q 612 862 563 884 q 688 801 661 840 q 718 711 715 762 l 840 711 q 795 862 840 799 q 673 960 751 926 q 496 994 595 994 q 320 959 396 994 q 200 861 243 924 q 157 713 157 798 q 217 552 157 614 q 399 452 277 490 l 464 432 q 596 366 555 404 q 637 261 637 328 q 607 171 637 208 q 528 114 578 134 q 414 95 477 95 q 285 119 340 95 q 196 187 229 144 q 156 288 163 231 l 33 288 m 321 -330 l 438 -86 l 335 -86 l 231 -330 l 321 -330 z "},"Ṩ":{"ha":832,"x_min":33,"x_max":840,"o":"m 33 288 q 89 125 37 193 q 226 21 141 57 q 413 -16 311 -16 q 607 28 529 -16 q 725 141 686 72 q 765 287 765 210 q 703 443 765 380 q 519 543 642 505 l 454 564 q 325 629 366 591 q 283 723 283 667 q 307 801 283 764 q 377 861 330 838 q 494 884 425 884 q 612 862 563 884 q 688 801 661 840 q 718 711 715 762 l 840 711 q 795 862 840 799 q 673 960 751 926 q 496 994 595 994 q 320 959 396 994 q 200 861 243 924 q 157 713 157 798 q 217 552 157 614 q 399 452 277 490 l 464 432 q 596 366 555 404 q 637 261 637 328 q 607 171 637 208 q 528 114 578 134 q 414 95 477 95 q 285 119 340 95 q 196 187 229 144 q 156 288 163 231 l 33 288 m 364 -241 q 417 -220 395 -241 q 438 -168 438 -198 q 417 -115 438 -136 q 364 -94 395 -94 q 312 -115 334 -94 q 290 -168 290 -136 q 312 -220 290 -198 q 364 -241 334 -241 m 572 1090 q 625 1112 604 1090 q 646 1164 646 1134 q 625 1217 646 1196 q 572 1238 604 1238 q 520 1217 542 1238 q 498 1164 498 1196 q 520 1112 498 1134 q 572 1090 542 1090 z "},"Ṧ":{"ha":832,"x_min":33,"x_max":840,"o":"m 33 288 q 89 125 37 193 q 226 21 141 57 q 413 -16 311 -16 q 607 28 529 -16 q 725 141 686 72 q 765 287 765 210 q 703 443 765 380 q 519 543 642 505 l 454 564 q 325 629 366 591 q 283 723 283 667 q 307 801 283 764 q 377 861 330 838 q 494 884 425 884 q 612 862 563 884 q 688 801 661 840 q 718 711 715 762 l 840 711 q 795 862 840 799 q 673 960 751 926 q 496 994 595 994 q 320 959 396 994 q 200 861 243 924 q 157 713 157 798 q 217 552 157 614 q 399 452 277 490 l 464 432 q 596 366 555 404 q 637 261 637 328 q 607 171 637 208 q 528 114 578 134 q 414 95 477 95 q 285 119 340 95 q 196 187 229 144 q 156 288 163 231 l 33 288 m 492 1044 l 595 1044 l 823 1219 l 696 1219 l 549 1105 l 545 1105 l 447 1219 l 338 1219 l 492 1044 m 584 1244 q 636 1265 615 1244 q 658 1318 658 1287 q 636 1371 658 1350 q 584 1392 615 1392 q 531 1371 553 1392 q 510 1318 510 1350 q 531 1265 510 1287 q 584 1244 553 1244 z "},"Ŝ":{"ha":832,"x_min":33,"x_max":840,"o":"m 33 288 q 89 125 37 193 q 226 21 141 57 q 413 -16 311 -16 q 607 28 529 -16 q 725 141 686 72 q 765 287 765 210 q 703 443 765 380 q 519 543 642 505 l 454 564 q 325 629 366 591 q 283 723 283 667 q 307 801 283 764 q 377 861 330 838 q 494 884 425 884 q 612 862 563 884 q 688 801 661 840 q 718 711 715 762 l 840 711 q 795 862 840 799 q 673 960 751 926 q 496 994 595 994 q 320 959 396 994 q 200 861 243 924 q 157 713 157 798 q 217 552 157 614 q 399 452 277 490 l 464 432 q 596 366 555 404 q 637 261 637 328 q 607 171 637 208 q 528 114 578 134 q 414 95 477 95 q 285 119 340 95 q 196 187 229 144 q 156 288 163 231 l 33 288 m 630 1260 l 539 1260 l 324 1058 l 434 1058 l 575 1187 l 579 1187 l 673 1058 l 780 1058 l 630 1260 z "},"Ṥ":{"ha":832,"x_min":33,"x_max":850,"o":"m 33 288 q 89 125 37 193 q 226 21 141 57 q 413 -16 311 -16 q 607 28 529 -16 q 725 141 686 72 q 765 287 765 210 q 703 443 765 380 q 519 543 642 505 l 454 564 q 325 629 366 591 q 283 723 283 667 q 307 801 283 764 q 377 861 330 838 q 494 884 425 884 q 612 862 563 884 q 688 801 661 840 q 718 711 715 762 l 840 711 q 795 862 840 799 q 673 960 751 926 q 496 994 595 994 q 320 959 396 994 q 200 861 243 924 q 157 713 157 798 q 217 552 157 614 q 399 452 277 490 l 464 432 q 596 366 555 404 q 637 261 637 328 q 607 171 637 208 q 528 114 578 134 q 414 95 477 95 q 285 119 340 95 q 196 187 229 144 q 156 288 163 231 l 33 288 z "},"Ś":{"ha":832,"x_min":33,"x_max":840,"o":"m 33 288 q 89 125 37 193 q 226 21 141 57 q 413 -16 311 -16 q 607 28 529 -16 q 725 141 686 72 q 765 287 765 210 q 703 443 765 380 q 519 543 642 505 l 454 564 q 325 629 366 591 q 283 723 283 667 q 307 801 283 764 q 377 861 330 838 q 494 884 425 884 q 612 862 563 884 q 688 801 661 840 q 718 711 715 762 l 840 711 q 795 862 840 799 q 673 960 751 926 q 496 994 595 994 q 320 959 396 994 q 200 861 243 924 q 157 713 157 798 q 217 552 157 614 q 399 452 277 490 l 464 432 q 596 366 555 404 q 637 261 637 328 q 607 171 637 208 q 528 114 578 134 q 414 95 477 95 q 285 119 340 95 q 196 187 229 144 q 156 288 163 231 l 33 288 m 597 1058 l 774 1254 l 643 1254 l 503 1058 l 597 1058 z "},"ẞ":{"ha":962,"x_min":20,"x_max":969,"o":"m 142 0 l 274 621 q 336 764 292 705 q 448 853 380 823 q 603 882 515 883 q 759 857 688 882 q 890 785 830 833 l 857 848 l 531 564 l 511 467 l 576 457 q 689 422 646 447 q 751 361 732 397 q 770 279 770 324 q 742 185 770 227 q 665 120 713 144 q 555 96 616 96 q 446 109 498 96 q 350 149 394 122 l 323 27 q 431 -5 372 7 q 548 -17 490 -17 q 728 24 650 -17 q 852 136 807 64 q 897 300 897 208 q 872 414 897 363 q 794 499 846 465 q 662 548 742 534 l 605 558 l 597 489 l 950 794 l 969 885 q 874 941 930 916 q 749 980 818 966 q 603 995 681 995 q 397 956 489 995 q 243 836 305 916 q 155 633 180 755 l 20 0 l 142 0 z "},"T":{"ha":821,"x_min":144,"x_max":920,"o":"m 398 0 l 583 869 l 897 869 l 920 979 l 167 979 l 144 869 l 458 869 l 273 0 l 398 0 z "},"Ṱ":{"ha":821,"x_min":65,"x_max":920,"o":"m 398 0 l 583 869 l 897 869 l 920 979 l 167 979 l 144 869 l 458 869 l 273 0 l 398 0 m 357 -86 l 267 -86 l 65 -290 l 175 -290 l 302 -161 l 307 -161 l 387 -290 l 494 -290 l 357 -86 z "},"Ṭ":{"ha":821,"x_min":144,"x_max":920,"o":"m 398 0 l 583 869 l 897 869 l 920 979 l 167 979 l 144 869 l 458 869 l 273 0 l 398 0 m 303 -241 q 356 -220 334 -241 q 377 -168 377 -198 q 356 -115 377 -136 q 303 -94 334 -94 q 251 -115 273 -94 q 229 -168 229 -136 q 251 -220 229 -198 q 303 -241 273 -241 z "},"Ț":{"ha":821,"x_min":144,"x_max":920,"o":"m 398 0 l 583 869 l 897 869 l 920 979 l 167 979 l 144 869 l 458 869 l 273 0 l 398 0 m 260 -330 l 377 -86 l 274 -86 l 170 -330 l 260 -330 z "},"Ṫ":{"ha":821,"x_min":144,"x_max":920,"o":"m 398 0 l 583 869 l 897 869 l 920 979 l 167 979 l 144 869 l 458 869 l 273 0 l 398 0 m 585 1090 q 638 1112 616 1090 q 659 1164 659 1134 q 638 1217 659 1196 q 585 1238 616 1238 q 533 1217 555 1238 q 511 1164 511 1196 q 533 1112 511 1134 q 585 1090 555 1090 z "},"Ţ":{"ha":821,"x_min":144,"x_max":920,"o":"m 187 -296 q 236 -307 210 -303 q 289 -311 262 -311 q 410 -283 359 -311 q 461 -192 461 -255 q 425 -112 461 -138 q 344 -86 389 -86 l 398 0 l 398 15 l 312 15 l 243 -94 l 231 -152 l 271 -152 q 333 -162 311 -152 q 356 -195 356 -172 q 331 -225 356 -217 q 277 -233 306 -233 q 235 -230 254 -233 q 204 -222 217 -227 l 187 -296 m 398 0 l 583 869 l 897 869 l 920 979 l 167 979 l 144 869 l 458 869 l 273 0 l 398 0 z "},"Ṯ":{"ha":821,"x_min":99,"x_max":920,"o":"m 398 0 l 583 869 l 897 869 l 920 979 l 167 979 l 144 869 l 458 869 l 273 0 l 398 0 m 507 -127 l 117 -127 l 99 -209 l 489 -209 l 507 -127 z "},"Ť":{"ha":821,"x_min":144,"x_max":920,"o":"m 398 0 l 583 869 l 897 869 l 920 979 l 167 979 l 144 869 l 458 869 l 273 0 l 398 0 m 530 1058 l 621 1058 l 836 1260 l 726 1260 l 585 1131 l 581 1131 l 487 1260 l 380 1260 l 530 1058 z "},"Ŧ":{"ha":821,"x_min":144,"x_max":920,"o":"m 146 442 l 711 442 l 731 538 l 166 538 l 146 442 m 398 0 l 583 869 l 897 869 l 920 979 l 167 979 l 144 869 l 458 869 l 273 0 l 398 0 z "},"U":{"ha":970,"x_min":92,"x_max":1008,"o":"m 434 -16 q 645 24 557 -16 q 789 138 734 64 q 867 317 844 212 l 1008 979 l 883 979 l 747 340 q 689 210 730 264 q 588 126 648 155 q 456 97 528 97 q 326 121 378 97 q 248 190 275 146 q 219 294 222 235 q 221 338 218 315 q 228 385 223 361 l 353 979 l 228 979 l 102 376 q 95 332 97 354 q 93 288 92 310 q 133 135 94 203 q 248 25 172 66 q 434 -16 323 -16 z "},"Ù":{"ha":970,"x_min":92,"x_max":1008,"o":"m 434 -16 q 645 24 557 -16 q 789 138 734 64 q 867 317 844 212 l 1008 979 l 883 979 l 747 340 q 689 210 730 264 q 588 126 648 155 q 456 97 528 97 q 326 121 378 97 q 248 190 275 146 q 219 294 222 235 q 221 338 218 315 q 228 385 223 361 l 353 979 l 228 979 l 102 376 q 95 332 97 354 q 93 288 92 310 q 133 135 94 203 q 248 25 172 66 q 434 -16 323 -16 m 576 1058 l 671 1058 l 614 1254 l 484 1254 l 576 1058 z "},"Ȕ":{"ha":970,"x_min":92,"x_max":1008,"o":"m 434 -16 q 645 24 557 -16 q 789 138 734 64 q 867 317 844 212 l 1008 979 l 883 979 l 747 340 q 689 210 730 264 q 588 126 648 155 q 456 97 528 97 q 326 121 378 97 q 248 190 275 146 q 219 294 222 235 q 221 338 218 315 q 228 385 223 361 l 353 979 l 228 979 l 102 376 q 95 332 97 354 q 93 288 92 310 q 133 135 94 203 q 248 25 172 66 q 434 -16 323 -16 m 683 1058 l 770 1058 l 761 1254 l 642 1254 l 683 1058 m 474 1058 l 568 1058 l 521 1254 l 391 1254 l 474 1058 z "},"Ú":{"ha":970,"x_min":92,"x_max":1008,"o":"m 434 -16 q 645 24 557 -16 q 789 138 734 64 q 867 317 844 212 l 1008 979 l 883 979 l 747 340 q 689 210 730 264 q 588 126 648 155 q 456 97 528 97 q 326 121 378 97 q 248 190 275 146 q 219 294 222 235 q 221 338 218 315 q 228 385 223 361 l 353 979 l 228 979 l 102 376 q 95 332 97 354 q 93 288 92 310 q 133 135 94 203 q 248 25 172 66 q 434 -16 323 -16 m 672 1058 l 848 1254 l 718 1254 l 578 1058 l 672 1058 z "},"Ű":{"ha":970,"x_min":92,"x_max":1008,"o":"m 434 -16 q 645 24 557 -16 q 789 138 734 64 q 867 317 844 212 l 1008 979 l 883 979 l 747 340 q 689 210 730 264 q 588 126 648 155 q 456 97 528 97 q 326 121 378 97 q 248 190 275 146 q 219 294 222 235 q 221 338 218 315 q 228 385 223 361 l 353 979 l 228 979 l 102 376 q 95 332 97 354 q 93 288 92 310 q 133 135 94 203 q 248 25 172 66 q 434 -16 323 -16 m 566 1058 l 690 1254 l 571 1254 l 478 1058 l 566 1058 m 774 1058 l 941 1254 l 811 1254 l 680 1058 l 774 1058 z "},"Û":{"ha":970,"x_min":92,"x_max":1008,"o":"m 434 -16 q 645 24 557 -16 q 789 138 734 64 q 867 317 844 212 l 1008 979 l 883 979 l 747 340 q 689 210 730 264 q 588 126 648 155 q 456 97 528 97 q 326 121 378 97 q 248 190 275 146 q 219 294 222 235 q 221 338 218 315 q 228 385 223 361 l 353 979 l 228 979 l 102 376 q 95 332 97 354 q 93 288 92 310 q 133 135 94 203 q 248 25 172 66 q 434 -16 323 -16 m 705 1260 l 614 1260 l 399 1058 l 509 1058 l 650 1187 l 654 1187 l 747 1058 l 854 1058 l 705 1260 z "},"Ǔ":{"ha":970,"x_min":92,"x_max":1008,"o":"m 434 -16 q 645 24 557 -16 q 789 138 734 64 q 867 317 844 212 l 1008 979 l 883 979 l 747 340 q 689 210 730 264 q 588 126 648 155 q 456 97 528 97 q 326 121 378 97 q 248 190 275 146 q 219 294 222 235 q 221 338 218 315 q 228 385 223 361 l 353 979 l 228 979 l 102 376 q 95 332 97 354 q 93 288 92 310 q 133 135 94 203 q 248 25 172 66 q 434 -16 323 -16 m 591 1058 l 682 1058 l 897 1260 l 787 1260 l 646 1131 l 642 1131 l 549 1260 l 441 1260 l 591 1058 z "},"Ṷ":{"ha":970,"x_min":92,"x_max":1008,"o":"m 434 -16 q 645 24 557 -16 q 789 138 734 64 q 867 317 844 212 l 1008 979 l 883 979 l 747 340 q 689 210 730 264 q 588 126 648 155 q 456 97 528 97 q 326 121 378 97 q 248 190 275 146 q 219 294 222 235 q 221 338 218 315 q 228 385 223 361 l 353 979 l 228 979 l 102 376 q 95 332 97 354 q 93 288 92 310 q 133 135 94 203 q 248 25 172 66 q 434 -16 323 -16 m 429 -86 l 338 -86 l 136 -290 l 246 -290 l 374 -161 l 378 -161 l 458 -290 l 565 -290 l 429 -86 z "},"Ü":{"ha":970,"x_min":92,"x_max":1008,"o":"m 434 -16 q 645 24 557 -16 q 789 138 734 64 q 867 317 844 212 l 1008 979 l 883 979 l 747 340 q 689 210 730 264 q 588 126 648 155 q 456 97 528 97 q 326 121 378 97 q 248 190 275 146 q 219 294 222 235 q 221 338 218 315 q 228 385 223 361 l 353 979 l 228 979 l 102 376 q 95 332 97 354 q 93 288 92 310 q 133 135 94 203 q 248 25 172 66 q 434 -16 323 -16 m 520 1090 q 573 1112 551 1090 q 594 1164 594 1134 q 573 1217 594 1196 q 520 1238 551 1238 q 468 1217 490 1238 q 446 1164 446 1196 q 468 1112 446 1134 q 520 1090 490 1090 m 774 1090 q 826 1112 805 1090 q 848 1164 848 1134 q 826 1217 848 1196 q 774 1238 805 1238 q 722 1217 743 1238 q 700 1164 700 1196 q 722 1112 700 1134 q 774 1090 743 1090 z "},"Ǜ":{"ha":970,"x_min":92,"x_max":1008,"o":"m 434 -16 q 645 24 557 -16 q 789 138 734 64 q 867 317 844 212 l 1008 979 l 883 979 l 747 340 q 689 210 730 264 q 588 126 648 155 q 456 97 528 97 q 326 121 378 97 q 248 190 275 146 q 219 294 222 235 q 221 338 218 315 q 228 385 223 361 l 353 979 l 228 979 l 102 376 q 95 332 97 354 q 93 288 92 310 q 133 135 94 203 q 248 25 172 66 q 434 -16 323 -16 m 722 1241 l 640 1388 l 532 1388 l 631 1241 l 722 1241 m 519 1054 q 569 1075 549 1054 q 590 1126 590 1096 q 569 1177 590 1156 q 519 1198 549 1198 q 469 1177 490 1198 q 448 1126 448 1156 q 469 1075 448 1096 q 519 1054 490 1054 m 760 1054 q 810 1075 789 1054 q 831 1126 831 1096 q 810 1177 831 1156 q 760 1198 789 1198 q 710 1177 730 1198 q 689 1126 689 1156 q 710 1075 689 1096 q 760 1054 730 1054 z "},"Ǘ":{"ha":970,"x_min":92,"x_max":1008,"o":"m 434 -16 q 645 24 557 -16 q 789 138 734 64 q 867 317 844 212 l 1008 979 l 883 979 l 747 340 q 689 210 730 264 q 588 126 648 155 q 456 97 528 97 q 326 121 378 97 q 248 190 275 146 q 219 294 222 235 q 221 338 218 315 q 228 385 223 361 l 353 979 l 228 979 l 102 376 q 95 332 97 354 q 93 288 92 310 q 133 135 94 203 q 248 25 172 66 q 434 -16 323 -16 m 599 1241 l 703 1241 l 865 1388 l 744 1388 l 599 1241 m 519 1054 q 569 1075 549 1054 q 590 1126 590 1096 q 569 1177 590 1156 q 519 1198 549 1198 q 469 1177 490 1198 q 448 1126 448 1156 q 469 1075 448 1096 q 519 1054 490 1054 m 760 1054 q 810 1075 789 1054 q 831 1126 831 1096 q 810 1177 831 1156 q 760 1198 789 1198 q 710 1177 730 1198 q 689 1126 689 1156 q 710 1075 689 1096 q 760 1054 730 1054 z "},"Ǖ":{"ha":970,"x_min":92,"x_max":1008,"o":"m 434 -16 q 645 24 557 -16 q 789 138 734 64 q 867 317 844 212 l 1008 979 l 883 979 l 747 340 q 689 210 730 264 q 588 126 648 155 q 456 97 528 97 q 326 121 378 97 q 248 190 275 146 q 219 294 222 235 q 221 338 218 315 q 228 385 223 361 l 353 979 l 228 979 l 102 376 q 95 332 97 354 q 93 288 92 310 q 133 135 94 203 q 248 25 172 66 q 434 -16 323 -16 m 519 1198 q 469 1177 490 1198 q 448 1126 448 1156 q 469 1075 448 1096 q 519 1054 490 1054 q 569 1075 549 1054 q 590 1126 590 1096 q 569 1177 590 1156 q 519 1198 549 1198 m 907 1373 l 477 1373 l 460 1295 l 890 1295 l 907 1373 m 760 1198 q 710 1177 730 1198 q 689 1126 689 1156 q 710 1075 689 1096 q 760 1054 730 1054 q 810 1075 789 1054 q 831 1126 831 1096 q 810 1177 831 1156 q 760 1198 789 1198 z "},"Ǚ":{"ha":970,"x_min":92,"x_max":1008,"o":"m 434 -16 q 645 24 557 -16 q 789 138 734 64 q 867 317 844 212 l 1008 979 l 883 979 l 747 340 q 689 210 730 264 q 588 126 648 155 q 456 97 528 97 q 326 121 378 97 q 248 190 275 146 q 219 294 222 235 q 221 338 218 315 q 228 385 223 361 l 353 979 l 228 979 l 102 376 q 95 332 97 354 q 93 288 92 310 q 133 135 94 203 q 248 25 172 66 q 434 -16 323 -16 m 608 1232 l 711 1232 l 924 1389 l 798 1389 l 667 1291 l 663 1291 l 572 1389 l 463 1389 l 608 1232 m 519 1198 q 469 1177 490 1198 q 448 1126 448 1156 q 469 1075 448 1096 q 519 1054 490 1054 q 569 1075 549 1054 q 590 1126 590 1096 q 569 1177 590 1156 q 519 1198 549 1198 m 760 1198 q 710 1177 730 1198 q 689 1126 689 1156 q 710 1075 689 1096 q 760 1054 730 1054 q 810 1075 789 1054 q 831 1126 831 1096 q 810 1177 831 1156 q 760 1198 789 1198 z "},"Ṳ":{"ha":970,"x_min":92,"x_max":1008,"o":"m 434 -16 q 645 24 557 -16 q 789 138 734 64 q 867 317 844 212 l 1008 979 l 883 979 l 747 340 q 689 210 730 264 q 588 126 648 155 q 456 97 528 97 q 326 121 378 97 q 248 190 275 146 q 219 294 222 235 q 221 338 218 315 q 228 385 223 361 l 353 979 l 228 979 l 102 376 q 95 332 97 354 q 93 288 92 310 q 133 135 94 203 q 248 25 172 66 q 434 -16 323 -16 m 248 -241 q 300 -220 279 -241 q 321 -168 321 -198 q 300 -115 321 -136 q 248 -94 279 -94 q 195 -115 217 -94 q 174 -168 174 -136 q 195 -220 174 -198 q 248 -241 217 -241 m 501 -241 q 554 -220 532 -241 q 575 -168 575 -198 q 554 -115 575 -136 q 501 -94 532 -94 q 449 -115 471 -94 q 427 -168 427 -136 q 449 -220 427 -198 q 501 -241 471 -241 z "},"Ṵ":{"ha":970,"x_min":92,"x_max":1008,"o":"m 434 -16 q 645 24 557 -16 q 789 138 734 64 q 867 317 844 212 l 1008 979 l 883 979 l 747 340 q 689 210 730 264 q 588 126 648 155 q 456 97 528 97 q 326 121 378 97 q 248 190 275 146 q 219 294 222 235 q 221 338 218 315 q 228 385 223 361 l 353 979 l 228 979 l 102 376 q 95 332 97 354 q 93 288 92 310 q 133 135 94 203 q 248 25 172 66 q 434 -16 323 -16 m 158 -230 l 245 -230 q 265 -179 253 -197 q 298 -162 277 -162 q 331 -176 317 -162 q 359 -209 345 -190 q 397 -241 374 -227 q 455 -255 419 -255 q 553 -211 518 -255 q 598 -104 588 -167 l 511 -104 q 491 -156 503 -138 q 458 -174 478 -174 q 426 -160 440 -174 q 397 -127 412 -146 q 359 -95 382 -109 q 300 -81 336 -81 q 230 -101 259 -81 q 183 -155 201 -121 q 158 -230 165 -189 z "},"Ủ":{"ha":970,"x_min":92,"x_max":1008,"o":"m 434 -16 q 645 24 557 -16 q 789 138 734 64 q 867 317 844 212 l 1008 979 l 883 979 l 747 340 q 689 210 730 264 q 588 126 648 155 q 456 97 528 97 q 326 121 378 97 q 248 190 275 146 q 219 294 222 235 q 221 338 218 315 q 228 385 223 361 l 353 979 l 228 979 l 102 376 q 95 332 97 354 q 93 288 92 310 q 133 135 94 203 q 248 25 172 66 q 434 -16 323 -16 m 530 1183 q 562 1195 543 1191 q 598 1199 581 1199 q 633 1187 618 1199 q 648 1160 648 1175 q 628 1115 648 1135 q 571 1082 609 1095 l 599 1027 q 697 1083 660 1043 q 734 1175 734 1123 q 719 1223 734 1202 q 680 1256 705 1244 q 624 1268 655 1268 q 578 1263 600 1268 q 542 1251 556 1259 l 530 1183 z "},"Ŭ":{"ha":970,"x_min":92,"x_max":1008,"o":"m 434 -16 q 645 24 557 -16 q 789 138 734 64 q 867 317 844 212 l 1008 979 l 883 979 l 747 340 q 689 210 730 264 q 588 126 648 155 q 456 97 528 97 q 326 121 378 97 q 248 190 275 146 q 219 294 222 235 q 221 338 218 315 q 228 385 223 361 l 353 979 l 228 979 l 102 376 q 95 332 97 354 q 93 288 92 310 q 133 135 94 203 q 248 25 172 66 q 434 -16 323 -16 m 637 1046 q 802 1103 739 1046 q 873 1252 865 1160 l 789 1252 q 740 1155 780 1189 q 642 1122 699 1122 q 544 1162 572 1122 q 522 1252 516 1202 l 441 1252 q 441 1186 435 1221 q 470 1119 448 1151 q 533 1066 492 1086 q 637 1046 574 1046 z "},"Ȗ":{"ha":970,"x_min":92,"x_max":1008,"o":"m 434 -16 q 645 24 557 -16 q 789 138 734 64 q 867 317 844 212 l 1008 979 l 883 979 l 747 340 q 689 210 730 264 q 588 126 648 155 q 456 97 528 97 q 326 121 378 97 q 248 190 275 146 q 219 294 222 235 q 221 338 218 315 q 228 385 223 361 l 353 979 l 228 979 l 102 376 q 95 332 97 354 q 93 288 92 310 q 133 135 94 203 q 248 25 172 66 q 434 -16 323 -16 m 636 1252 q 472 1195 534 1252 q 399 1046 409 1137 l 484 1046 q 533 1142 493 1109 q 631 1176 574 1176 q 729 1136 701 1176 q 751 1046 757 1096 l 831 1046 q 832 1112 838 1076 q 803 1179 825 1147 q 740 1232 781 1211 q 636 1252 699 1252 z "},"Ṹ":{"ha":970,"x_min":92,"x_max":1008,"o":"m 434 -16 q 645 24 557 -16 q 789 138 734 64 q 867 317 844 212 l 1008 979 l 883 979 l 747 340 q 689 210 730 264 q 588 126 648 155 q 456 97 528 97 q 326 121 378 97 q 248 190 275 146 q 219 294 222 235 q 221 338 218 315 q 228 385 223 361 l 353 979 l 228 979 l 102 376 q 95 332 97 354 q 93 288 92 310 q 133 135 94 203 q 248 25 172 66 q 434 -16 323 -16 m 618 1255 l 723 1255 l 882 1388 l 761 1388 l 618 1255 m 718 1045 q 815 1089 773 1045 q 871 1208 858 1133 l 793 1208 q 766 1142 784 1165 q 726 1120 749 1120 q 691 1135 706 1120 q 659 1170 675 1150 q 620 1205 642 1190 q 564 1221 597 1221 q 464 1179 506 1221 q 408 1058 422 1137 l 487 1058 q 512 1123 494 1100 q 554 1146 531 1146 q 589 1131 574 1146 q 621 1096 604 1116 q 660 1060 637 1076 q 718 1045 683 1045 z "},"Ụ":{"ha":970,"x_min":92,"x_max":1008,"o":"m 434 -16 q 645 24 557 -16 q 789 138 734 64 q 867 317 844 212 l 1008 979 l 883 979 l 747 340 q 689 210 730 264 q 588 126 648 155 q 456 97 528 97 q 326 121 378 97 q 248 190 275 146 q 219 294 222 235 q 221 338 218 315 q 228 385 223 361 l 353 979 l 228 979 l 102 376 q 95 332 97 354 q 93 288 92 310 q 133 135 94 203 q 248 25 172 66 q 434 -16 323 -16 m 374 -241 q 427 -220 406 -241 q 448 -168 448 -198 q 427 -115 448 -136 q 374 -94 406 -94 q 322 -115 344 -94 q 300 -168 300 -136 q 322 -220 300 -198 q 374 -241 344 -241 z "},"Ũ":{"ha":970,"x_min":92,"x_max":1008,"o":"m 434 -16 q 645 24 557 -16 q 789 138 734 64 q 867 317 844 212 l 1008 979 l 883 979 l 747 340 q 689 210 730 264 q 588 126 648 155 q 456 97 528 97 q 326 121 378 97 q 248 190 275 146 q 219 294 222 235 q 221 338 218 315 q 228 385 223 361 l 353 979 l 228 979 l 102 376 q 95 332 97 354 q 93 288 92 310 q 133 135 94 203 q 248 25 172 66 q 434 -16 323 -16 m 430 1099 l 517 1099 q 537 1150 525 1133 q 570 1167 549 1167 q 603 1153 589 1167 q 631 1121 616 1139 q 669 1088 646 1102 q 727 1074 691 1074 q 825 1118 790 1074 q 870 1225 860 1162 l 783 1225 q 763 1174 775 1192 q 730 1156 750 1156 q 698 1170 712 1156 q 669 1202 684 1183 q 631 1235 654 1221 q 572 1249 608 1249 q 502 1229 531 1249 q 455 1175 473 1208 q 430 1099 437 1141 z "},"Ū":{"ha":970,"x_min":92,"x_max":1008,"o":"m 434 -16 q 645 24 557 -16 q 789 138 734 64 q 867 317 844 212 l 1008 979 l 883 979 l 747 340 q 689 210 730 264 q 588 126 648 155 q 456 97 528 97 q 326 121 378 97 q 248 190 275 146 q 219 294 222 235 q 221 338 218 315 q 228 385 223 361 l 353 979 l 228 979 l 102 376 q 95 332 97 354 q 93 288 92 310 q 133 135 94 203 q 248 25 172 66 q 434 -16 323 -16 m 849 1199 l 459 1199 l 441 1117 l 831 1117 l 849 1199 z "},"Ṻ":{"ha":970,"x_min":92,"x_max":1008,"o":"m 434 -16 q 645 24 557 -16 q 789 138 734 64 q 867 317 844 212 l 1008 979 l 883 979 l 747 340 q 689 210 730 264 q 588 126 648 155 q 456 97 528 97 q 326 121 378 97 q 248 190 275 146 q 219 294 222 235 q 221 338 218 315 q 228 385 223 361 l 353 979 l 228 979 l 102 376 q 95 332 97 354 q 93 288 92 310 q 133 135 94 203 q 248 25 172 66 q 434 -16 323 -16 m 844 1080 l 861 1158 l 431 1158 l 414 1080 l 844 1080 m 555 1244 q 605 1265 585 1244 q 626 1316 626 1286 q 605 1367 626 1345 q 555 1388 585 1388 q 505 1367 526 1388 q 484 1316 484 1345 q 505 1265 484 1286 q 555 1244 526 1244 m 795 1244 q 846 1265 825 1244 q 867 1316 867 1286 q 846 1367 867 1345 q 795 1388 825 1388 q 746 1367 766 1388 q 725 1316 725 1345 q 746 1265 725 1286 q 795 1244 766 1244 z "},"Ů":{"ha":970,"x_min":92,"x_max":1008,"o":"m 434 -16 q 645 24 557 -16 q 789 138 734 64 q 867 317 844 212 l 1008 979 l 883 979 l 747 340 q 689 210 730 264 q 588 126 648 155 q 456 97 528 97 q 326 121 378 97 q 248 190 275 146 q 219 294 222 235 q 221 338 218 315 q 228 385 223 361 l 353 979 l 228 979 l 102 376 q 95 332 97 354 q 93 288 92 310 q 133 135 94 203 q 248 25 172 66 q 434 -16 323 -16 m 645 1028 q 710 1046 681 1028 q 757 1093 739 1063 q 774 1158 774 1122 q 757 1223 774 1194 q 710 1270 739 1252 q 645 1287 681 1287 q 580 1270 610 1287 q 533 1223 551 1252 q 515 1158 515 1194 q 533 1093 515 1122 q 580 1046 551 1063 q 645 1028 610 1028 m 645 1088 q 595 1108 616 1088 q 575 1158 575 1128 q 595 1207 575 1187 q 645 1227 616 1227 q 694 1207 674 1227 q 715 1158 715 1187 q 694 1108 715 1128 q 645 1088 674 1088 z "},"Ų":{"ha":970,"x_min":92,"x_max":1008,"o":"m 559 -275 l 576 -195 q 554 -202 566 -200 q 527 -204 541 -204 q 479 -191 496 -204 q 463 -154 463 -178 q 483 -101 463 -130 q 543 -39 503 -71 q 642 22 583 -7 q 787 139 730 66 q 867 316 844 211 l 1008 979 l 883 979 l 747 340 q 689 209 730 264 q 588 125 648 155 q 456 96 528 96 q 281 150 339 96 q 219 294 222 203 q 221 337 218 315 q 228 384 223 360 l 353 979 l 228 979 l 102 376 q 93 288 92 328 q 133 134 94 203 q 248 24 172 65 q 434 -16 323 -16 q 465 -15 450 -16 q 486 -14 481 -14 l 486 -16 q 388 -99 418 -57 q 357 -188 357 -142 q 392 -261 357 -233 q 484 -290 427 -290 q 529 -286 508 -290 q 559 -275 551 -281 z "},"Ư":{"ha":1070,"x_min":92,"x_max":1215,"o":"m 434 -16 q 645 23 557 -16 q 789 137 734 63 q 867 316 844 212 l 989 892 l 1024 892 q 1132 925 1088 892 q 1187 1018 1175 959 l 1215 1146 l 1107 1146 l 1084 1038 q 1060 993 1078 1008 q 1010 979 1042 979 l 883 979 l 747 340 q 689 209 730 264 q 588 125 648 155 q 456 96 528 96 q 281 150 339 96 q 219 294 222 203 q 221 337 218 315 q 228 384 223 360 l 353 979 l 228 979 l 102 376 q 95 331 97 353 q 93 288 92 309 q 133 134 94 203 q 248 24 172 65 q 434 -16 323 -16 z "},"Ừ":{"ha":1070,"x_min":92,"x_max":1215,"o":"m 434 -16 q 645 23 557 -16 q 789 137 734 63 q 867 316 844 212 l 989 892 l 1024 892 q 1132 925 1088 892 q 1187 1018 1175 959 l 1215 1146 l 1107 1146 l 1084 1038 q 1060 993 1078 1008 q 1010 979 1042 979 l 883 979 l 747 340 q 689 209 730 264 q 588 125 648 155 q 456 96 528 96 q 281 150 339 96 q 219 294 222 203 q 221 337 218 315 q 228 384 223 360 l 353 979 l 228 979 l 102 376 q 95 331 97 353 q 93 288 92 309 q 133 134 94 203 q 248 24 172 65 q 434 -16 323 -16 m 587 1058 l 681 1058 l 625 1254 l 494 1254 l 587 1058 z "},"Ứ":{"ha":1070,"x_min":92,"x_max":1215,"o":"m 434 -16 q 645 23 557 -16 q 789 137 734 63 q 867 316 844 212 l 989 892 l 1024 892 q 1132 925 1088 892 q 1187 1018 1175 959 l 1215 1146 l 1107 1146 l 1084 1038 q 1060 993 1078 1008 q 1010 979 1042 979 l 883 979 l 747 340 q 689 209 730 264 q 588 125 648 155 q 456 96 528 96 q 281 150 339 96 q 219 294 222 203 q 221 337 218 315 q 228 384 223 360 l 353 979 l 228 979 l 102 376 q 95 331 97 353 q 93 288 92 309 q 133 134 94 203 q 248 24 172 65 q 434 -16 323 -16 m 682 1058 l 859 1254 l 728 1254 l 588 1058 l 682 1058 z "},"Ự":{"ha":1070,"x_min":92,"x_max":1215,"o":"m 434 -16 q 645 23 557 -16 q 789 137 734 63 q 867 316 844 212 l 989 892 l 1024 892 q 1132 925 1088 892 q 1187 1018 1175 959 l 1215 1146 l 1107 1146 l 1084 1038 q 1060 993 1078 1008 q 1010 979 1042 979 l 883 979 l 747 340 q 689 209 730 264 q 588 125 648 155 q 456 96 528 96 q 281 150 339 96 q 219 294 222 203 q 221 337 218 315 q 228 384 223 360 l 353 979 l 228 979 l 102 376 q 95 331 97 353 q 93 288 92 309 q 133 134 94 203 q 248 24 172 65 q 434 -16 323 -16 m 373 -241 q 426 -220 404 -241 q 447 -168 447 -198 q 426 -115 447 -136 q 373 -94 404 -94 q 321 -115 342 -94 q 299 -168 299 -136 q 321 -220 299 -198 q 373 -241 342 -241 z "},"Ử":{"ha":1070,"x_min":92,"x_max":1215,"o":"m 434 -16 q 645 23 557 -16 q 789 137 734 63 q 867 316 844 212 l 989 892 l 1024 892 q 1132 925 1088 892 q 1187 1018 1175 959 l 1215 1146 l 1107 1146 l 1084 1038 q 1060 993 1078 1008 q 1010 979 1042 979 l 883 979 l 747 340 q 689 209 730 264 q 588 125 648 155 q 456 96 528 96 q 281 150 339 96 q 219 294 222 203 q 221 337 218 315 q 228 384 223 360 l 353 979 l 228 979 l 102 376 q 95 331 97 353 q 93 288 92 309 q 133 134 94 203 q 248 24 172 65 q 434 -16 323 -16 m 540 1183 q 572 1195 553 1191 q 608 1199 591 1199 q 643 1187 629 1199 q 658 1160 658 1175 q 638 1115 658 1135 q 581 1082 619 1095 l 609 1027 q 707 1083 670 1043 q 744 1175 744 1123 q 729 1223 744 1202 q 690 1256 715 1244 q 634 1268 665 1268 q 588 1263 610 1268 q 552 1251 566 1259 l 540 1183 z "},"Ữ":{"ha":1070,"x_min":92,"x_max":1215,"o":"m 434 -16 q 645 23 557 -16 q 789 137 734 63 q 867 316 844 212 l 989 892 l 1024 892 q 1132 925 1088 892 q 1187 1018 1175 959 l 1215 1146 l 1107 1146 l 1084 1038 q 1060 993 1078 1008 q 1010 979 1042 979 l 883 979 l 747 340 q 689 209 730 264 q 588 125 648 155 q 456 96 528 96 q 281 150 339 96 q 219 294 222 203 q 221 337 218 315 q 228 384 223 360 l 353 979 l 228 979 l 102 376 q 95 331 97 353 q 93 288 92 309 q 133 134 94 203 q 248 24 172 65 q 434 -16 323 -16 m 440 1099 l 528 1099 q 547 1150 535 1133 q 581 1167 559 1167 q 613 1153 599 1167 q 642 1121 627 1139 q 679 1088 656 1102 q 737 1074 701 1074 q 835 1118 800 1074 q 880 1225 870 1162 l 793 1225 q 773 1174 785 1192 q 741 1156 760 1156 q 708 1170 722 1156 q 679 1202 694 1183 q 641 1235 664 1221 q 583 1249 618 1249 q 512 1229 541 1249 q 465 1175 483 1208 q 440 1099 447 1141 z "},"V":{"ha":877,"x_min":151,"x_max":992,"o":"m 425 0 l 992 979 l 855 979 l 395 161 l 392 161 l 269 979 l 151 979 l 302 0 l 425 0 z "},"Ṽ":{"ha":877,"x_min":151,"x_max":992,"o":"m 425 0 l 992 979 l 855 979 l 395 161 l 392 161 l 269 979 l 151 979 l 302 0 l 425 0 m 391 1099 l 479 1099 q 498 1150 486 1133 q 532 1167 511 1167 q 564 1153 550 1167 q 593 1121 578 1139 q 630 1088 608 1102 q 688 1074 652 1074 q 786 1118 751 1074 q 831 1225 821 1162 l 745 1225 q 724 1174 736 1192 q 692 1156 711 1156 q 660 1170 673 1156 q 630 1202 646 1183 q 592 1235 615 1221 q 534 1249 570 1249 q 463 1229 492 1249 q 416 1175 434 1208 q 391 1099 398 1141 z "},"Ṿ":{"ha":877,"x_min":151,"x_max":992,"o":"m 425 0 l 992 979 l 855 979 l 395 161 l 392 161 l 269 979 l 151 979 l 302 0 l 425 0 m 332 -241 q 384 -220 363 -241 q 406 -168 406 -198 q 384 -115 406 -136 q 332 -94 363 -94 q 279 -115 301 -94 q 258 -168 258 -136 q 279 -220 258 -198 q 332 -241 301 -241 z "},"W":{"ha":1286,"x_min":165,"x_max":1387,"o":"m 728 778 l 731 778 l 799 0 l 919 0 l 1387 979 l 1258 979 l 892 189 l 890 189 l 825 979 l 709 979 l 321 187 l 319 187 l 279 979 l 165 979 l 224 0 l 344 0 l 728 778 z "},"Ẁ":{"ha":1286,"x_min":165,"x_max":1387,"o":"m 728 778 l 731 778 l 799 0 l 919 0 l 1387 979 l 1258 979 l 892 189 l 890 189 l 825 979 l 709 979 l 321 187 l 319 187 l 279 979 l 165 979 l 224 0 l 344 0 l 728 778 m 736 1058 l 830 1058 l 774 1254 l 643 1254 l 736 1058 z "},"Ẃ":{"ha":1286,"x_min":165,"x_max":1387,"o":"m 728 778 l 731 778 l 799 0 l 919 0 l 1387 979 l 1258 979 l 892 189 l 890 189 l 825 979 l 709 979 l 321 187 l 319 187 l 279 979 l 165 979 l 224 0 l 344 0 l 728 778 m 831 1058 l 1008 1254 l 877 1254 l 737 1058 l 831 1058 z "},"Ẇ":{"ha":1286,"x_min":165,"x_max":1387,"o":"m 728 778 l 731 778 l 799 0 l 919 0 l 1387 979 l 1258 979 l 892 189 l 890 189 l 825 979 l 709 979 l 321 187 l 319 187 l 279 979 l 165 979 l 224 0 l 344 0 l 728 778 m 806 1090 q 859 1112 838 1090 q 880 1164 880 1134 q 859 1217 880 1196 q 806 1238 838 1238 q 754 1217 776 1238 q 732 1164 732 1196 q 754 1112 732 1134 q 806 1090 776 1090 z "},"Ẉ":{"ha":1286,"x_min":165,"x_max":1387,"o":"m 728 778 l 731 778 l 799 0 l 919 0 l 1387 979 l 1258 979 l 892 189 l 890 189 l 825 979 l 709 979 l 321 187 l 319 187 l 279 979 l 165 979 l 224 0 l 344 0 l 728 778 m 532 -241 q 585 -220 564 -241 q 606 -168 606 -198 q 585 -115 606 -136 q 532 -94 564 -94 q 480 -115 502 -94 q 458 -168 458 -136 q 480 -220 458 -198 q 532 -241 502 -241 z "},"Ẅ":{"ha":1286,"x_min":165,"x_max":1387,"o":"m 728 778 l 731 778 l 799 0 l 919 0 l 1387 979 l 1258 979 l 892 189 l 890 189 l 825 979 l 709 979 l 321 187 l 319 187 l 279 979 l 165 979 l 224 0 l 344 0 l 728 778 m 680 1090 q 732 1112 711 1090 q 753 1164 753 1134 q 732 1217 753 1196 q 680 1238 711 1238 q 627 1217 649 1238 q 606 1164 606 1196 q 627 1112 606 1134 q 680 1090 649 1090 m 933 1090 q 986 1112 964 1090 q 1007 1164 1007 1134 q 986 1217 1007 1196 q 933 1238 964 1238 q 881 1217 903 1238 q 859 1164 859 1196 q 881 1112 859 1134 q 933 1090 903 1090 z "},"Ŵ":{"ha":1286,"x_min":165,"x_max":1387,"o":"m 728 778 l 731 778 l 799 0 l 919 0 l 1387 979 l 1258 979 l 892 189 l 890 189 l 825 979 l 709 979 l 321 187 l 319 187 l 279 979 l 165 979 l 224 0 l 344 0 l 728 778 m 864 1260 l 773 1260 l 558 1058 l 668 1058 l 809 1187 l 813 1187 l 907 1058 l 1014 1058 l 864 1260 z "},"X":{"ha":884,"x_min":-48,"x_max":990,"o":"m -48 0 l 109 0 l 451 395 l 456 395 l 634 0 l 774 0 l 549 481 l 990 979 l 833 979 l 491 585 l 486 585 l 308 979 l 168 979 l 394 498 l -48 0 z "},"Ẋ":{"ha":884,"x_min":-48,"x_max":990,"o":"m -48 0 l 109 0 l 451 395 l 456 395 l 634 0 l 774 0 l 549 481 l 990 979 l 833 979 l 491 585 l 486 585 l 308 979 l 168 979 l 394 498 l -48 0 m 611 1090 q 664 1112 642 1090 q 685 1164 685 1134 q 664 1217 685 1196 q 611 1238 642 1238 q 559 1217 581 1238 q 537 1164 537 1196 q 559 1112 537 1134 q 611 1090 581 1090 z "},"Ẍ":{"ha":884,"x_min":-48,"x_max":990,"o":"m -48 0 l 109 0 l 451 395 l 456 395 l 634 0 l 774 0 l 549 481 l 990 979 l 833 979 l 491 585 l 486 585 l 308 979 l 168 979 l 394 498 l -48 0 m 484 1090 q 537 1112 515 1090 q 558 1164 558 1134 q 537 1217 558 1196 q 484 1238 515 1238 q 432 1217 454 1238 q 410 1164 410 1196 q 432 1112 410 1134 q 484 1090 454 1090 m 738 1090 q 790 1112 769 1090 q 812 1164 812 1134 q 790 1217 812 1196 q 738 1238 769 1238 q 686 1217 707 1238 q 664 1164 664 1196 q 686 1112 664 1134 q 738 1090 707 1090 z "},"Y":{"ha":852,"x_min":151,"x_max":967,"o":"m 414 0 l 500 410 l 967 979 l 826 979 l 463 532 l 460 532 l 279 979 l 151 979 l 378 427 l 289 0 l 414 0 z "},"Ỳ":{"ha":852,"x_min":151,"x_max":967,"o":"m 414 0 l 500 410 l 967 979 l 826 979 l 463 532 l 460 532 l 279 979 l 151 979 l 378 427 l 289 0 l 414 0 m 527 1058 l 621 1058 l 565 1254 l 434 1254 l 527 1058 z "},"Ý":{"ha":852,"x_min":151,"x_max":967,"o":"m 414 0 l 500 410 l 967 979 l 826 979 l 463 532 l 460 532 l 279 979 l 151 979 l 378 427 l 289 0 l 414 0 m 623 1058 l 799 1254 l 668 1254 l 528 1058 l 623 1058 z "},"Ẏ":{"ha":852,"x_min":151,"x_max":967,"o":"m 414 0 l 500 410 l 967 979 l 826 979 l 463 532 l 460 532 l 279 979 l 151 979 l 378 427 l 289 0 l 414 0 m 597 1090 q 650 1112 629 1090 q 671 1164 671 1134 q 650 1217 671 1196 q 597 1238 629 1238 q 545 1217 567 1238 q 524 1164 524 1196 q 545 1112 524 1134 q 597 1090 567 1090 z "},"Ỵ":{"ha":852,"x_min":151,"x_max":967,"o":"m 414 0 l 500 410 l 967 979 l 826 979 l 463 532 l 460 532 l 279 979 l 151 979 l 378 427 l 289 0 l 414 0 m 315 -241 q 367 -220 346 -241 q 389 -168 389 -198 q 367 -115 389 -136 q 315 -94 346 -94 q 262 -115 284 -94 q 241 -168 241 -136 q 262 -220 241 -198 q 315 -241 284 -241 z "},"Ÿ":{"ha":852,"x_min":151,"x_max":967,"o":"m 414 0 l 500 410 l 967 979 l 826 979 l 463 532 l 460 532 l 279 979 l 151 979 l 378 427 l 289 0 l 414 0 m 471 1090 q 523 1112 502 1090 q 545 1164 545 1134 q 523 1217 545 1196 q 471 1238 502 1238 q 418 1217 440 1238 q 397 1164 397 1196 q 418 1112 397 1134 q 471 1090 440 1090 m 724 1090 q 777 1112 755 1090 q 798 1164 798 1134 q 777 1217 798 1196 q 724 1238 755 1238 q 672 1217 694 1238 q 650 1164 650 1196 q 672 1112 650 1134 q 724 1090 694 1090 z "},"Ỹ":{"ha":852,"x_min":151,"x_max":967,"o":"m 414 0 l 500 410 l 967 979 l 826 979 l 463 532 l 460 532 l 279 979 l 151 979 l 378 427 l 289 0 l 414 0 m 380 1099 l 468 1099 q 488 1150 475 1133 q 521 1167 500 1167 q 553 1153 539 1167 q 582 1121 567 1139 q 619 1088 597 1102 q 677 1074 642 1074 q 775 1118 741 1074 q 821 1225 810 1162 l 734 1225 q 713 1174 726 1192 q 681 1156 701 1156 q 649 1170 663 1156 q 620 1202 635 1183 q 582 1235 604 1221 q 523 1249 559 1249 q 452 1229 481 1249 q 405 1175 423 1208 q 380 1099 387 1141 z "},"Ŷ":{"ha":852,"x_min":151,"x_max":967,"o":"m 414 0 l 500 410 l 967 979 l 826 979 l 463 532 l 460 532 l 279 979 l 151 979 l 378 427 l 289 0 l 414 0 m 655 1260 l 564 1260 l 349 1058 l 459 1058 l 600 1187 l 604 1187 l 698 1058 l 805 1058 l 655 1260 z "},"Ȳ":{"ha":852,"x_min":151,"x_max":967,"o":"m 414 0 l 500 410 l 967 979 l 826 979 l 463 532 l 460 532 l 279 979 l 151 979 l 378 427 l 289 0 l 414 0 m 800 1199 l 410 1199 l 392 1117 l 782 1117 l 800 1199 z "},"Ỷ":{"ha":852,"x_min":151,"x_max":967,"o":"m 414 0 l 500 410 l 967 979 l 826 979 l 463 532 l 460 532 l 279 979 l 151 979 l 378 427 l 289 0 l 414 0 m 480 1183 q 512 1195 494 1191 q 549 1199 531 1199 q 584 1187 569 1199 q 598 1160 598 1175 q 579 1115 598 1135 q 522 1082 559 1095 l 549 1027 q 647 1083 610 1043 q 684 1175 684 1123 q 670 1223 684 1202 q 630 1256 655 1244 q 574 1268 606 1268 q 528 1263 550 1268 q 492 1251 507 1259 l 480 1183 z "},"Z":{"ha":857,"x_min":-9,"x_max":911,"o":"m -9 0 l 715 0 l 738 110 l 180 110 l 181 113 l 892 892 l 911 979 l 218 979 l 195 869 l 723 869 l 722 866 l 9 87 l -9 0 z "},"Ź":{"ha":857,"x_min":-9,"x_max":911,"o":"m -9 0 l 715 0 l 738 110 l 180 110 l 181 113 l 892 892 l 911 979 l 218 979 l 195 869 l 723 869 l 722 866 l 9 87 l -9 0 m 621 1058 l 798 1254 l 667 1254 l 527 1058 l 621 1058 z "},"Ž":{"ha":857,"x_min":-9,"x_max":911,"o":"m -9 0 l 715 0 l 738 110 l 180 110 l 181 113 l 892 892 l 911 979 l 218 979 l 195 869 l 723 869 l 722 866 l 9 87 l -9 0 m 541 1058 l 631 1058 l 846 1260 l 736 1260 l 595 1131 l 591 1131 l 498 1260 l 391 1260 l 541 1058 z "},"Ẑ":{"ha":857,"x_min":-9,"x_max":911,"o":"m -9 0 l 715 0 l 738 110 l 180 110 l 181 113 l 892 892 l 911 979 l 218 979 l 195 869 l 723 869 l 722 866 l 9 87 l -9 0 m 654 1260 l 563 1260 l 348 1058 l 458 1058 l 599 1187 l 603 1187 l 696 1058 l 804 1058 l 654 1260 z "},"Ẕ":{"ha":857,"x_min":-9,"x_max":911,"o":"m -9 0 l 715 0 l 738 110 l 180 110 l 181 113 l 892 892 l 911 979 l 218 979 l 195 869 l 723 869 l 722 866 l 9 87 l -9 0 m 554 -127 l 164 -127 l 146 -209 l 536 -209 l 554 -127 z "},"Ẓ":{"ha":857,"x_min":-9,"x_max":911,"o":"m -9 0 l 715 0 l 738 110 l 180 110 l 181 113 l 892 892 l 911 979 l 218 979 l 195 869 l 723 869 l 722 866 l 9 87 l -9 0 m 351 -241 q 403 -220 382 -241 q 425 -168 425 -198 q 403 -115 425 -136 q 351 -94 382 -94 q 298 -115 320 -94 q 277 -168 277 -136 q 298 -220 277 -198 q 351 -241 320 -241 z "},"Ż":{"ha":857,"x_min":-9,"x_max":911,"o":"m -9 0 l 715 0 l 738 110 l 180 110 l 181 113 l 892 892 l 911 979 l 218 979 l 195 869 l 723 869 l 722 866 l 9 87 l -9 0 m 596 1090 q 649 1112 627 1090 q 670 1164 670 1134 q 649 1217 670 1196 q 596 1238 627 1238 q 544 1217 566 1238 q 522 1164 522 1196 q 544 1112 522 1134 q 596 1090 566 1090 z "},"Æ":{"ha":1267,"x_min":-68,"x_max":1334,"o":"m 744 876 l 646 415 l 337 415 l 645 876 l 744 876 m 557 0 l 1126 0 l 1149 110 l 705 110 l 776 439 l 1194 439 l 1217 548 l 799 548 l 867 869 l 1310 869 l 1334 979 l 581 979 l -68 0 l 63 0 l 269 311 l 624 311 l 557 0 z "},"Ǣ":{"ha":1267,"x_min":-68,"x_max":1334,"o":"m 744 876 l 646 415 l 337 415 l 645 876 l 744 876 m 557 0 l 1126 0 l 1149 110 l 705 110 l 776 439 l 1194 439 l 1217 548 l 799 548 l 867 869 l 1310 869 l 1334 979 l 581 979 l -68 0 l 63 0 l 269 311 l 624 311 l 557 0 m 1107 1199 l 717 1199 l 699 1117 l 1089 1117 l 1107 1199 z "},"Ǽ":{"ha":1267,"x_min":-68,"x_max":1334,"o":"m 744 876 l 646 415 l 337 415 l 645 876 l 744 876 m 557 0 l 1126 0 l 1149 110 l 705 110 l 776 439 l 1194 439 l 1217 548 l 799 548 l 867 869 l 1310 869 l 1334 979 l 581 979 l -68 0 l 63 0 l 269 311 l 624 311 l 557 0 m 930 1058 l 1106 1254 l 975 1254 l 836 1058 l 930 1058 z "},"Œ":{"ha":1523,"x_min":85,"x_max":1590,"o":"m 774 0 l 1381 0 l 1404 110 l 921 110 l 993 446 l 1451 446 l 1474 555 l 1015 555 l 1083 869 l 1566 869 l 1590 979 l 982 979 l 944 800 l 942 800 q 857 905 908 862 q 740 971 806 949 q 595 994 674 994 q 391 949 484 994 q 229 823 298 903 q 123 636 161 742 q 85 411 85 531 q 136 186 85 282 q 278 37 186 90 q 492 -16 370 -16 q 655 14 578 -16 q 794 104 732 44 l 796 104 l 774 0 m 876 564 q 848 382 876 467 q 770 233 821 298 q 648 133 719 169 q 492 96 578 96 q 343 135 407 96 q 245 246 280 174 q 211 415 211 318 q 239 596 211 512 q 317 745 267 681 q 439 846 368 810 q 595 882 509 882 q 744 843 681 882 q 842 733 807 804 q 876 564 876 661 z "},"Ð":{"ha":958,"x_min":21,"x_max":928,"o":"m 24 450 l 465 450 l 489 559 l 47 559 l 24 450 m 228 979 l 21 0 l 401 0 q 615 42 518 0 q 781 161 711 84 q 889 345 851 239 q 928 580 928 451 q 878 794 928 705 q 736 931 829 884 q 513 979 643 979 l 228 979 m 330 870 l 492 870 q 663 836 594 870 q 767 734 732 802 q 802 565 802 666 q 771 382 802 465 q 686 237 741 298 q 556 142 631 176 q 391 109 481 109 l 168 109 l 330 870 z "},"Þ":{"ha":809,"x_min":20,"x_max":798,"o":"m 20 0 l 142 0 l 192 237 l 422 237 q 619 277 535 237 q 750 389 703 317 q 798 557 798 461 q 764 683 798 629 q 672 768 731 737 q 536 798 613 798 l 311 798 l 349 979 l 228 979 l 20 0 m 288 690 l 494 690 q 592 672 553 690 q 650 622 631 654 q 670 546 670 590 q 640 438 670 483 q 553 369 610 393 q 415 345 496 345 l 215 345 l 288 690 z "},"Ǝ":{"ha":769,"x_min":-9,"x_max":806,"o":"m 15 110 l -9 0 l 599 0 l 806 979 l 199 979 l 176 869 l 658 869 l 591 555 l 134 555 l 111 446 l 568 446 l 496 110 l 15 110 z "},"Α":{"ha":876,"x_min":-58,"x_max":783,"o":"m 542 830 l 545 830 l 612 384 l 292 384 l 542 830 m 667 0 l 783 0 l 631 979 l 509 979 l -58 0 l 76 0 l 235 280 l 627 280 l 667 0 z "},"Β":{"ha":882,"x_min":20,"x_max":843,"o":"m 427 0 q 621 40 538 0 q 751 150 705 80 q 798 311 798 220 q 754 438 798 383 q 630 507 711 494 l 631 509 q 740 563 692 526 q 815 650 788 599 q 843 763 843 701 q 809 877 843 829 q 714 952 774 925 q 574 979 653 979 l 228 979 l 20 0 l 427 0 m 330 871 l 528 871 q 668 838 619 871 q 716 738 716 805 q 684 644 716 684 q 596 580 652 603 q 465 557 539 557 l 263 557 l 330 871 m 168 108 l 241 452 l 467 452 q 578 435 534 452 q 646 384 623 418 q 668 300 668 351 q 637 202 668 245 q 550 133 606 159 q 422 108 495 108 l 168 108 z "},"Γ":{"ha":722,"x_min":20,"x_max":810,"o":"m 145 0 l 330 869 l 786 869 l 810 979 l 228 979 l 20 0 l 145 0 z "},"Δ":{"ha":890,"x_min":-33,"x_max":791,"o":"m 773 0 l 791 85 l 639 979 l 516 979 l -15 85 l -33 0 l 773 0 m 549 830 l 552 830 l 673 111 l 672 110 l 133 110 l 134 113 l 549 830 z "},"Ε":{"ha":769,"x_min":20,"x_max":836,"o":"m 650 110 l 168 110 l 239 446 l 696 446 l 720 555 l 262 555 l 330 869 l 812 869 l 836 979 l 228 979 l 20 0 l 627 0 l 650 110 z "},"Ζ":{"ha":857,"x_min":-9,"x_max":911,"o":"m -9 0 l 715 0 l 738 110 l 180 110 l 181 113 l 892 892 l 911 979 l 218 979 l 195 869 l 723 869 l 722 866 l 9 87 l -9 0 z "},"Η":{"ha":974,"x_min":20,"x_max":1012,"o":"m 804 0 l 1012 979 l 887 979 l 797 555 l 262 555 l 353 979 l 228 979 l 20 0 l 144 0 l 239 446 l 774 446 l 679 0 l 804 0 z "},"Θ":{"ha":1036,"x_min":85,"x_max":1008,"o":"m 742 433 l 765 541 l 351 541 l 328 433 l 742 433 m 496 -16 q 701 30 607 -16 q 863 156 794 75 q 970 342 932 237 q 1008 568 1008 448 q 957 792 1008 696 q 813 941 905 888 q 598 994 721 994 q 394 949 488 994 q 231 823 300 903 q 124 636 162 742 q 85 411 85 531 q 137 186 85 282 q 281 37 189 90 q 496 -16 373 -16 m 883 564 q 855 382 883 467 q 775 233 827 298 q 652 133 723 169 q 496 96 581 96 q 346 135 410 96 q 247 246 282 174 q 211 415 211 318 q 239 596 211 512 q 319 745 267 681 q 442 846 371 810 q 598 882 513 882 q 748 843 684 882 q 847 733 812 804 q 883 564 883 661 z "},"Ι":{"ha":315,"x_min":20,"x_max":353,"o":"m 144 0 l 353 979 l 228 979 l 20 0 l 144 0 z "},"Κ":{"ha":854,"x_min":20,"x_max":942,"o":"m 144 0 l 216 335 l 361 463 l 627 0 l 770 0 l 458 539 l 942 979 l 781 979 l 254 503 l 252 503 l 353 979 l 228 979 l 20 0 l 144 0 z "},"Λ":{"ha":862,"x_min":-52,"x_max":763,"o":"m 535 830 l 538 830 l 647 0 l 763 0 l 625 979 l 502 979 l -52 0 l 83 0 l 535 830 z "},"Μ":{"ha":1157,"x_min":20,"x_max":1195,"o":"m 135 0 l 296 762 l 300 762 l 451 7 l 555 7 l 1029 762 l 1034 762 l 871 0 l 987 0 l 1195 979 l 1042 979 l 531 154 l 528 154 l 363 979 l 228 979 l 20 0 l 135 0 z "},"Ν":{"ha":972,"x_min":20,"x_max":1010,"o":"m 144 0 l 313 795 l 316 795 l 677 0 l 802 0 l 1010 979 l 886 979 l 717 183 l 714 183 l 353 979 l 228 979 l 20 0 l 144 0 z "},"Ξ":{"ha":852,"x_min":-7,"x_max":918,"o":"m 200 979 l 176 865 l 895 865 l 918 979 l 200 979 m 745 443 l 770 555 l 170 555 l 145 443 l 745 443 m 16 113 l -7 0 l 711 0 l 734 113 l 16 113 z "},"Ο":{"ha":1029,"x_min":85,"x_max":1002,"o":"m 595 882 q 744 843 681 882 q 842 733 807 804 q 876 564 876 661 q 848 382 876 467 q 770 233 821 298 q 648 133 719 169 q 492 96 578 96 q 343 135 407 96 q 245 246 280 174 q 211 415 211 318 q 239 596 211 512 q 317 745 267 681 q 439 846 368 810 q 595 882 509 882 m 492 -16 q 696 30 604 -16 q 858 156 789 75 q 964 342 926 237 q 1002 568 1002 448 q 951 792 1002 696 q 809 941 901 888 q 595 994 718 994 q 391 949 484 994 q 229 823 298 903 q 123 636 161 742 q 85 411 85 531 q 136 186 85 282 q 278 37 186 90 q 492 -16 370 -16 z "},"Π":{"ha":960,"x_min":20,"x_max":998,"o":"m 790 0 l 998 979 l 228 979 l 20 0 l 144 0 l 329 869 l 850 869 l 665 0 l 790 0 z "},"Ρ":{"ha":830,"x_min":20,"x_max":852,"o":"m 228 979 l 20 0 l 145 0 l 219 349 l 456 349 q 658 393 568 349 q 800 518 747 437 q 852 714 852 600 q 815 855 852 795 q 713 946 777 914 q 572 979 650 979 l 228 979 m 330 870 l 530 870 q 672 826 619 870 q 725 703 725 783 q 691 570 725 625 q 594 486 656 515 q 448 458 532 458 l 242 458 l 330 870 z "},"Σ":{"ha":856,"x_min":-9,"x_max":909,"o":"m 174 113 l 504 498 l 507 510 l 345 866 l 346 869 l 886 869 l 909 979 l 218 979 l 199 888 l 376 507 l 9 87 l -9 0 l 714 0 l 737 110 l 174 110 l 174 113 z "},"Τ":{"ha":821,"x_min":144,"x_max":920,"o":"m 398 0 l 583 869 l 897 869 l 920 979 l 167 979 l 144 869 l 458 869 l 273 0 l 398 0 z "},"Υ":{"ha":852,"x_min":151,"x_max":967,"o":"m 414 0 l 500 410 l 967 979 l 826 979 l 463 532 l 460 532 l 279 979 l 151 979 l 378 427 l 289 0 l 414 0 z "},"Φ":{"ha":1105,"x_min":73,"x_max":1087,"o":"m 406 -39 l 531 -39 l 551 58 q 767 98 669 60 q 937 202 865 136 q 1048 360 1009 269 q 1087 558 1087 450 q 1046 738 1087 662 q 926 860 1004 814 q 734 916 847 905 l 755 1015 l 630 1015 l 609 916 q 393 876 491 913 q 223 771 294 838 q 112 613 151 704 q 73 414 73 523 q 115 236 73 312 q 235 114 156 159 q 427 58 314 68 l 406 -39 m 450 167 q 314 205 370 173 q 228 293 258 237 q 199 427 199 349 q 248 625 199 539 q 384 758 296 710 q 585 806 471 806 l 450 167 m 575 168 l 711 806 q 847 769 791 801 q 932 681 903 737 q 962 547 962 625 q 913 348 962 434 q 778 215 865 262 q 575 168 690 168 z "},"Χ":{"ha":884,"x_min":-48,"x_max":990,"o":"m -48 0 l 109 0 l 451 395 l 456 395 l 634 0 l 774 0 l 549 481 l 990 979 l 833 979 l 491 585 l 486 585 l 308 979 l 168 979 l 394 498 l -48 0 z "},"Ψ":{"ha":1074,"x_min":127,"x_max":1124,"o":"m 524 0 l 573 230 q 818 282 723 237 q 967 408 913 326 q 1046 609 1021 490 l 1124 979 l 1000 979 l 922 613 q 865 471 905 532 q 760 376 825 410 q 597 342 694 342 l 732 979 l 607 979 l 471 342 q 308 392 364 350 q 252 521 252 434 q 254 565 252 542 q 262 613 257 588 l 339 979 l 214 979 l 137 609 q 127 522 127 559 q 207 320 127 392 q 448 230 286 248 l 399 0 l 524 0 z "},"Ω":{"ha":1027,"x_min":14,"x_max":1002,"o":"m 557 0 l 917 0 l 940 110 l 728 110 l 728 115 q 872 242 810 165 q 968 411 934 318 q 1002 604 1002 504 q 954 808 1002 720 q 816 945 905 896 q 603 995 726 995 q 392 956 487 995 q 228 844 296 916 q 122 674 159 772 q 85 457 85 575 q 130 258 85 345 q 251 115 174 171 l 251 110 l 37 110 l 14 0 l 374 0 l 401 132 q 260 270 309 185 q 211 459 211 354 q 237 632 211 554 q 313 766 264 710 q 432 853 363 823 q 587 883 501 883 q 742 847 677 883 q 842 746 807 810 q 876 595 876 681 q 843 411 876 496 q 745 256 810 326 q 585 132 680 186 l 557 0 z "},"Ά":{"ha":876,"x_min":-58,"x_max":783,"o":"m 542 830 l 545 830 l 612 384 l 292 384 l 542 830 m 667 0 l 783 0 l 631 979 l 509 979 l -58 0 l 76 0 l 235 280 l 627 280 l 667 0 m 175 775 l 275 775 l 387 979 l 251 979 l 175 775 z "},"Έ":{"ha":923,"x_min":96,"x_max":989,"o":"m 96 775 l 197 775 l 308 979 l 172 979 l 96 775 m 804 110 l 322 110 l 393 446 l 850 446 l 873 555 l 416 555 l 484 869 l 966 869 l 989 979 l 382 979 l 174 0 l 781 0 l 804 110 z "},"Ή":{"ha":1128,"x_min":96,"x_max":1166,"o":"m 96 775 l 197 775 l 308 979 l 172 979 l 96 775 m 958 0 l 1166 979 l 1041 979 l 951 555 l 416 555 l 507 979 l 382 979 l 174 0 l 298 0 l 393 446 l 928 446 l 833 0 l 958 0 z "},"Ί":{"ha":469,"x_min":96,"x_max":507,"o":"m 96 775 l 197 775 l 308 979 l 172 979 l 96 775 m 298 0 l 507 979 l 382 979 l 174 0 l 298 0 z "},"Ϊ":{"ha":315,"x_min":20,"x_max":531,"o":"m 144 0 l 353 979 l 228 979 l 20 0 l 144 0 m 203 1090 q 256 1112 235 1090 q 277 1164 277 1134 q 256 1217 277 1196 q 203 1238 235 1238 q 151 1217 173 1238 q 130 1164 130 1196 q 151 1112 130 1134 q 203 1090 173 1090 m 457 1090 q 510 1112 488 1090 q 531 1164 531 1134 q 510 1217 531 1196 q 457 1238 488 1238 q 405 1217 427 1238 q 383 1164 383 1196 q 405 1112 383 1134 q 457 1090 427 1090 z "},"Ό":{"ha":1143,"x_min":96,"x_max":1116,"o":"m 96 775 l 197 775 l 308 979 l 172 979 l 96 775 m 709 882 q 858 843 795 882 q 956 733 921 804 q 990 564 990 661 q 962 382 990 467 q 884 233 935 298 q 762 133 833 169 q 606 96 692 96 q 457 135 521 96 q 359 246 394 174 q 325 415 325 318 q 353 596 325 512 q 431 745 380 681 q 553 846 482 810 q 709 882 623 882 m 606 -16 q 810 30 718 -16 q 972 156 903 75 q 1078 342 1040 237 q 1116 568 1116 448 q 1065 792 1116 696 q 923 941 1015 888 q 709 994 831 994 q 505 949 598 994 q 343 823 412 903 q 237 636 275 742 q 199 411 199 531 q 250 186 199 282 q 392 37 300 90 q 606 -16 484 -16 z "},"Ύ":{"ha":1050,"x_min":96,"x_max":1165,"o":"m 96 775 l 197 775 l 308 979 l 172 979 l 96 775 m 612 0 l 698 410 l 1165 979 l 1024 979 l 661 532 l 658 532 l 477 979 l 349 979 l 576 427 l 487 0 l 612 0 z "},"Ϋ":{"ha":852,"x_min":151,"x_max":967,"o":"m 414 0 l 500 410 l 967 979 l 826 979 l 463 532 l 460 532 l 279 979 l 151 979 l 378 427 l 289 0 l 414 0 m 471 1090 q 523 1112 502 1090 q 545 1164 545 1134 q 523 1217 545 1196 q 471 1238 502 1238 q 418 1217 440 1238 q 397 1164 397 1196 q 418 1112 397 1134 q 471 1090 440 1090 m 724 1090 q 777 1112 755 1090 q 798 1164 798 1134 q 777 1217 798 1196 q 724 1238 755 1238 q 672 1217 694 1238 q 650 1164 650 1196 q 672 1112 650 1134 q 724 1090 694 1090 z "},"Ώ":{"ha":1165,"x_min":96,"x_max":1139,"o":"m 96 775 l 197 775 l 308 979 l 172 979 l 96 775 m 694 0 l 1055 0 l 1078 110 l 865 110 l 865 115 q 1010 242 948 165 q 1105 411 1072 318 q 1139 604 1139 504 q 1091 808 1139 720 q 954 945 1043 896 q 741 995 864 995 q 529 956 625 995 q 366 844 434 916 q 260 674 297 772 q 223 457 223 575 q 267 258 223 345 q 389 115 311 171 l 389 110 l 175 110 l 152 0 l 511 0 l 539 132 q 398 270 447 185 q 349 459 349 354 q 375 632 349 554 q 451 766 401 710 q 570 853 500 823 q 724 883 639 883 q 880 847 815 883 q 979 746 945 810 q 1014 595 1014 681 q 981 411 1014 496 q 883 256 947 326 q 722 132 818 186 l 694 0 z "},"А":{"ha":882,"x_min":-55,"x_max":787,"o":"m 545 830 l 548 830 l 615 384 l 296 384 l 545 830 m 671 0 l 787 0 l 635 979 l 512 979 l -55 0 l 79 0 l 238 280 l 631 280 l 671 0 z "},"Ӑ":{"ha":882,"x_min":-55,"x_max":833,"o":"m 545 830 l 548 830 l 615 384 l 296 384 l 545 830 m 671 0 l 787 0 l 635 979 l 512 979 l -55 0 l 79 0 l 238 280 l 631 280 l 671 0 m 593 1051 q 758 1108 693 1051 q 833 1261 823 1166 l 746 1261 q 697 1159 735 1194 q 597 1124 659 1124 q 521 1144 549 1124 q 483 1196 493 1164 q 473 1261 472 1227 l 389 1261 q 406 1162 386 1210 q 472 1082 426 1114 q 593 1051 518 1051 z "},"Ӓ":{"ha":882,"x_min":-55,"x_max":810,"o":"m 545 830 l 548 830 l 615 384 l 296 384 l 545 830 m 671 0 l 787 0 l 635 979 l 512 979 l -55 0 l 79 0 l 238 280 l 631 280 l 671 0 m 483 1090 q 535 1112 514 1090 q 557 1164 557 1134 q 535 1217 557 1196 q 483 1238 514 1238 q 431 1217 452 1238 q 409 1164 409 1196 q 431 1112 409 1134 q 483 1090 452 1090 m 736 1090 q 789 1112 768 1090 q 810 1164 810 1134 q 789 1217 810 1196 q 736 1238 768 1238 q 684 1217 706 1238 q 663 1164 663 1196 q 684 1112 663 1134 q 736 1090 706 1090 z "},"Б":{"ha":842,"x_min":23,"x_max":811,"o":"m 410 0 q 562 28 493 0 q 680 103 630 56 q 756 209 729 150 q 783 330 783 268 q 743 468 783 410 q 632 557 703 526 q 470 589 562 589 l 273 589 l 333 869 l 787 869 l 811 979 l 231 979 l 23 0 l 410 0 m 171 109 l 250 480 l 445 480 q 596 439 538 480 q 655 312 655 399 q 621 210 655 256 q 528 136 587 163 q 397 109 470 109 l 171 109 z "},"В":{"ha":888,"x_min":23,"x_max":846,"o":"m 430 0 q 625 40 541 0 q 754 150 708 80 q 801 311 801 220 q 758 438 801 383 q 633 507 714 494 l 634 509 q 743 563 695 526 q 819 650 791 599 q 846 763 846 701 q 812 877 846 829 q 717 952 778 925 q 578 979 656 979 l 231 979 l 23 0 l 430 0 m 333 871 l 531 871 q 671 838 623 871 q 720 738 720 805 q 688 644 720 684 q 599 580 656 603 q 468 557 543 557 l 267 557 l 333 871 m 171 108 l 244 452 l 471 452 q 582 435 537 452 q 649 384 627 418 q 671 300 671 351 q 640 202 671 245 q 554 133 609 159 q 426 108 498 108 l 171 108 z "},"Г":{"ha":728,"x_min":23,"x_max":820,"o":"m 148 0 l 332 869 l 796 869 l 820 979 l 231 979 l 23 0 l 148 0 z "},"Ѓ":{"ha":728,"x_min":23,"x_max":820,"o":"m 148 0 l 332 869 l 796 869 l 820 979 l 231 979 l 23 0 l 148 0 m 577 1058 l 753 1254 l 623 1254 l 483 1058 l 577 1058 z "},"Ґ":{"ha":728,"x_min":23,"x_max":861,"o":"m 333 869 l 796 869 l 861 1172 l 747 1172 l 707 979 l 231 979 l 23 0 l 149 0 l 333 869 z "},"Ӷ":{"ha":728,"x_min":23,"x_max":820,"o":"m 109 -193 l 222 -193 l 294 110 l 47 110 l 23 0 l 155 0 l 109 -193 m 148 0 l 332 869 l 796 869 l 820 979 l 231 979 l 23 0 l 148 0 z "},"Ғ":{"ha":728,"x_min":23,"x_max":820,"o":"m 50 429 l 609 429 l 629 526 l 70 526 l 50 429 m 148 0 l 332 869 l 796 869 l 820 979 l 231 979 l 23 0 l 148 0 z "},"Ӻ":{"ha":728,"x_min":-164,"x_max":820,"o":"m 50 429 l 621 429 l 641 526 l 70 526 l 50 429 m -164 -248 q -140 -250 -157 -249 q -106 -251 -123 -251 q 59 -196 -1 -251 q 146 -10 119 -141 l 148 0 l 22 0 l 20 -9 q -26 -116 4 -84 q -110 -147 -56 -147 q -128 -146 -121 -147 q -140 -144 -135 -146 l -164 -248 m 148 0 l 332 869 l 796 869 l 820 979 l 231 979 l 23 0 l 148 0 z "},"Д":{"ha":968,"x_min":-119,"x_max":958,"o":"m 294 360 l 433 869 l 810 869 l 648 110 l 172 110 l 174 118 q 245 219 219 161 q 294 360 271 277 m 36 0 l 759 0 l 718 -193 l 831 -193 l 895 110 l 773 110 l 958 979 l 346 979 l 178 363 q 139 249 161 299 q 87 164 117 199 q 18 110 58 129 l -54 110 l -119 -193 l -5 -193 l 36 0 z "},"Е":{"ha":776,"x_min":23,"x_max":839,"o":"m 654 110 l 172 110 l 243 446 l 700 446 l 723 555 l 266 555 l 333 869 l 815 869 l 839 979 l 231 979 l 23 0 l 631 0 l 654 110 z "},"Ё":{"ha":776,"x_min":23,"x_max":839,"o":"m 654 110 l 172 110 l 243 446 l 700 446 l 723 555 l 266 555 l 333 869 l 815 869 l 839 979 l 231 979 l 23 0 l 631 0 l 654 110 m 448 1090 q 500 1112 479 1090 q 522 1164 522 1134 q 500 1217 522 1196 q 448 1238 479 1238 q 395 1217 417 1238 q 374 1164 374 1196 q 395 1112 374 1134 q 448 1090 417 1090 m 701 1090 q 754 1112 732 1090 q 775 1164 775 1134 q 754 1217 775 1196 q 701 1238 732 1238 q 649 1217 671 1238 q 627 1164 627 1196 q 649 1112 627 1134 q 701 1090 671 1090 z "},"Ӗ":{"ha":776,"x_min":23,"x_max":839,"o":"m 654 110 l 172 110 l 243 446 l 700 446 l 723 555 l 266 555 l 333 869 l 815 869 l 839 979 l 231 979 l 23 0 l 631 0 l 654 110 m 558 1051 q 723 1108 658 1051 q 798 1261 787 1166 l 711 1261 q 662 1159 700 1194 q 562 1124 624 1124 q 486 1144 513 1124 q 447 1196 458 1164 q 438 1261 437 1227 l 353 1261 q 371 1162 351 1210 q 437 1082 391 1114 q 558 1051 483 1051 z "},"Ѐ":{"ha":776,"x_min":23,"x_max":839,"o":"m 654 110 l 172 110 l 243 446 l 700 446 l 723 555 l 266 555 l 333 869 l 815 869 l 839 979 l 231 979 l 23 0 l 631 0 l 654 110 m 504 1058 l 598 1058 l 542 1254 l 411 1254 l 504 1058 z "},"Ж":{"ha":1345,"x_min":-60,"x_max":1449,"o":"m 644 477 l 650 477 l 549 0 l 671 0 l 772 475 l 780 475 l 1115 0 l 1255 0 l 905 494 l 1449 979 l 1292 979 l 791 529 l 783 529 l 880 979 l 758 979 l 662 530 l 655 530 l 345 979 l 208 979 l 531 522 l -60 0 l 106 0 l 644 477 z "},"Ӂ":{"ha":1345,"x_min":-60,"x_max":1449,"o":"m 644 477 l 650 477 l 549 0 l 671 0 l 772 475 l 780 475 l 1115 0 l 1255 0 l 905 494 l 1449 979 l 1292 979 l 791 529 l 783 529 l 880 979 l 758 979 l 662 530 l 655 530 l 345 979 l 208 979 l 531 522 l -60 0 l 106 0 l 644 477 m 842 1051 q 1006 1108 941 1051 q 1082 1261 1071 1166 l 994 1261 q 945 1159 983 1194 q 846 1124 907 1124 q 769 1144 797 1124 q 731 1196 741 1164 q 722 1261 720 1227 l 637 1261 q 654 1162 634 1210 q 720 1082 674 1114 q 842 1051 766 1051 z "},"Ӝ":{"ha":1345,"x_min":-60,"x_max":1449,"o":"m 644 477 l 650 477 l 549 0 l 671 0 l 772 475 l 780 475 l 1115 0 l 1255 0 l 905 494 l 1449 979 l 1292 979 l 791 529 l 783 529 l 880 979 l 758 979 l 662 530 l 655 530 l 345 979 l 208 979 l 531 522 l -60 0 l 106 0 l 644 477 m 731 1090 q 784 1112 762 1090 q 805 1164 805 1134 q 784 1217 805 1196 q 731 1238 762 1238 q 679 1217 701 1238 q 657 1164 657 1196 q 679 1112 657 1134 q 731 1090 701 1090 m 985 1090 q 1037 1112 1016 1090 q 1059 1164 1059 1134 q 1037 1217 1059 1196 q 985 1238 1016 1238 q 932 1217 954 1238 q 911 1164 911 1196 q 932 1112 911 1134 q 985 1090 954 1090 z "},"Җ":{"ha":1402,"x_min":-60,"x_max":1449,"o":"m 1138 -193 l 1251 -193 l 1323 110 l 1142 110 l 1115 0 l 1184 0 l 1138 -193 m 644 477 l 650 477 l 549 0 l 671 0 l 772 475 l 780 475 l 1115 0 l 1255 0 l 905 494 l 1449 979 l 1292 979 l 791 529 l 783 529 l 880 979 l 758 979 l 662 530 l 655 530 l 345 979 l 208 979 l 531 522 l -60 0 l 106 0 l 644 477 z "},"З":{"ha":801,"x_min":13,"x_max":787,"o":"m 267 449 l 404 449 q 551 404 498 449 q 604 279 604 359 q 573 182 604 224 q 489 115 543 139 q 366 90 435 90 q 244 113 296 90 q 163 175 192 135 q 135 271 135 216 q 117 271 135 271 q 76 271 99 271 q 35 271 53 271 q 17 271 17 271 q 36 155 13 208 q 104 64 58 103 q 213 5 149 26 q 356 -16 277 -16 q 505 6 437 -16 q 624 70 573 29 q 702 167 674 111 q 730 289 730 223 q 684 425 730 369 q 558 500 639 481 l 559 503 q 676 546 625 511 q 758 633 728 581 q 787 746 787 685 q 748 874 787 818 q 641 962 709 930 q 486 994 573 994 q 320 961 394 994 q 200 870 246 928 q 143 733 153 811 l 261 733 q 333 846 273 802 q 475 890 393 890 q 611 846 558 890 q 664 732 664 802 q 634 642 664 681 q 551 581 604 603 q 428 559 498 559 l 290 559 l 267 449 z "},"Ӟ":{"ha":801,"x_min":13,"x_max":787,"o":"m 267 449 l 404 449 q 551 404 498 449 q 604 279 604 359 q 573 182 604 224 q 489 115 543 139 q 366 90 435 90 q 244 113 296 90 q 163 175 192 135 q 135 271 135 216 q 117 271 135 271 q 76 271 99 271 q 35 271 53 271 q 17 271 17 271 q 36 155 13 208 q 104 64 58 103 q 213 5 149 26 q 356 -16 277 -16 q 505 6 437 -16 q 624 70 573 29 q 702 167 674 111 q 730 289 730 223 q 684 425 730 369 q 558 500 639 481 l 559 503 q 676 546 625 511 q 758 633 728 581 q 787 746 787 685 q 748 874 787 818 q 641 962 709 930 q 486 994 573 994 q 320 961 394 994 q 200 870 246 928 q 143 733 153 811 l 261 733 q 333 846 273 802 q 475 890 393 890 q 611 846 558 890 q 664 732 664 802 q 634 642 664 681 q 551 581 604 603 q 428 559 498 559 l 290 559 l 267 449 m 395 1090 q 447 1112 426 1090 q 469 1164 469 1134 q 447 1217 469 1196 q 395 1238 426 1238 q 342 1217 364 1238 q 321 1164 321 1196 q 342 1112 321 1134 q 395 1090 364 1090 m 648 1090 q 701 1112 680 1090 q 722 1164 722 1134 q 701 1217 722 1196 q 648 1238 680 1238 q 596 1217 618 1238 q 574 1164 574 1196 q 596 1112 574 1134 q 648 1090 618 1090 z "},"Ҙ":{"ha":801,"x_min":13,"x_max":787,"o":"m 416 0 l 303 0 l 262 -193 l 374 -193 l 416 0 m 267 449 l 404 449 q 551 404 498 449 q 604 279 604 359 q 573 182 604 224 q 489 115 543 139 q 366 90 435 90 q 244 113 296 90 q 163 175 192 135 q 135 271 135 216 q 117 271 135 271 q 76 271 99 271 q 35 271 53 271 q 17 271 17 271 q 36 155 13 208 q 104 64 58 103 q 213 5 149 26 q 356 -16 277 -16 q 505 6 437 -16 q 624 70 573 29 q 702 167 674 111 q 730 289 730 223 q 684 425 730 369 q 558 500 639 481 l 559 503 q 676 546 625 511 q 758 633 728 581 q 787 746 787 685 q 748 874 787 818 q 641 962 709 930 q 486 994 573 994 q 320 961 394 994 q 200 870 246 928 q 143 733 153 811 l 261 733 q 333 846 273 802 q 475 890 393 890 q 611 846 558 890 q 664 732 664 802 q 634 642 664 681 q 551 581 604 603 q 428 559 498 559 l 290 559 l 267 449 z "},"И":{"ha":978,"x_min":23,"x_max":1013,"o":"m 681 0 l 804 0 l 1013 979 l 889 979 l 201 208 l 191 208 l 355 979 l 231 979 l 23 0 l 146 0 l 833 768 l 844 768 l 681 0 z "},"Й":{"ha":978,"x_min":23,"x_max":1013,"o":"m 681 0 l 804 0 l 1013 979 l 889 979 l 201 208 l 191 208 l 355 979 l 231 979 l 23 0 l 146 0 l 833 768 l 844 768 l 681 0 m 644 1051 q 809 1108 744 1051 q 884 1261 873 1166 l 797 1261 q 748 1159 786 1194 q 648 1124 710 1124 q 572 1144 600 1124 q 533 1196 544 1164 q 524 1261 523 1227 l 439 1261 q 457 1162 437 1210 q 523 1082 477 1114 q 644 1051 569 1051 z "},"Ѝ":{"ha":978,"x_min":23,"x_max":1013,"o":"m 681 0 l 804 0 l 1013 979 l 889 979 l 201 208 l 191 208 l 355 979 l 231 979 l 23 0 l 146 0 l 833 768 l 844 768 l 681 0 m 590 1058 l 684 1058 l 628 1254 l 497 1254 l 590 1058 z "},"Ӣ":{"ha":978,"x_min":23,"x_max":1013,"o":"m 681 0 l 804 0 l 1013 979 l 889 979 l 201 208 l 191 208 l 355 979 l 231 979 l 23 0 l 146 0 l 833 768 l 844 768 l 681 0 m 863 1199 l 473 1199 l 455 1117 l 845 1117 l 863 1199 z "},"Ӥ":{"ha":978,"x_min":23,"x_max":1013,"o":"m 681 0 l 804 0 l 1013 979 l 889 979 l 201 208 l 191 208 l 355 979 l 231 979 l 23 0 l 146 0 l 833 768 l 844 768 l 681 0 m 534 1090 q 586 1112 565 1090 q 608 1164 608 1134 q 586 1217 608 1196 q 534 1238 565 1238 q 481 1217 503 1238 q 460 1164 460 1196 q 481 1112 460 1134 q 534 1090 503 1090 m 787 1090 q 840 1112 819 1090 q 861 1164 861 1134 q 840 1217 861 1196 q 787 1238 819 1238 q 735 1217 757 1238 q 713 1164 713 1196 q 735 1112 713 1134 q 787 1090 757 1090 z "},"Ҋ":{"ha":1025,"x_min":23,"x_max":1013,"o":"m 692 -193 l 807 -193 l 938 75 l 938 110 l 705 110 l 681 0 l 789 0 l 692 -193 m 681 0 l 804 0 l 1013 979 l 889 979 l 201 208 l 191 208 l 355 979 l 231 979 l 23 0 l 146 0 l 833 768 l 844 768 l 681 0 m 644 1051 q 809 1108 744 1051 q 884 1261 873 1166 l 797 1261 q 748 1159 786 1194 q 648 1124 710 1124 q 572 1144 600 1124 q 533 1196 544 1164 q 524 1261 523 1227 l 439 1261 q 457 1162 437 1210 q 523 1082 477 1114 q 644 1051 569 1051 z "},"К":{"ha":859,"x_min":23,"x_max":955,"o":"m 261 528 l 356 979 l 231 979 l 23 0 l 148 0 l 249 475 l 256 475 l 618 0 l 768 0 l 359 535 l 347 462 l 955 979 l 789 979 l 268 528 l 261 528 z "},"Ќ":{"ha":859,"x_min":23,"x_max":955,"o":"m 261 528 l 356 979 l 231 979 l 23 0 l 148 0 l 249 475 l 256 475 l 618 0 l 768 0 l 359 535 l 347 462 l 955 979 l 789 979 l 268 528 l 261 528 m 608 1058 l 784 1254 l 653 1254 l 513 1058 l 608 1058 z "},"Қ":{"ha":906,"x_min":23,"x_max":955,"o":"m 642 -193 l 755 -193 l 827 110 l 646 110 l 618 0 l 688 0 l 642 -193 m 261 528 l 356 979 l 231 979 l 23 0 l 148 0 l 249 475 l 256 475 l 618 0 l 768 0 l 359 535 l 347 462 l 955 979 l 789 979 l 268 528 l 261 528 z "},"Ҝ":{"ha":930,"x_min":23,"x_max":1034,"o":"m 241 451 l 446 451 l 697 0 l 840 0 l 567 488 l 1034 979 l 874 979 l 467 549 l 262 549 l 353 979 l 231 979 l 23 0 l 145 0 l 241 451 m 385 760 l 271 226 l 370 226 l 483 760 l 385 760 z "},"Ҟ":{"ha":859,"x_min":23,"x_max":955,"o":"m 100 789 l 435 789 l 455 885 l 120 885 l 100 789 m 261 528 l 356 979 l 231 979 l 23 0 l 148 0 l 249 475 l 256 475 l 618 0 l 768 0 l 359 535 l 347 462 l 955 979 l 789 979 l 268 528 l 261 528 z "},"Ҡ":{"ha":1227,"x_min":146,"x_max":1324,"o":"m 146 882 l 705 882 l 725 979 l 167 979 l 146 882 m 630 528 l 725 979 l 600 979 l 392 0 l 517 0 l 618 475 l 625 475 l 987 0 l 1137 0 l 728 535 l 716 462 l 1324 979 l 1158 979 l 637 528 l 630 528 z "},"Ӄ":{"ha":842,"x_min":23,"x_max":959,"o":"m 262 -279 q 456 -242 369 -279 q 607 -141 544 -205 q 703 3 669 -78 q 737 172 737 84 q 697 347 737 271 q 586 472 658 423 q 416 536 513 520 l 959 979 l 793 979 l 271 549 l 262 549 l 353 979 l 231 979 l 23 0 l 145 0 l 239 439 l 260 439 q 450 408 372 439 q 569 317 528 377 q 610 172 610 258 q 587 46 610 108 q 523 -64 565 -15 q 420 -141 480 -113 q 285 -170 360 -170 q 259 -170 270 -170 q 237 -168 248 -169 l 214 -275 q 236 -278 222 -277 q 262 -279 249 -279 z "},"Л":{"ha":911,"x_min":-77,"x_max":945,"o":"m 737 0 l 945 979 l 348 979 l 183 371 q 137 234 163 294 q 74 140 111 174 q -18 106 37 106 q -38 107 -26 106 q -54 110 -49 109 l -77 1 q -57 -4 -69 -2 q -31 -6 -45 -6 q 125 39 63 -6 q 227 167 186 83 q 300 366 268 250 l 437 869 l 797 869 l 612 0 l 737 0 z "},"Ӆ":{"ha":956,"x_min":-77,"x_max":945,"o":"m 624 -193 l 739 -193 l 869 75 l 869 110 l 637 110 l 612 0 l 721 0 l 624 -193 m 737 0 l 945 979 l 348 979 l 183 371 q 137 234 163 294 q 74 140 111 174 q -18 106 37 106 q -38 107 -26 106 q -54 110 -49 109 l -77 1 q -57 -4 -69 -2 q -31 -6 -45 -6 q 125 39 63 -6 q 227 167 186 83 q 300 366 268 250 l 437 869 l 797 869 l 612 0 l 737 0 z "},"Ԯ":{"ha":979,"x_min":-77,"x_max":945,"o":"m 699 -193 l 812 -193 l 884 110 l 636 110 l 612 0 l 745 0 l 699 -193 m 737 0 l 945 979 l 348 979 l 183 371 q 137 234 163 294 q 74 140 111 174 q -18 106 37 106 q -38 107 -26 106 q -54 110 -49 109 l -77 1 q -57 -4 -69 -2 q -31 -6 -45 -6 q 125 39 63 -6 q 227 167 186 83 q 300 366 268 250 l 437 869 l 797 869 l 612 0 l 737 0 z "},"Ԓ":{"ha":911,"x_min":-77,"x_max":945,"o":"m 425 -248 q 449 -250 433 -249 q 483 -251 466 -251 q 649 -196 589 -251 q 735 -10 709 -141 l 737 0 l 612 0 l 610 -9 q 564 -116 593 -84 q 479 -147 534 -147 q 461 -146 469 -147 q 449 -144 454 -146 l 425 -248 m 737 0 l 945 979 l 348 979 l 183 371 q 137 234 163 294 q 74 140 111 174 q -18 106 37 106 q -38 107 -26 106 q -54 110 -49 109 l -77 1 q -57 -4 -69 -2 q -31 -6 -45 -6 q 125 39 63 -6 q 227 167 186 83 q 300 366 268 250 l 437 869 l 797 869 l 612 0 l 737 0 z "},"М":{"ha":1164,"x_min":23,"x_max":1198,"o":"m 138 0 l 299 762 l 303 762 l 454 7 l 558 7 l 1032 762 l 1037 762 l 875 0 l 990 0 l 1198 979 l 1046 979 l 534 154 l 532 154 l 367 979 l 231 979 l 23 0 l 138 0 z "},"Ӎ":{"ha":1219,"x_min":23,"x_max":1198,"o":"m 886 -193 l 1001 -193 l 1132 75 l 1132 110 l 899 110 l 875 0 l 983 0 l 886 -193 m 138 0 l 299 762 l 303 762 l 454 7 l 558 7 l 1032 762 l 1037 762 l 875 0 l 990 0 l 1198 979 l 1046 979 l 534 154 l 532 154 l 367 979 l 231 979 l 23 0 l 138 0 z "},"Н":{"ha":981,"x_min":23,"x_max":1015,"o":"m 807 0 l 1015 979 l 890 979 l 800 555 l 266 555 l 356 979 l 231 979 l 23 0 l 148 0 l 243 446 l 777 446 l 682 0 l 807 0 z "},"Ӈ":{"ha":981,"x_min":23,"x_max":1015,"o":"m 492 -248 q 516 -250 500 -249 q 550 -251 533 -251 q 716 -196 656 -251 q 802 -10 776 -141 l 804 0 l 679 0 l 677 -9 q 631 -116 661 -84 q 547 -147 601 -147 q 529 -146 536 -147 q 516 -144 522 -146 l 492 -248 m 807 0 l 1015 979 l 890 979 l 800 555 l 266 555 l 356 979 l 231 979 l 23 0 l 148 0 l 243 446 l 777 446 l 682 0 l 807 0 z "},"Ң":{"ha":1049,"x_min":23,"x_max":1015,"o":"m 768 -193 l 882 -193 l 954 110 l 706 110 l 682 0 l 814 0 l 768 -193 m 807 0 l 1015 979 l 890 979 l 800 555 l 266 555 l 356 979 l 231 979 l 23 0 l 148 0 l 243 446 l 777 446 l 682 0 l 807 0 z "},"Ӊ":{"ha":1026,"x_min":23,"x_max":1015,"o":"m 694 -193 l 808 -193 l 939 75 l 939 110 l 707 110 l 682 0 l 791 0 l 694 -193 m 807 0 l 1015 979 l 890 979 l 800 555 l 266 555 l 356 979 l 231 979 l 23 0 l 148 0 l 243 446 l 777 446 l 682 0 l 807 0 z "},"Ҥ":{"ha":1379,"x_min":23,"x_max":1471,"o":"m 1448 869 l 1471 979 l 890 979 l 867 869 l 1448 869 m 807 0 l 1015 979 l 890 979 l 800 555 l 266 555 l 356 979 l 231 979 l 23 0 l 148 0 l 243 446 l 777 446 l 682 0 l 807 0 z "},"О":{"ha":1036,"x_min":89,"x_max":1005,"o":"m 598 882 q 747 843 684 882 q 845 733 810 804 q 880 564 880 661 q 852 382 880 467 q 773 233 824 298 q 652 133 722 169 q 496 96 581 96 q 347 135 410 96 q 249 246 283 174 q 214 415 214 318 q 242 596 214 512 q 321 745 270 681 q 442 846 372 810 q 598 882 513 882 m 496 -16 q 700 30 607 -16 q 861 156 793 75 q 967 342 930 237 q 1005 568 1005 448 q 955 792 1005 696 q 812 941 904 888 q 598 994 721 994 q 394 949 488 994 q 233 823 301 903 q 126 636 164 742 q 89 411 89 531 q 139 186 89 282 q 281 37 190 90 q 496 -16 373 -16 z "},"Ӧ":{"ha":1036,"x_min":89,"x_max":1005,"o":"m 598 882 q 747 843 684 882 q 845 733 810 804 q 880 564 880 661 q 852 382 880 467 q 773 233 824 298 q 652 133 722 169 q 496 96 581 96 q 347 135 410 96 q 249 246 283 174 q 214 415 214 318 q 242 596 214 512 q 321 745 270 681 q 442 846 372 810 q 598 882 513 882 m 496 -16 q 700 30 607 -16 q 861 156 793 75 q 967 342 930 237 q 1005 568 1005 448 q 955 792 1005 696 q 812 941 904 888 q 598 994 721 994 q 394 949 488 994 q 233 823 301 903 q 126 636 164 742 q 89 411 89 531 q 139 186 89 282 q 281 37 190 90 q 496 -16 373 -16 m 524 1090 q 576 1112 555 1090 q 597 1164 597 1134 q 576 1217 597 1196 q 524 1238 555 1238 q 471 1217 493 1238 q 450 1164 450 1196 q 471 1112 450 1134 q 524 1090 493 1090 m 777 1090 q 830 1112 808 1090 q 851 1164 851 1134 q 830 1217 851 1196 q 777 1238 808 1238 q 725 1217 747 1238 q 703 1164 703 1196 q 725 1112 703 1134 q 777 1090 747 1090 z "},"Ө":{"ha":1036,"x_min":89,"x_max":1005,"o":"m 598 994 q 394 949 488 994 q 233 823 301 903 q 126 636 164 742 q 89 411 89 531 q 139 186 89 282 q 281 37 190 90 q 496 -16 373 -16 q 700 30 607 -16 q 861 156 793 75 q 967 342 930 237 q 1005 568 1005 448 q 955 792 1005 696 q 812 941 904 888 q 598 994 721 994 m 598 882 q 747 843 684 882 q 845 733 810 804 q 880 564 880 661 q 852 382 880 467 q 773 233 824 298 q 652 133 722 169 q 496 96 581 96 q 347 135 410 96 q 249 246 283 174 q 214 415 214 318 q 242 596 214 512 q 321 745 270 681 q 442 846 372 810 q 598 882 513 882 m 935 549 l 172 549 l 152 452 l 914 452 l 935 549 z "},"Ӫ":{"ha":1036,"x_min":89,"x_max":1005,"o":"m 598 994 q 394 949 488 994 q 233 823 301 903 q 126 636 164 742 q 89 411 89 531 q 139 186 89 282 q 281 37 190 90 q 496 -16 373 -16 q 700 30 607 -16 q 861 156 793 75 q 967 342 930 237 q 1005 568 1005 448 q 955 792 1005 696 q 812 941 904 888 q 598 994 721 994 m 598 882 q 747 843 684 882 q 845 733 810 804 q 880 564 880 661 q 852 382 880 467 q 773 233 824 298 q 652 133 722 169 q 496 96 581 96 q 347 135 410 96 q 249 246 283 174 q 214 415 214 318 q 242 596 214 512 q 321 745 270 681 q 442 846 372 810 q 598 882 513 882 m 935 549 l 172 549 l 152 452 l 914 452 l 935 549 m 560 1090 q 613 1112 591 1090 q 634 1164 634 1134 q 613 1217 634 1196 q 560 1238 591 1238 q 508 1217 530 1238 q 486 1164 486 1196 q 508 1112 486 1134 q 560 1090 530 1090 m 814 1090 q 866 1112 845 1090 q 888 1164 888 1134 q 866 1217 888 1196 q 814 1238 845 1238 q 762 1217 783 1238 q 740 1164 740 1196 q 762 1112 740 1134 q 814 1090 783 1090 z "},"Ѳ":{"ha":1036,"x_min":89,"x_max":1005,"o":"m 598 994 q 394 949 488 994 q 233 823 301 903 q 126 636 164 742 q 89 411 89 531 q 139 186 89 282 q 281 37 190 90 q 496 -16 373 -16 q 700 30 607 -16 q 861 156 793 75 q 967 342 930 237 q 1005 568 1005 448 q 955 792 1005 696 q 812 941 904 888 q 598 994 721 994 m 598 882 q 747 843 684 882 q 845 733 810 804 q 880 564 880 661 q 852 382 880 467 q 773 233 824 298 q 652 133 722 169 q 496 96 581 96 q 347 135 410 96 q 249 246 283 174 q 214 415 214 318 q 242 596 214 512 q 321 745 270 681 q 442 846 372 810 q 598 882 513 882 m 945 548 l 897 575 q 835 525 873 546 q 727 503 797 503 q 639 516 677 503 q 563 544 600 528 q 483 573 526 560 q 378 585 439 585 q 228 542 288 585 q 136 439 169 499 l 184 412 q 245 463 207 441 q 355 484 283 484 q 439 472 401 484 q 513 444 476 460 q 595 415 550 427 q 703 402 640 402 q 811 422 764 402 q 890 475 857 441 q 945 548 923 508 z "},"П":{"ha":964,"x_min":23,"x_max":998,"o":"m 790 0 l 998 979 l 231 979 l 23 0 l 147 0 l 332 867 l 852 867 l 668 0 l 790 0 z "},"Ԥ":{"ha":1035,"x_min":23,"x_max":998,"o":"m 754 -193 l 867 -193 l 939 110 l 692 110 l 668 0 l 800 0 l 754 -193 m 790 0 l 998 979 l 231 979 l 23 0 l 147 0 l 332 867 l 852 867 l 668 0 l 790 0 z "},"Џ":{"ha":964,"x_min":23,"x_max":998,"o":"m 790 0 l 998 979 l 874 979 l 690 111 l 169 111 l 353 979 l 231 979 l 23 0 l 371 0 l 330 -193 l 439 -193 l 481 0 l 790 0 z "},"Р":{"ha":837,"x_min":23,"x_max":856,"o":"m 231 979 l 23 0 l 149 0 l 222 349 l 459 349 q 661 393 572 349 q 803 518 751 437 q 856 714 856 600 q 818 855 856 795 q 717 946 781 914 q 575 979 653 979 l 231 979 m 333 870 l 533 870 q 675 826 623 870 q 728 703 728 783 q 694 570 728 625 q 598 486 660 515 q 452 458 536 458 l 245 458 l 333 870 z "},"Ҏ":{"ha":837,"x_min":23,"x_max":856,"o":"m 420 611 l 509 395 l 515 373 l 593 186 l 709 238 l 623 429 l 606 459 l 520 652 l 420 611 m 231 979 l 23 0 l 149 0 l 222 349 l 459 349 q 661 393 572 349 q 803 518 751 437 q 856 714 856 600 q 818 855 856 795 q 717 946 781 914 q 575 979 653 979 l 231 979 m 333 870 l 533 870 q 675 826 623 870 q 728 703 728 783 q 694 570 728 625 q 598 486 660 515 q 452 458 536 458 l 245 458 l 333 870 z "},"С":{"ha":958,"x_min":90,"x_max":968,"o":"m 845 663 l 968 663 q 968 671 968 667 q 968 682 968 674 q 912 848 962 778 q 780 956 863 918 q 591 994 697 994 q 390 950 482 994 q 231 827 298 906 q 126 641 163 747 q 90 410 90 534 q 139 184 90 280 q 278 37 188 89 q 492 -16 369 -16 q 672 21 589 -16 q 814 126 755 58 q 900 285 873 193 l 777 285 q 712 183 753 226 q 614 119 670 141 q 493 96 559 96 q 345 135 407 96 q 249 244 282 173 q 215 414 215 315 q 242 601 215 515 q 319 750 269 686 q 438 848 369 813 q 590 882 507 882 q 713 858 659 882 q 803 789 768 834 q 844 680 837 743 q 845 671 844 675 q 845 663 845 667 z "},"Ҫ":{"ha":958,"x_min":90,"x_max":968,"o":"m 845 663 l 968 663 q 968 671 968 667 q 968 682 968 674 q 912 848 962 778 q 780 956 863 918 q 591 994 697 994 q 390 950 482 994 q 231 827 298 906 q 126 641 163 747 q 90 410 90 534 q 139 184 90 280 q 278 37 188 89 q 492 -16 369 -16 q 672 21 589 -16 q 814 126 755 58 q 900 285 873 193 l 777 285 q 712 183 753 226 q 614 119 670 141 q 493 96 559 96 q 345 135 407 96 q 249 244 282 173 q 215 414 215 315 q 242 601 215 515 q 319 750 269 686 q 438 848 369 813 q 590 882 507 882 q 713 858 659 882 q 803 789 768 834 q 844 680 837 743 q 845 671 844 675 q 845 663 845 667 m 322 -296 q 371 -307 345 -303 q 424 -311 397 -311 q 545 -283 494 -311 q 596 -192 596 -255 q 560 -112 596 -138 q 479 -86 524 -86 l 533 0 l 533 15 l 447 15 l 378 -94 l 366 -152 l 406 -152 q 468 -162 446 -152 q 491 -195 491 -172 q 466 -225 491 -217 q 412 -233 441 -233 q 370 -230 389 -233 q 339 -222 352 -227 l 322 -296 z "},"Т":{"ha":828,"x_min":147,"x_max":923,"o":"m 401 0 l 586 869 l 900 869 l 923 979 l 170 979 l 147 869 l 461 869 l 277 0 l 401 0 z "},"Ҭ":{"ha":828,"x_min":147,"x_max":923,"o":"m 363 -193 l 476 -193 l 548 110 l 300 110 l 277 0 l 409 0 l 363 -193 m 401 0 l 586 869 l 900 869 l 923 979 l 170 979 l 147 869 l 461 869 l 277 0 l 401 0 z "},"У":{"ha":846,"x_min":67,"x_max":954,"o":"m 119 -7 q 267 23 205 -7 q 381 110 329 52 q 488 252 433 168 l 954 979 l 814 979 l 425 349 l 414 349 l 286 979 l 158 979 l 328 209 q 273 150 301 172 q 212 117 244 127 q 143 106 180 106 q 109 109 121 106 q 90 112 96 111 l 67 2 q 86 -4 73 -1 q 119 -7 99 -7 z "},"Ў":{"ha":846,"x_min":67,"x_max":954,"o":"m 119 -7 q 267 23 205 -7 q 381 110 329 52 q 488 252 433 168 l 954 979 l 814 979 l 425 349 l 414 349 l 286 979 l 158 979 l 328 209 q 273 150 301 172 q 212 117 244 127 q 143 106 180 106 q 109 109 121 106 q 90 112 96 111 l 67 2 q 86 -4 73 -1 q 119 -7 99 -7 m 570 1051 q 734 1108 669 1051 q 810 1261 799 1166 l 722 1261 q 673 1159 711 1194 q 574 1124 635 1124 q 497 1144 525 1124 q 459 1196 469 1164 q 450 1261 448 1227 l 365 1261 q 382 1162 362 1210 q 448 1082 402 1114 q 570 1051 494 1051 z "},"Ӯ":{"ha":846,"x_min":67,"x_max":954,"o":"m 119 -7 q 267 23 205 -7 q 381 110 329 52 q 488 252 433 168 l 954 979 l 814 979 l 425 349 l 414 349 l 286 979 l 158 979 l 328 209 q 273 150 301 172 q 212 117 244 127 q 143 106 180 106 q 109 109 121 106 q 90 112 96 111 l 67 2 q 86 -4 73 -1 q 119 -7 99 -7 m 788 1199 l 398 1199 l 380 1117 l 770 1117 l 788 1199 z "},"Ӱ":{"ha":846,"x_min":67,"x_max":954,"o":"m 119 -7 q 267 23 205 -7 q 381 110 329 52 q 488 252 433 168 l 954 979 l 814 979 l 425 349 l 414 349 l 286 979 l 158 979 l 328 209 q 273 150 301 172 q 212 117 244 127 q 143 106 180 106 q 109 109 121 106 q 90 112 96 111 l 67 2 q 86 -4 73 -1 q 119 -7 99 -7 m 459 1090 q 512 1112 490 1090 q 533 1164 533 1134 q 512 1217 533 1196 q 459 1238 490 1238 q 407 1217 429 1238 q 385 1164 385 1196 q 407 1112 385 1134 q 459 1090 429 1090 m 713 1090 q 765 1112 744 1090 q 787 1164 787 1134 q 765 1217 787 1196 q 713 1238 744 1238 q 661 1217 682 1238 q 639 1164 639 1196 q 661 1112 639 1134 q 713 1090 682 1090 z "},"Ӳ":{"ha":846,"x_min":67,"x_max":954,"o":"m 119 -7 q 267 23 205 -7 q 381 110 329 52 q 488 252 433 168 l 954 979 l 814 979 l 425 349 l 414 349 l 286 979 l 158 979 l 328 209 q 273 150 301 172 q 212 117 244 127 q 143 106 180 106 q 109 109 121 106 q 90 112 96 111 l 67 2 q 86 -4 73 -1 q 119 -7 99 -7 m 505 1058 l 629 1254 l 510 1254 l 417 1058 l 505 1058 m 713 1058 l 880 1254 l 750 1254 l 619 1058 l 713 1058 z "},"Ф":{"ha":1095,"x_min":76,"x_max":1078,"o":"m 530 -14 l 551 89 q 761 129 665 92 q 928 230 857 166 q 1039 379 1000 294 q 1078 563 1078 464 q 1035 734 1078 661 q 912 850 992 808 q 723 897 833 892 l 743 992 l 623 992 l 602 897 q 392 856 488 893 q 225 755 296 819 q 115 607 154 692 q 76 422 76 522 q 119 251 76 324 q 241 136 162 178 q 431 89 321 94 l 409 -14 l 530 -14 m 200 425 q 249 606 200 526 q 384 735 298 686 q 579 787 470 783 l 454 198 q 268 262 335 201 q 200 425 200 323 m 954 560 q 904 380 954 460 q 770 251 855 300 q 574 198 684 203 l 700 787 q 886 723 819 784 q 954 560 954 663 z "},"Х":{"ha":891,"x_min":-45,"x_max":994,"o":"m -45 0 l 113 0 l 454 395 l 460 395 l 637 0 l 777 0 l 552 481 l 994 979 l 836 979 l 494 585 l 489 585 l 311 979 l 172 979 l 397 498 l -45 0 z "},"Ҳ":{"ha":928,"x_min":-45,"x_max":994,"o":"m 663 -193 l 777 -193 l 848 110 l 667 110 l 640 0 l 709 0 l 663 -193 m -45 0 l 113 0 l 454 395 l 460 395 l 637 0 l 777 0 l 552 481 l 994 979 l 836 979 l 494 585 l 489 585 l 311 979 l 172 979 l 397 498 l -45 0 z "},"Ӿ":{"ha":891,"x_min":-45,"x_max":994,"o":"m 111 441 l 817 441 l 838 538 l 132 538 l 111 441 m -45 0 l 113 0 l 454 395 l 460 395 l 637 0 l 777 0 l 552 481 l 994 979 l 836 979 l 494 585 l 489 585 l 311 979 l 172 979 l 397 498 l -45 0 z "},"Ӽ":{"ha":890,"x_min":-45,"x_max":993,"o":"m 171 979 l 397 497 l -45 0 l 112 0 l 454 395 l 459 395 l 566 155 q 595 85 583 117 q 616 23 608 53 q 624 -10 622 5 q 627 -43 627 -26 q 590 -129 627 -95 q 500 -163 554 -163 q 478 -162 488 -163 q 463 -160 469 -161 l 441 -260 q 465 -263 451 -262 q 500 -264 479 -264 q 629 -235 574 -264 q 716 -153 685 -205 q 748 -33 748 -101 q 744 23 748 -2 q 730 79 740 48 q 705 149 719 114 q 672 223 691 183 l 551 481 l 993 979 l 836 979 l 494 585 l 488 585 l 311 979 l 171 979 z "},"Ц":{"ha":1036,"x_min":26,"x_max":1003,"o":"m 876 -193 l 940 110 l 818 110 l 1003 979 l 876 979 l 692 111 l 176 111 l 361 979 l 236 979 l 26 0 l 804 0 l 762 -193 l 876 -193 z "},"Ҵ":{"ha":1239,"x_min":146,"x_max":1206,"o":"m 146 882 l 814 882 l 835 979 l 167 979 l 146 882 m 1079 -193 l 1143 110 l 1021 110 l 1206 979 l 1080 979 l 895 111 l 380 111 l 564 979 l 439 979 l 230 0 l 1007 0 l 966 -193 l 1079 -193 z "},"Ч":{"ha":900,"x_min":119,"x_max":935,"o":"m 726 0 l 935 979 l 810 979 l 720 555 q 612 501 682 526 q 449 476 542 476 q 324 510 370 476 q 265 601 279 543 q 266 731 251 659 l 319 979 l 194 979 l 141 731 q 146 544 119 627 q 247 412 174 460 q 437 363 320 363 q 571 381 506 363 q 682 427 636 398 l 692 427 l 602 0 l 726 0 z "},"Ӵ":{"ha":900,"x_min":119,"x_max":935,"o":"m 726 0 l 935 979 l 810 979 l 720 555 q 612 501 682 526 q 449 476 542 476 q 324 510 370 476 q 265 601 279 543 q 266 731 251 659 l 319 979 l 194 979 l 141 731 q 146 544 119 627 q 247 412 174 460 q 437 363 320 363 q 571 381 506 363 q 682 427 636 398 l 692 427 l 602 0 l 726 0 m 500 1090 q 552 1112 531 1090 q 574 1164 574 1134 q 552 1217 574 1196 q 500 1238 531 1238 q 448 1217 469 1238 q 426 1164 426 1196 q 448 1112 426 1134 q 500 1090 469 1090 m 753 1090 q 806 1112 785 1090 q 827 1164 827 1134 q 806 1217 827 1196 q 753 1238 785 1238 q 701 1217 723 1238 q 680 1164 680 1196 q 701 1112 680 1134 q 753 1090 723 1090 z "},"Ҷ":{"ha":968,"x_min":119,"x_max":935,"o":"m 688 -193 l 801 -193 l 873 110 l 625 110 l 602 0 l 734 0 l 688 -193 m 726 0 l 935 979 l 810 979 l 720 555 q 612 501 682 526 q 449 476 542 476 q 324 510 370 476 q 265 601 279 543 q 266 731 251 659 l 319 979 l 194 979 l 141 731 q 146 544 119 627 q 247 412 174 460 q 437 363 320 363 q 571 381 506 363 q 682 427 636 398 l 692 427 l 602 0 l 726 0 z "},"Ӌ":{"ha":900,"x_min":119,"x_max":935,"o":"m 549 -193 l 593 0 l 726 0 l 749 110 l 506 110 l 435 -193 l 549 -193 m 726 0 l 935 979 l 810 979 l 720 555 q 612 501 682 526 q 449 476 542 476 q 324 510 370 476 q 265 601 279 543 q 266 731 251 659 l 319 979 l 194 979 l 141 731 q 146 544 119 627 q 247 412 174 460 q 437 363 320 363 q 571 381 506 363 q 682 427 636 398 l 692 427 l 602 0 l 726 0 z "},"Ҹ":{"ha":900,"x_min":119,"x_max":935,"o":"m 467 704 l 353 170 l 452 170 l 566 704 l 467 704 m 726 0 l 935 979 l 810 979 l 720 555 q 612 501 682 526 q 449 476 542 476 q 324 510 370 476 q 265 601 279 543 q 266 731 251 659 l 319 979 l 194 979 l 141 731 q 146 544 119 627 q 247 412 174 460 q 437 363 320 363 q 571 381 506 363 q 682 427 636 398 l 692 427 l 602 0 l 726 0 z "},"Һ":{"ha":907,"x_min":23,"x_max":843,"o":"m 231 979 l 23 0 l 148 0 l 242 444 q 350 498 280 473 q 513 523 420 523 q 637 489 592 523 q 697 398 683 456 q 696 268 711 340 l 639 0 l 764 0 l 821 268 q 815 455 843 372 q 715 587 788 538 q 525 635 642 635 q 391 618 456 635 q 280 572 326 602 l 269 572 l 356 979 l 231 979 z "},"Ԧ":{"ha":1006,"x_min":23,"x_max":910,"o":"m 725 -193 l 838 -193 l 910 110 l 663 110 l 639 0 l 771 0 l 725 -193 m 231 979 l 23 0 l 148 0 l 242 444 q 350 498 280 473 q 513 523 420 523 q 637 489 592 523 q 697 398 683 456 q 696 268 711 340 l 639 0 l 764 0 l 821 268 q 815 455 843 372 q 715 587 788 538 q 525 635 642 635 q 391 618 456 635 q 280 572 326 602 l 269 572 l 356 979 l 231 979 z "},"Ћ":{"ha":1138,"x_min":147,"x_max":1057,"o":"m 747 505 q 856 477 814 505 q 912 396 898 450 q 910 268 926 343 l 853 0 l 978 0 l 1034 262 q 1032 450 1057 371 q 939 572 1006 529 q 770 615 872 615 q 630 586 692 615 q 522 517 568 556 l 511 517 l 586 869 l 900 869 l 924 979 l 171 979 l 147 869 l 461 869 l 277 0 l 401 0 l 479 363 q 549 435 507 403 q 642 486 591 467 q 747 505 693 505 z "},"Ш":{"ha":1274,"x_min":23,"x_max":1308,"o":"m 23 0 l 1100 0 l 1308 979 l 1183 979 l 998 110 l 647 110 l 832 979 l 707 979 l 522 110 l 171 110 l 356 979 l 231 979 l 23 0 z "},"Щ":{"ha":1342,"x_min":23,"x_max":1308,"o":"m 1061 -193 l 1175 -193 l 1246 110 l 999 110 l 975 0 l 1107 0 l 1061 -193 m 23 0 l 1100 0 l 1308 979 l 1183 979 l 998 110 l 647 110 l 832 979 l 707 979 l 522 110 l 171 110 l 356 979 l 231 979 l 23 0 z "},"Ъ":{"ha":967,"x_min":123,"x_max":919,"o":"m 549 0 q 693 24 626 0 q 811 94 760 49 q 890 202 862 140 q 919 340 919 264 q 879 488 919 426 q 768 583 839 549 q 606 616 698 616 l 418 616 l 495 979 l 147 979 l 123 869 l 347 869 l 162 0 l 549 0 m 581 507 q 733 465 674 507 q 791 333 791 422 q 758 217 791 267 q 666 137 724 166 q 536 109 608 109 l 310 109 l 395 507 l 581 507 z "},"Ы":{"ha":1129,"x_min":23,"x_max":1167,"o":"m 442 507 q 594 465 535 507 q 652 333 652 422 q 618 217 652 267 q 527 137 585 166 q 397 109 469 109 l 171 109 l 256 507 l 442 507 m 23 0 l 410 0 q 554 24 487 0 q 672 94 621 49 q 751 202 723 140 q 780 340 780 264 q 740 488 780 426 q 629 583 700 549 q 467 616 559 616 l 279 616 l 356 979 l 231 979 l 23 0 m 959 0 l 1167 979 l 1042 979 l 834 0 l 959 0 z "},"Ӹ":{"ha":1129,"x_min":23,"x_max":1167,"o":"m 442 507 q 594 465 535 507 q 652 333 652 422 q 618 217 652 267 q 527 137 585 166 q 397 109 469 109 l 171 109 l 256 507 l 442 507 m 23 0 l 410 0 q 554 24 487 0 q 672 94 621 49 q 751 202 723 140 q 780 340 780 264 q 740 488 780 426 q 629 583 700 549 q 467 616 559 616 l 279 616 l 356 979 l 231 979 l 23 0 m 959 0 l 1167 979 l 1042 979 l 834 0 l 959 0 m 610 1090 q 662 1112 641 1090 q 684 1164 684 1134 q 662 1217 684 1196 q 610 1238 641 1238 q 557 1217 579 1238 q 536 1164 536 1196 q 557 1112 536 1134 q 610 1090 579 1090 m 863 1090 q 916 1112 895 1090 q 937 1164 937 1134 q 916 1217 937 1196 q 863 1238 895 1238 q 811 1217 833 1238 q 789 1164 789 1196 q 811 1112 789 1134 q 863 1090 833 1090 z "},"Ҍ":{"ha":957,"x_min":102,"x_max":909,"o":"m 152 0 l 538 0 q 683 24 616 0 q 801 94 750 49 q 880 202 852 140 q 909 340 909 264 q 869 488 909 426 q 758 583 829 549 q 596 616 688 616 l 408 616 l 493 1021 l 368 1021 l 152 0 m 300 109 l 385 507 l 571 507 q 723 465 664 507 q 781 333 781 422 q 747 217 781 267 q 656 137 713 166 q 526 109 598 109 l 300 109 m 702 783 l 724 886 l 123 886 l 102 783 l 702 783 z "},"Ѣ":{"ha":957,"x_min":102,"x_max":909,"o":"m 152 0 l 538 0 q 683 24 616 0 q 801 94 750 49 q 880 202 852 140 q 909 340 909 264 q 869 488 909 426 q 758 583 829 549 q 596 616 688 616 l 408 616 l 493 1021 l 368 1021 l 152 0 m 300 109 l 385 507 l 571 507 q 723 465 664 507 q 781 333 781 422 q 747 217 781 267 q 656 137 713 166 q 526 109 598 109 l 300 109 m 702 783 l 724 886 l 123 886 l 102 783 l 702 783 z "},"Ь":{"ha":828,"x_min":23,"x_max":780,"o":"m 442 507 q 594 465 535 507 q 652 333 652 422 q 618 217 652 267 q 527 137 585 166 q 397 109 469 109 l 171 109 l 256 507 l 442 507 m 23 0 l 410 0 q 554 24 487 0 q 672 94 621 49 q 751 202 723 140 q 780 340 780 264 q 740 488 780 426 q 629 583 700 549 q 467 616 559 616 l 279 616 l 356 979 l 231 979 l 23 0 z "},"Љ":{"ha":1413,"x_min":-77,"x_max":1365,"o":"m 300 366 l 437 869 l 791 869 l 606 0 l 992 0 q 1144 30 1076 0 q 1262 109 1213 59 q 1338 222 1312 159 q 1365 351 1365 285 q 1325 498 1365 436 q 1215 595 1285 561 q 1053 629 1144 629 l 864 629 l 939 979 l 348 979 l 183 371 q 137 234 163 294 q 74 140 111 174 q -18 106 37 106 q -38 107 -26 106 q -54 110 -49 109 l -77 1 q -57 -4 -69 -2 q -31 -6 -45 -6 q 125 39 63 -6 q 227 167 186 83 q 300 366 268 250 m 1027 521 q 1179 475 1120 521 q 1238 332 1238 430 q 1203 220 1238 271 q 1111 139 1169 169 q 979 109 1053 109 l 753 109 l 842 521 l 1027 521 z "},"Њ":{"ha":1419,"x_min":26,"x_max":1371,"o":"m 631 0 l 1018 0 q 1205 45 1126 0 q 1328 161 1284 90 q 1371 310 1371 232 q 1333 439 1371 385 q 1230 525 1296 494 q 1078 555 1164 555 l 874 555 l 964 979 l 840 979 l 749 555 l 269 555 l 359 979 l 235 979 l 26 0 l 151 0 l 245 446 l 726 446 l 631 0 m 779 109 l 851 446 l 1053 446 q 1190 409 1137 446 q 1243 296 1243 372 q 1215 201 1243 243 q 1133 133 1186 158 q 1005 109 1080 109 l 779 109 z "},"Э":{"ha":936,"x_min":53,"x_max":926,"o":"m 401 -16 q 576 15 496 -16 q 720 104 656 45 q 827 246 783 162 q 892 437 871 330 q 894 728 926 603 q 774 924 862 853 q 551 994 686 994 q 363 957 448 994 q 218 849 279 919 q 127 680 157 779 l 251 680 q 369 828 294 775 q 538 880 445 880 q 675 841 618 880 q 761 728 732 801 q 786 554 790 654 l 361 554 l 339 446 l 770 446 q 696 259 746 337 q 575 139 646 180 q 417 97 504 97 q 305 118 355 97 q 223 180 256 140 q 178 277 191 220 l 53 277 q 106 127 58 193 q 230 23 153 61 q 401 -16 307 -16 z "},"Ӭ":{"ha":936,"x_min":53,"x_max":926,"o":"m 401 -16 q 576 15 496 -16 q 720 104 656 45 q 827 246 783 162 q 892 437 871 330 q 894 728 926 603 q 774 924 862 853 q 551 994 686 994 q 363 957 448 994 q 218 849 279 919 q 127 680 157 779 l 251 680 q 369 828 294 775 q 538 880 445 880 q 675 841 618 880 q 761 728 732 801 q 786 554 790 654 l 361 554 l 339 446 l 770 446 q 696 259 746 337 q 575 139 646 180 q 417 97 504 97 q 305 118 355 97 q 223 180 256 140 q 178 277 191 220 l 53 277 q 106 127 58 193 q 230 23 153 61 q 401 -16 307 -16 m 459 1090 q 512 1112 490 1090 q 533 1164 533 1134 q 512 1217 533 1196 q 459 1238 490 1238 q 407 1217 429 1238 q 385 1164 385 1196 q 407 1112 385 1134 q 459 1090 429 1090 m 713 1090 q 765 1112 744 1090 q 787 1164 787 1134 q 765 1217 787 1196 q 713 1238 744 1238 q 661 1217 682 1238 q 639 1164 639 1196 q 661 1112 639 1134 q 713 1090 682 1090 z "},"Ю":{"ha":1348,"x_min":23,"x_max":1317,"o":"m 529 555 l 266 555 l 356 979 l 231 979 l 23 0 l 147 0 l 242 446 l 505 446 l 529 555 m 811 -16 q 1014 30 921 -16 q 1174 156 1106 75 q 1280 342 1242 237 q 1317 568 1317 448 q 1267 792 1317 696 q 1126 941 1217 888 q 913 994 1036 994 q 711 949 804 994 q 550 823 618 903 q 445 636 482 742 q 408 411 408 531 q 458 186 408 282 q 598 37 508 90 q 811 -16 689 -16 m 1192 564 q 1164 382 1192 467 q 1086 233 1137 298 q 966 133 1036 169 q 811 96 896 96 q 664 135 726 96 q 567 246 602 174 q 533 415 533 318 q 561 596 533 512 q 638 745 588 681 q 759 846 689 810 q 913 882 829 882 q 1061 843 998 882 q 1157 733 1123 804 q 1192 564 1192 661 z "},"Я":{"ha":860,"x_min":-37,"x_max":895,"o":"m 473 471 q 321 515 380 471 q 262 653 262 559 q 297 762 262 713 q 390 841 331 811 q 521 870 448 870 l 747 870 l 662 471 l 473 471 m 460 363 q 460 363 460 363 q 460 363 460 363 l 639 363 l 562 0 l 686 0 l 895 979 l 508 979 q 356 950 425 979 q 238 872 288 921 q 162 761 189 823 q 135 635 135 700 q 185 476 135 542 q 319 382 235 411 l -37 0 l 123 0 l 460 363 z "},"Ҕ":{"ha":878,"x_min":23,"x_max":795,"o":"m 777 979 l 231 979 l 23 0 l 145 0 l 222 363 q 294 436 250 404 q 392 487 338 468 q 498 505 445 505 q 625 464 580 505 q 671 351 671 422 q 644 233 671 290 q 566 137 617 175 q 443 100 515 100 q 394 103 418 100 q 359 111 370 106 l 335 1 q 373 -7 347 -3 q 439 -11 400 -11 q 586 20 520 -11 q 698 104 651 52 q 770 224 745 157 q 795 361 795 290 q 764 495 795 438 q 672 584 732 553 q 530 615 613 615 q 422 602 471 615 q 334 566 373 588 q 266 516 296 543 l 255 516 l 330 869 l 753 869 l 777 979 z "},"Ҧ":{"ha":1482,"x_min":23,"x_max":1400,"o":"m 231 979 l 23 0 l 146 0 l 330 867 l 813 867 l 629 0 l 749 0 l 827 363 q 898 436 854 404 q 996 487 943 468 q 1103 505 1049 505 q 1230 464 1184 505 q 1275 351 1275 422 q 1248 233 1275 290 q 1171 137 1221 175 q 1047 100 1120 100 q 998 103 1022 100 q 963 111 975 106 l 939 1 q 978 -7 951 -3 q 1044 -11 1004 -11 q 1190 20 1124 -11 q 1302 104 1255 52 q 1374 224 1349 157 q 1400 361 1400 290 q 1368 495 1400 438 q 1277 584 1336 553 q 1134 615 1217 615 q 1026 602 1075 615 q 939 566 977 588 q 870 516 900 543 l 859 516 l 958 979 l 231 979 z "},"Є":{"ha":956,"x_min":71,"x_max":966,"o":"m 879 273 l 755 273 q 647 144 722 198 q 470 90 573 90 q 319 133 379 90 q 233 255 258 176 q 218 446 207 335 l 657 446 l 680 555 l 238 555 q 316 730 264 655 q 441 847 368 806 q 602 889 514 889 q 721 864 668 889 q 807 793 774 839 q 842 684 840 747 l 966 684 q 966 689 966 686 q 966 694 966 691 q 915 855 964 785 q 787 963 865 924 q 617 1002 708 1002 q 432 968 516 1002 q 283 873 348 935 q 175 728 218 812 q 109 543 131 644 q 105 235 71 361 q 231 43 139 109 q 457 -23 323 -23 q 642 13 557 -23 q 787 115 726 49 q 879 273 848 182 z "},"Ӏ":{"ha":321,"x_min":23,"x_max":356,"o":"m 148 0 l 356 979 l 231 979 l 23 0 l 148 0 z "},"І":{"ha":321,"x_min":23,"x_max":356,"o":"m 148 0 l 356 979 l 231 979 l 23 0 l 148 0 z "},"Ї":{"ha":321,"x_min":23,"x_max":534,"o":"m 148 0 l 356 979 l 231 979 l 23 0 l 148 0 m 207 1090 q 259 1112 238 1090 q 281 1164 281 1134 q 259 1217 281 1196 q 207 1238 238 1238 q 155 1217 176 1238 q 133 1164 133 1196 q 155 1112 133 1134 q 207 1090 176 1090 m 460 1090 q 513 1112 492 1090 q 534 1164 534 1134 q 513 1217 534 1196 q 460 1238 492 1238 q 408 1217 430 1238 q 387 1164 387 1196 q 408 1112 387 1134 q 460 1090 430 1090 z "},"Ҩ":{"ha":1304,"x_min":84,"x_max":1228,"o":"m 547 -16 q 711 7 633 -16 q 846 71 789 30 q 999 144 929 95 q 1120 261 1069 193 q 1200 408 1172 328 q 1228 574 1228 488 q 1194 741 1228 672 q 1094 847 1160 810 q 935 883 1029 883 q 789 850 857 883 q 670 756 721 817 q 591 617 620 696 q 563 445 563 538 q 586 308 563 378 q 648 178 608 239 q 741 77 688 118 q 859 6 797 28 q 1002 -16 922 -16 q 1120 -3 1067 -16 q 1218 34 1173 9 l 1190 133 q 1108 100 1156 112 q 1008 88 1061 88 q 913 98 948 88 q 852 132 879 108 q 766 214 803 164 q 709 326 729 264 q 689 452 689 387 q 708 576 689 518 q 760 678 727 634 q 838 746 793 722 q 933 771 882 771 q 1057 716 1013 771 q 1101 561 1101 661 q 1077 422 1101 489 q 1008 300 1053 356 q 901 202 963 244 q 761 135 838 159 q 663 106 711 115 q 562 96 614 96 q 384 142 462 96 q 260 268 305 188 q 215 448 215 347 q 241 610 215 536 q 318 741 268 684 q 441 835 369 798 q 604 887 513 872 l 630 1008 q 411 956 511 1000 q 238 836 311 911 q 124 664 165 762 q 84 452 84 566 q 117 262 84 348 q 212 114 151 176 q 358 18 273 52 q 547 -16 443 -16 z "},"Ү":{"ha":859,"x_min":154,"x_max":970,"o":"m 418 0 l 503 410 l 970 979 l 829 979 l 466 532 l 463 532 l 283 979 l 154 979 l 382 427 l 292 0 l 418 0 z "},"Ұ":{"ha":859,"x_min":134,"x_max":970,"o":"m 134 407 l 747 407 l 767 503 l 155 503 l 134 407 m 418 0 l 503 410 l 970 979 l 829 979 l 466 532 l 463 532 l 283 979 l 154 979 l 382 427 l 292 0 l 418 0 z "},"Ҽ":{"ha":1173,"x_min":78,"x_max":1149,"o":"m 669 -16 q 843 16 762 -16 q 986 106 924 47 q 1081 245 1047 165 l 947 245 q 834 136 905 174 q 670 99 764 99 q 524 137 585 99 q 429 244 463 174 q 396 410 396 313 q 397 450 396 432 q 400 479 398 468 l 1139 479 q 1145 518 1143 500 q 1148 554 1147 536 q 1149 593 1149 572 q 1104 809 1149 720 q 972 946 1058 899 q 764 994 886 994 q 570 949 659 994 q 413 824 480 905 q 309 636 346 744 q 271 404 271 529 q 319 179 271 273 q 456 35 367 85 q 669 -16 545 -16 m 309 479 l 323 583 l 274 583 q 209 603 230 583 q 187 665 187 623 q 192 702 187 682 q 208 745 197 722 q 234 796 218 768 l 130 796 q 102 747 114 773 q 84 695 90 722 q 78 644 78 669 q 127 523 78 566 q 263 479 176 479 l 309 479 m 420 583 q 494 740 444 673 q 612 843 544 806 q 758 880 680 880 q 899 848 840 880 q 989 755 958 816 q 1021 610 1021 694 q 1021 590 1021 594 q 1020 583 1021 587 l 420 583 z "},"Ҿ":{"ha":1173,"x_min":78,"x_max":1149,"o":"m 720 0 l 608 0 l 566 -193 l 679 -193 l 720 0 m 669 -16 q 843 16 762 -16 q 986 106 924 47 q 1081 245 1047 165 l 947 245 q 834 136 905 174 q 670 99 764 99 q 524 137 585 99 q 429 244 463 174 q 396 410 396 313 q 397 450 396 432 q 400 479 398 468 l 1139 479 q 1145 518 1143 500 q 1148 554 1147 536 q 1149 593 1149 572 q 1104 809 1149 720 q 972 946 1058 899 q 764 994 886 994 q 570 949 659 994 q 413 824 480 905 q 309 636 346 744 q 271 404 271 529 q 319 179 271 273 q 456 35 367 85 q 669 -16 545 -16 m 309 479 l 323 583 l 274 583 q 209 603 230 583 q 187 665 187 623 q 192 702 187 682 q 208 745 197 722 q 234 796 218 768 l 130 796 q 102 747 114 773 q 84 695 90 722 q 78 644 78 669 q 127 523 78 566 q 263 479 176 479 l 309 479 m 420 583 q 494 740 444 673 q 612 843 544 806 q 758 880 680 880 q 899 848 840 880 q 989 755 958 816 q 1021 610 1021 694 q 1021 590 1021 594 q 1020 583 1021 587 l 420 583 z "},"Ӕ":{"ha":1274,"x_min":-65,"x_max":1337,"o":"m 747 876 l 649 415 l 340 415 l 648 876 l 747 876 m 561 0 l 1129 0 l 1152 110 l 709 110 l 779 439 l 1198 439 l 1221 548 l 802 548 l 870 869 l 1314 869 l 1337 979 l 585 979 l -65 0 l 66 0 l 273 311 l 627 311 l 561 0 z "},"Ə":{"ha":995,"x_min":81,"x_max":960,"o":"m 467 -16 q 666 27 576 -16 q 822 150 756 71 q 924 336 888 229 q 960 574 960 444 q 912 800 960 706 q 775 944 864 894 q 562 994 686 994 q 388 963 469 994 q 245 872 307 931 q 150 733 184 814 l 283 733 q 397 843 326 806 q 561 880 467 880 q 708 842 646 880 q 802 735 769 804 q 836 569 836 665 q 834 539 836 556 q 829 500 833 522 l 92 500 q 86 461 88 479 q 82 425 83 443 q 81 386 81 407 q 127 170 81 260 q 259 32 173 80 q 467 -16 346 -16 m 473 98 q 332 131 391 98 q 242 223 273 163 q 210 369 210 284 q 210 389 210 385 q 211 395 210 392 l 809 395 q 738 237 787 304 q 622 134 690 170 q 473 98 554 98 z "},"Ӛ":{"ha":995,"x_min":81,"x_max":960,"o":"m 467 -16 q 666 27 576 -16 q 822 150 756 71 q 924 336 888 229 q 960 574 960 444 q 912 800 960 706 q 775 944 864 894 q 562 994 686 994 q 388 963 469 994 q 245 872 307 931 q 150 733 184 814 l 283 733 q 397 843 326 806 q 561 880 467 880 q 708 842 646 880 q 802 735 769 804 q 836 569 836 665 q 834 539 836 556 q 829 500 833 522 l 92 500 q 86 461 88 479 q 82 425 83 443 q 81 386 81 407 q 127 170 81 260 q 259 32 173 80 q 467 -16 346 -16 m 473 98 q 332 131 391 98 q 242 223 273 163 q 210 369 210 284 q 210 389 210 385 q 211 395 210 392 l 809 395 q 738 237 787 304 q 622 134 690 170 q 473 98 554 98 m 471 1090 q 523 1112 502 1090 q 545 1164 545 1134 q 523 1217 545 1196 q 471 1238 502 1238 q 418 1217 440 1238 q 397 1164 397 1196 q 418 1112 397 1134 q 471 1090 440 1090 m 724 1090 q 777 1112 755 1090 q 798 1164 798 1134 q 777 1217 798 1196 q 724 1238 755 1238 q 672 1217 694 1238 q 650 1164 650 1196 q 672 1112 650 1134 q 724 1090 694 1090 z "},"Ӡ":{"ha":801,"x_min":22,"x_max":851,"o":"m 360 -16 q 551 27 468 -16 q 680 146 633 70 q 727 320 727 222 q 657 498 727 425 q 456 576 588 570 l 456 576 l 833 892 l 851 979 l 219 979 l 195 869 l 639 869 l 637 858 l 312 580 l 293 488 l 374 488 q 542 439 481 488 q 602 304 602 391 q 571 194 602 243 q 488 118 541 146 q 370 90 436 90 q 250 112 300 90 q 173 175 200 134 q 146 271 146 215 l 28 271 q 28 271 28 271 q 28 271 28 271 q 62 122 22 186 q 179 20 102 57 q 360 -16 256 -16 z "},"Ԑ":{"ha":805,"x_min":36,"x_max":826,"o":"m 553 449 l 574 559 l 485 559 q 340 605 395 559 q 285 726 285 650 q 313 810 285 773 q 390 868 342 847 q 500 890 439 890 q 611 870 564 890 q 682 813 657 850 q 703 725 706 777 l 814 725 q 790 865 826 804 q 681 960 754 926 q 507 995 608 995 q 330 959 408 995 q 208 861 252 924 q 164 717 164 799 q 201 592 164 646 q 299 520 239 538 l 298 517 q 161 475 220 510 q 69 382 102 439 q 36 253 36 326 q 78 112 36 172 q 195 17 119 51 q 372 -16 270 -16 q 554 16 476 -16 q 680 110 632 48 q 743 258 728 171 l 620 258 q 577 167 609 204 q 496 110 546 130 q 378 90 446 90 q 222 138 281 90 q 162 262 162 186 q 193 363 162 321 q 282 427 224 405 q 423 449 341 449 l 553 449 z "},"Ѵ":{"ha":988,"x_min":154,"x_max":1114,"o":"m 429 0 l 870 762 q 907 820 890 797 q 938 856 923 842 q 968 874 953 869 q 1002 880 983 880 q 1028 877 1015 880 q 1058 867 1042 873 l 1114 967 q 1063 987 1095 980 q 996 994 1031 994 q 932 985 961 994 q 877 958 903 977 q 826 909 850 939 q 779 836 802 879 l 398 161 l 395 161 l 272 979 l 154 979 l 305 0 l 429 0 z "},"Ԝ":{"ha":1293,"x_min":168,"x_max":1390,"o":"m 732 778 l 734 778 l 802 0 l 922 0 l 1390 979 l 1261 979 l 896 189 l 893 189 l 828 979 l 713 979 l 325 187 l 322 187 l 283 979 l 168 979 l 227 0 l 347 0 l 732 778 z "}}}
